<?xml version="1.0" standalone="no"?>
<!DOCTYPE svg PUBLIC "-//W3C//DTD SVG 20010904//EN"
 "http://www.w3.org/TR/2001/REC-SVG-20010904/DTD/svg10.dtd">
<svg version="1.0" xmlns="http://www.w3.org/2000/svg"
 width="1024.000000pt" height="1024.000000pt" viewBox="0 0 1024.000000 1024.000000"
 preserveAspectRatio="xMidYMid meet">

<g transform="translate(0.000000,1024.000000) scale(0.100000,-0.100000)"
fill="#000000" stroke="none">
<path d="M7706 8385 c-14 -13 -26 -30 -26 -37 0 -7 3 -8 8 -2 4 5 18 21 31 37
30 34 23 35 -13 2z"/>
<path d="M8203 8362 c-23 -15 -44 -35 -46 -44 -9 -33 20 -19 57 27 21 25 36
45 34 45 -2 0 -22 -13 -45 -28z"/>
<path d="M3080 8311 c0 -5 8 -19 18 -31 15 -19 20 -20 24 -8 4 8 2 21 -4 29
-8 11 -9 10 -4 -3 3 -10 1 -18 -4 -18 -6 0 -10 9 -10 20 0 11 -4 20 -10 20 -5
0 -10 -4 -10 -9z"/>
<path d="M8016 8293 c-3 -4 -6 -15 -6 -25 0 -24 33 -21 38 3 3 17 -21 33 -32
22z"/>
<path d="M3132 8262 c-9 -26 -6 -34 20 -66 24 -29 28 -40 18 -51 -9 -11 -7
-17 9 -27 12 -7 21 -18 21 -25 0 -15 81 -99 92 -95 4 1 8 -4 8 -11 0 -7 28
-40 63 -73 61 -58 102 -106 65 -76 -13 10 -17 10 -21 0 -3 -9 -7 -6 -13 7 -10
26 -135 145 -151 145 -7 0 -13 6 -13 14 0 8 -11 17 -25 20 -14 4 -24 10 -21
15 3 4 -6 19 -19 31 -14 13 -25 20 -25 15 0 -5 -16 6 -35 25 -19 18 -31 38
-28 43 3 6 1 7 -5 4 -14 -10 -42 3 -42 18 0 8 -12 23 -27 34 -16 12 -34 26
-40 31 -8 7 -13 7 -13 1 0 -6 6 -14 13 -18 15 -9 30 -43 19 -43 -4 0 -12 -10
-17 -22 -10 -23 -32 -23 -27 0 2 6 -4 12 -13 12 -8 0 -15 -5 -15 -11 0 -8 -5
-7 -15 1 -9 7 -18 10 -22 7 -3 -4 -12 -2 -20 4 -17 14 -17 -3 0 -20 8 -8 2 -8
-22 2 -19 8 -39 23 -43 33 -6 16 -7 14 -5 -6 1 -17 9 -26 25 -28 12 -2 22 -10
22 -18 0 -16 -16 -19 -25 -4 -3 6 -11 10 -17 10 -6 0 -3 -9 7 -20 9 -10 15
-26 12 -33 -6 -15 10 -37 26 -37 5 0 3 8 -4 18 -13 16 -13 16 5 2 18 -14 19
-13 12 5 -6 17 -4 17 18 -4 14 -14 23 -27 20 -30 -3 -3 -9 1 -15 9 -8 13 -11
12 -24 -3 -7 -11 -11 -25 -9 -32 3 -7 -2 -15 -10 -18 -9 -4 -16 -2 -16 2 0 5
-16 18 -35 30 -21 12 -35 28 -35 40 0 11 -3 22 -7 24 -10 7 -9 -41 1 -73 5
-14 21 -38 36 -55 28 -31 43 -70 45 -117 1 -26 -5 -27 -33 -5 -7 6 -25 12 -38
13 l-26 3 21 -18 c12 -10 21 -26 21 -35 0 -9 5 -16 11 -16 6 0 9 -6 7 -12 -3
-7 6 -21 19 -31 13 -11 35 -41 48 -68 14 -26 34 -57 46 -68 11 -10 17 -21 12
-24 -4 -3 -42 26 -83 63 -41 38 -76 67 -78 65 -7 -6 99 -140 164 -210 52 -55
56 -57 50 -30 l-8 30 32 -35 c53 -58 145 -153 186 -191 22 -20 53 -53 71 -73
18 -20 37 -36 43 -36 5 0 10 -6 10 -13 0 -8 32 -44 71 -81 40 -36 69 -69 65
-73 -3 -3 -14 2 -23 13 -10 11 -31 26 -46 34 -16 8 -36 27 -45 42 -9 15 -22
28 -29 28 -7 0 -13 7 -13 15 0 8 -4 15 -9 15 -5 0 -23 14 -40 32 -37 38 -50
33 -16 -6 39 -45 29 -78 -11 -38 -10 9 -22 18 -28 18 -6 1 -17 2 -23 3 -7 0
-13 7 -13 14 0 8 -8 21 -17 30 -16 13 -20 14 -37 1 -16 -11 -17 -17 -8 -26 15
-15 16 -28 2 -28 -5 0 -10 6 -10 14 0 7 -7 19 -15 26 -8 7 -15 17 -15 22 0 6
5 6 14 -1 10 -8 16 -8 25 2 14 17 -25 67 -52 67 -14 0 -17 5 -12 20 5 14 2 20
-9 20 -9 0 -16 5 -16 11 0 15 -20 33 -62 52 -36 17 -55 43 -23 31 9 -4 15 0
15 10 0 9 -7 16 -15 16 -9 0 -20 10 -25 23 -5 12 -9 16 -9 10 -1 -22 -26 -14
-54 15 -15 15 -27 31 -27 35 0 12 -121 139 -128 133 -9 -10 9 -57 20 -50 6 4
9 1 6 -7 -3 -8 -19 -14 -39 -15 -31 0 -34 -3 -31 -29 2 -16 10 -38 18 -49 8
-11 14 -26 14 -33 0 -17 -27 -17 -33 0 -3 7 -9 0 -15 -15 -10 -24 -7 -37 20
-90 34 -68 68 -118 106 -158 32 -33 85 -110 76 -110 -19 0 -163 157 -189 206
-29 55 -45 75 -45 54 0 -5 5 -19 10 -30 6 -11 15 -29 20 -40 6 -11 10 -26 10
-33 0 -19 35 -49 45 -40 5 5 3 0 -4 -9 -8 -11 -9 -18 -3 -18 6 0 37 -33 69
-72 32 -40 62 -76 68 -80 7 -5 7 -8 0 -8 -5 0 17 -25 50 -55 44 -40 55 -55 41
-55 -11 0 -36 17 -56 38 -42 42 -67 60 -93 69 -12 4 -16 12 -12 24 4 13 1 19
-9 19 -9 0 -16 7 -16 15 0 8 -8 22 -18 32 -35 35 -132 160 -132 170 0 6 -7 16
-15 23 -8 7 -12 16 -9 21 3 5 1 9 -5 9 -14 0 -55 70 -54 91 1 10 -5 24 -14 31
-14 12 -15 9 -9 -23 8 -44 31 -92 51 -109 8 -7 15 -20 15 -29 0 -9 11 -28 25
-43 14 -15 25 -30 25 -33 0 -3 20 -31 45 -62 24 -31 43 -59 41 -61 -2 -1 47
-53 110 -114 62 -62 110 -116 107 -121 -3 -6 -1 -7 5 -3 7 4 12 3 12 -2 0 -5
12 -15 26 -22 14 -8 32 -27 41 -43 8 -16 10 -26 5 -23 -6 3 -12 1 -14 -6 -5
-14 -116 71 -117 90 -1 6 -8 12 -16 12 -8 0 -15 4 -15 9 0 13 -110 129 -135
144 -13 6 -37 20 -54 30 -17 10 -31 15 -31 13 0 -6 -3 -2 204 -227 34 -36 97
-105 141 -154 44 -48 113 -121 154 -161 41 -41 69 -74 63 -74 -6 0 -17 7 -26
15 -8 8 -17 15 -20 15 -3 0 -14 8 -25 18 -10 9 -42 37 -72 62 -58 49 -89 80
-189 186 -107 114 -155 171 -217 257 -13 17 -23 25 -23 18 0 -11 -5 -9 -20 4
-11 10 -20 27 -20 37 0 10 -7 21 -15 24 -8 4 -15 11 -15 18 0 6 -12 22 -25 35
-14 13 -33 36 -42 52 -10 16 -21 29 -26 29 -5 0 -2 -11 7 -25 25 -38 8 -30
-31 15 -20 22 -43 40 -52 40 -14 0 -14 2 -1 10 14 9 13 11 -10 14 -5 0 -10 5
-9 10 0 5 -3 12 -9 15 -5 3 -14 15 -20 26 -10 17 -11 18 -12 3 0 -10 -4 -18
-10 -18 -5 0 -10 -6 -10 -14 0 -20 -59 -27 -69 -8 -7 13 -13 11 -36 -12 -15
-15 -24 -30 -20 -34 4 -4 13 2 21 12 14 19 14 19 14 -1 0 -11 -6 -26 -14 -32
-7 -6 -16 -24 -19 -39 -3 -15 -15 -37 -26 -49 -12 -12 -21 -29 -21 -38 0 -8
-4 -15 -10 -15 -5 0 -10 7 -10 15 0 15 -12 20 -22 9 -8 -8 14 -76 31 -96 12
-13 17 -15 23 -5 5 7 6 0 2 -15 -5 -21 -2 -28 9 -28 14 0 27 -19 33 -50 2 -8
12 -21 23 -29 12 -7 21 -18 21 -23 0 -17 132 -182 218 -273 47 -49 94 -102
105 -117 12 -16 24 -28 28 -28 11 0 99 -88 99 -99 0 -6 6 -11 13 -11 6 0 33
-21 59 -48 153 -153 145 -147 162 -133 9 8 16 9 16 3 0 -6 -5 -12 -11 -14 -14
-5 41 -87 58 -88 6 0 42 -34 79 -75 37 -41 76 -75 86 -75 17 0 19 -4 22 -37 2
-21 120 -134 134 -128 7 2 10 0 7 -5 -3 -5 44 -61 105 -124 79 -81 116 -113
128 -109 12 3 13 2 5 -4 -14 -10 8 -33 132 -139 39 -32 81 -69 95 -81 13 -12
27 -20 30 -17 3 4 -19 27 -48 53 -28 25 -52 52 -52 59 0 18 10 15 34 -11 12
-13 27 -22 34 -19 7 2 12 -5 12 -17 0 -12 6 -21 13 -21 8 0 20 -11 27 -25 8
-15 19 -23 28 -20 17 6 40 -16 34 -33 -2 -8 2 -10 14 -5 12 4 15 3 10 -5 -9
-15 23 -49 32 -36 15 21 49 4 62 -32 5 -13 16 -24 25 -24 8 0 15 -7 15 -15 0
-8 -5 -15 -12 -15 -9 0 -9 -3 0 -12 17 -17 15 -28 -7 -28 -24 0 -32 -21 -14
-38 17 -17 17 -36 0 -29 -7 3 -23 -6 -36 -19 -13 -13 -32 -24 -42 -24 -10 0
-19 -5 -19 -11 0 -18 -59 -71 -71 -63 -7 4 -9 3 -6 -4 9 -13 -60 -85 -77 -79
-7 3 -13 -4 -14 -17 -2 -23 -122 -156 -141 -156 -6 0 -11 -7 -11 -16 0 -8 -4
-12 -10 -9 -6 3 -7 -1 -4 -10 5 -11 0 -15 -17 -13 -16 2 -24 -3 -27 -17 -7
-33 -34 -66 -49 -61 -8 4 -11 1 -7 -5 3 -6 -3 -21 -15 -33 -24 -24 -98 -105
-121 -133 -8 -10 -14 -20 -13 -24 1 -4 -9 -6 -22 -7 -25 0 -55 -23 -55 -42 0
-6 -13 -16 -30 -21 -24 -9 -28 -14 -20 -28 6 -13 5 -18 -4 -18 -18 0 -15 55 4
67 9 6 17 5 22 -3 6 -9 8 -8 8 3 0 8 11 28 25 44 14 16 25 32 25 36 0 4 12 12
26 19 15 6 24 15 20 18 -3 3 -1 12 6 20 10 12 7 12 -15 2 -15 -7 -27 -16 -27
-21 0 -5 -35 -43 -77 -86 -79 -78 -83 -84 -83 -102 0 -5 -7 -10 -15 -10 -9 0
-32 -19 -53 -41 -20 -23 -50 -55 -67 -72 -16 -17 -30 -35 -30 -41 0 -6 -5 -11
-12 -11 -6 0 -34 -22 -61 -50 -28 -27 -67 -66 -87 -85 -21 -19 -58 -62 -83
-95 -26 -33 -53 -65 -62 -72 -10 -8 -11 -12 -3 -13 7 0 25 13 40 30 14 16 33
30 42 31 10 0 12 2 4 6 -20 8 -15 23 7 23 11 0 20 6 20 14 0 7 9 16 20 19 11
3 20 3 20 1 0 -8 -35 -58 -55 -79 -11 -11 -38 -43 -60 -70 -22 -27 -52 -62
-67 -78 -26 -27 -40 -76 -18 -62 6 4 8 10 5 15 -3 5 6 12 20 16 14 3 25 10 25
14 0 12 89 100 101 100 15 0 11 -10 -25 -53 -18 -23 -48 -69 -65 -102 -18 -33
-35 -60 -39 -60 -12 0 -52 -45 -52 -58 0 -7 -8 -22 -17 -33 -10 -10 -25 -28
-33 -38 -14 -18 -14 -19 5 -8 11 6 29 24 40 41 11 18 32 33 49 37 16 3 31 14
33 25 3 10 9 17 13 14 5 -3 11 -1 15 5 4 6 11 8 16 5 5 -3 30 10 55 29 26 20
51 36 55 36 5 0 18 8 29 17 21 18 60 26 60 13 0 -3 -11 -17 -24 -29 -18 -17
-25 -19 -30 -9 -3 7 -3 3 0 -10 5 -19 2 -23 -13 -20 -12 2 -17 -2 -15 -14 2
-10 -1 -18 -6 -18 -5 0 -14 -11 -20 -25 -6 -14 -8 -25 -4 -25 15 0 52 46 45
55 -5 4 -1 5 7 3 8 -3 25 4 37 15 13 11 26 18 29 14 3 -3 -6 -17 -20 -30 -14
-13 -26 -29 -26 -34 0 -5 -9 -18 -20 -28 -25 -22 -26 -35 -2 -35 18 0 46 35
38 48 -2 4 10 8 27 9 18 1 28 -1 22 -5 -17 -12 -57 -93 -50 -100 4 -4 18 6 33
23 17 20 27 26 30 17 3 -10 11 -7 28 9 13 12 27 19 31 15 4 -4 0 -12 -10 -17
-21 -12 -23 -33 -2 -25 8 3 15 0 15 -6 0 -6 12 1 26 16 27 26 44 33 44 18 0
-5 -17 -27 -37 -48 -51 -54 -78 -95 -78 -121 -1 -22 0 -22 25 -6 51 32 64 43
56 43 -5 0 -3 7 4 15 9 11 16 13 23 6 7 -7 6 -15 -3 -26 -18 -21 -5 -31 15
-11 9 9 23 16 30 16 8 0 18 6 22 14 7 12 10 11 23 -2 13 -14 12 -15 -4 -9 -15
6 -17 3 -12 -18 4 -14 2 -25 -4 -25 -5 0 -10 -4 -10 -10 0 -5 8 -10 18 -10 14
0 15 -2 2 -10 -31 -20 0 -9 54 19 77 41 76 36 -20 -62 -18 -18 -35 -44 -38
-59 -4 -16 -12 -28 -19 -28 -22 0 -59 -47 -54 -67 4 -16 5 -16 6 0 1 21 21 23
21 2 0 -9 -7 -18 -15 -21 -8 -4 -15 -15 -15 -26 0 -18 -1 -18 -16 -3 -15 15
-18 14 -32 -7 -9 -13 -28 -34 -42 -48 -15 -14 -49 -52 -76 -85 -26 -33 -61
-73 -76 -90 -15 -16 -26 -35 -24 -41 3 -6 -6 -17 -19 -24 -13 -7 -26 -21 -28
-31 -3 -11 -14 -19 -26 -19 -12 0 -21 -4 -21 -10 0 -5 5 -10 10 -10 6 0 10 -7
10 -15 0 -17 18 -19 38 -6 11 7 11 9 -2 14 -9 4 -16 11 -16 16 0 17 63 55 87
53 20 -2 22 2 17 23 -6 25 10 36 19 13 4 -10 8 -10 16 2 5 8 7 19 4 25 -4 5
-3 7 2 3 4 -4 14 -1 22 7 20 21 32 19 26 -5 -3 -11 -10 -20 -15 -20 -12 0 -38
-26 -38 -37 0 -5 -20 -30 -45 -57 -25 -27 -45 -53 -45 -57 0 -5 -7 -5 -17 -2
-11 4 -14 3 -9 -5 4 -7 -2 -16 -17 -21 -33 -13 -43 -42 -21 -58 16 -12 15 -13
-8 -13 -26 0 -58 -27 -58 -49 0 -7 -4 -10 -9 -7 -10 7 -61 -49 -61 -66 0 -7
14 -8 38 -5 32 5 35 4 20 -7 -10 -7 -18 -18 -18 -23 0 -6 -7 -16 -16 -23 -9
-8 -14 -25 -12 -43 3 -26 10 -33 56 -50 46 -17 55 -18 64 -6 7 11 11 11 15 2
2 -7 11 -13 18 -13 8 0 19 -9 25 -20 7 -13 21 -20 40 -20 17 0 30 -5 30 -11 0
-7 11 -9 29 -6 24 5 31 2 36 -13 13 -42 83 -13 72 30 -8 30 31 97 64 112 17 7
27 18 24 26 -2 7 6 17 19 22 14 5 29 17 35 27 10 17 10 17 11 -1 0 -10 -10
-29 -22 -42 -13 -12 -27 -27 -33 -33 -5 -6 -27 -25 -47 -42 -46 -38 -51 -62
-10 -53 15 4 31 13 35 21 5 7 12 11 18 8 5 -4 14 5 21 19 6 14 15 26 20 26 5
0 6 5 2 12 -4 6 -3 8 4 4 6 -3 17 3 25 14 8 12 19 20 24 18 11 -4 63 47 63 62
0 5 5 10 10 10 6 0 10 -4 10 -10 0 -5 5 -10 10 -10 7 0 7 6 1 19 -8 14 -5 23
17 43 15 14 35 28 45 31 9 4 17 13 17 20 0 21 39 52 66 52 29 1 29 -2 7 -29
-18 -20 -18 -20 9 0 15 10 28 25 28 32 0 14 26 16 34 3 9 -13 46 -1 46 15 0
19 -16 18 -24 -2 -3 -8 -10 -13 -15 -9 -18 11 1 36 25 33 13 -2 23 1 23 6 -1
9 21 26 34 26 5 0 5 -4 2 -10 -3 -5 1 -10 9 -10 28 0 27 -20 -1 -44 -34 -29
-42 -26 -19 9 9 14 12 25 7 25 -15 0 -22 -17 -27 -68 -3 -34 -10 -52 -26 -64
-13 -9 -20 -19 -17 -23 4 -3 21 11 38 32 60 70 156 176 188 207 17 17 43 48
58 69 14 22 39 50 55 64 17 14 28 29 24 34 -3 5 2 9 10 9 8 0 24 14 36 30 26
36 55 41 45 8 -4 -13 -20 -36 -35 -53 -31 -34 -109 -138 -127 -168 -6 -11 -15
-22 -20 -26 -5 -3 -34 -42 -66 -86 -31 -44 -61 -85 -67 -92 -5 -7 -10 -16 -10
-20 0 -5 -9 -15 -20 -23 -11 -8 -20 -21 -20 -29 0 -7 -10 -30 -22 -50 l-21
-36 22 21 c13 12 39 44 59 72 20 28 72 92 115 144 43 51 86 102 95 113 10 11
19 25 22 31 9 21 253 297 348 393 51 52 103 106 116 120 45 52 206 201 216
201 13 0 -37 -69 -79 -110 -14 -14 -44 -47 -66 -74 -22 -26 -53 -60 -69 -75
-43 -39 -188 -211 -179 -211 4 0 0 -5 -9 -10 -9 -6 -41 -46 -72 -89 -31 -44
-64 -84 -73 -90 -10 -5 -14 -13 -10 -18 5 -4 14 0 21 10 7 9 16 17 19 17 5 0
27 22 137 137 22 22 40 46 40 52 0 6 6 11 14 11 16 0 66 55 66 72 0 6 21 34
48 63 26 28 68 74 93 101 25 27 48 57 52 67 3 9 12 14 21 11 11 -4 13 0 9 16
-4 16 -2 21 9 18 9 -2 107 90 239 225 122 125 228 226 235 223 7 -3 18 2 24
10 7 8 9 14 5 14 -4 0 -2 7 5 15 6 8 16 13 20 12 5 -1 66 55 137 125 l129 127
27 -30 c24 -28 27 -29 27 -10 0 12 -3 21 -7 21 -5 0 -14 4 -22 9 -11 7 -9 13
8 30 28 28 32 27 60 -14 13 -19 28 -35 34 -35 6 0 2 -7 -9 -16 -10 -8 -13 -13
-6 -9 7 4 19 1 27 -5 18 -15 20 -34 3 -24 -8 4 -10 3 -5 -2 5 -5 13 -10 18
-10 5 -1 13 -2 19 -3 16 -2 50 -44 50 -63 0 -11 5 -15 14 -12 8 3 17 -2 20
-13 4 -11 19 -33 34 -49 16 -16 41 -47 57 -69 40 -55 115 -128 123 -120 4 3 0
10 -8 15 -8 5 -15 15 -15 22 0 7 -9 12 -18 11 -13 -1 -17 4 -12 14 3 9 -2 24
-11 34 -10 11 -14 19 -11 19 7 0 -16 30 -50 67 -13 13 -23 28 -23 33 0 6 -7
10 -15 10 -8 0 -15 5 -15 10 0 6 5 10 11 10 6 0 -10 39 -36 86 -25 47 -44 89
-41 91 10 10 36 -19 36 -39 0 -11 14 -32 32 -46 58 -48 88 -84 88 -103 0 -21
16 -26 23 -6 4 9 8 8 16 -3 15 -21 13 -33 -4 -26 -25 9 -16 -7 21 -37 37 -32
47 -30 13 2 -12 11 -18 24 -14 30 9 15 58 -46 51 -64 -3 -8 -1 -17 5 -21 6 -3
13 3 16 15 3 12 11 21 19 21 8 0 11 6 8 15 -4 8 -12 15 -19 15 -8 0 -17 9 -20
20 -4 11 -17 32 -31 45 -13 13 -24 29 -24 35 0 5 -3 10 -8 10 -4 0 -18 18 -32
40 -14 22 -30 40 -37 40 -7 0 -13 4 -13 9 0 4 -11 20 -25 35 -14 15 -25 33
-25 40 0 22 32 28 49 10 15 -15 14 -16 -9 -9 -22 7 -21 3 15 -36 23 -24 51
-56 64 -71 24 -28 47 -28 37 -1 -4 8 -1 11 5 7 6 -3 8 -15 5 -27 -3 -12 3 -30
15 -45 10 -14 19 -22 19 -18 0 17 159 -162 160 -179 0 -14 40 -38 40 -25 0 5
5 10 11 10 6 0 8 -7 5 -17 -4 -10 3 -26 19 -43 22 -23 24 -31 16 -53 -14 -35
0 -35 17 1 8 17 9 28 2 30 -5 2 -10 9 -10 15 0 15 49 -33 66 -65 9 -17 10 -29
4 -33 -14 -9 -30 3 -30 22 0 14 -3 14 -19 -3 -10 -10 -16 -21 -14 -24 4 -5 8
-6 33 -9 6 0 10 -7 10 -14 0 -7 9 -20 19 -29 16 -14 21 -14 33 -2 13 13 18 12
41 -6 15 -12 27 -28 27 -36 0 -8 7 -17 15 -20 19 -8 19 -21 0 -41 -14 -14 -18
-14 -34 1 -10 9 -23 16 -29 16 -6 0 -16 9 -22 20 -6 11 -16 20 -22 20 -6 0
-16 7 -22 16 -10 14 -14 12 -26 -10 -13 -25 -11 -29 46 -90 32 -35 64 -64 69
-65 6 -1 19 -15 30 -31 14 -21 26 -29 39 -26 25 6 62 -9 70 -29 5 -13 2 -15
-15 -10 -21 7 -21 7 -3 -18 11 -14 31 -33 47 -42 15 -9 27 -23 27 -31 0 -8 7
-14 16 -14 8 0 13 -4 10 -9 -3 -5 17 -28 46 -52 59 -51 102 -93 175 -169 85
-90 150 -146 129 -112 -4 7 -4 12 -1 12 10 0 75 -69 75 -80 0 -5 9 -12 20 -15
11 -3 20 -12 20 -20 0 -15 38 -31 48 -20 4 4 -10 22 -30 40 -21 17 -38 37 -38
42 0 6 -27 37 -60 69 -33 32 -60 65 -60 72 0 6 -4 12 -8 12 -5 0 -17 17 -28
38 -10 20 -25 41 -31 45 -23 15 -13 27 18 23 23 -2 56 -26 126 -92 97 -92 113
-103 113 -85 0 6 -22 28 -49 48 -37 28 -50 45 -50 64 -1 15 -8 32 -16 39 -8 7
-13 16 -10 20 3 4 -2 11 -11 14 -9 4 -14 9 -11 13 3 3 -28 47 -70 97 -42 50
-82 98 -89 106 -8 10 -10 21 -4 30 7 11 12 8 26 -16 15 -26 39 -43 111 -78 13
-6 23 -16 23 -23 0 -16 49 -68 56 -60 3 3 -4 14 -15 24 -12 9 -21 21 -21 26 0
9 86 -56 105 -80 6 -6 17 -13 25 -15 8 -2 23 -11 34 -20 26 -24 39 -23 51 5
12 26 48 26 76 1 20 -18 43 -10 35 12 -14 37 49 -10 127 -93 43 -47 58 -54 50
-23 -3 11 -9 20 -13 20 -4 0 -11 11 -14 25 -4 14 -11 25 -17 25 -6 0 -8 4 -4
10 6 9 -13 37 -52 75 -13 12 -23 27 -23 33 0 6 -8 16 -17 22 -14 8 -3 10 46 6
48 -4 61 -2 52 7 -14 14 -14 27 -1 27 5 0 12 -11 16 -25 7 -27 20 -33 27 -12
3 8 11 6 28 -8 l24 -20 -19 23 c-11 12 -28 22 -40 22 -15 0 -17 3 -8 12 15 15
16 32 2 23 -5 -3 -10 1 -10 10 0 9 4 14 9 11 5 -4 11 -1 13 5 3 8 12 7 31 -6
25 -16 27 -16 27 -1 0 10 -4 15 -8 12 -4 -2 -14 -1 -22 4 -12 8 -13 13 -3 29
11 18 5 29 -50 98 -114 144 -188 226 -401 448 -116 121 -242 254 -281 295
l-70 74 61 -52 c34 -28 67 -59 74 -67 17 -20 86 -56 93 -49 3 3 13 -7 23 -22
10 -15 30 -34 45 -43 15 -9 79 -75 142 -146 215 -243 333 -353 184 -172 -67
81 -35 62 59 -36 176 -184 333 -365 334 -384 0 -7 5 -13 11 -13 9 0 57 -50 62
-65 3 -10 109 -119 132 -135 11 -8 -2 12 -29 45 -26 33 -57 75 -68 93 -11 17
-24 32 -29 32 -5 0 -8 4 -7 9 3 9 -64 90 -121 147 -19 19 -29 34 -21 34 18 0
101 -78 298 -282 43 -45 72 -60 72 -38 0 5 -31 45 -70 89 -39 43 -70 82 -70
86 0 4 -11 16 -25 27 -14 11 -25 27 -25 35 0 9 -3 13 -7 10 -9 -10 -33 13 -33
31 0 8 48 -32 108 -90 59 -58 130 -125 157 -148 96 -80 169 -153 186 -184 17
-32 44 -54 54 -44 9 8 -36 79 -46 72 -5 -3 -9 3 -9 13 0 10 -27 46 -60 81 -64
67 -73 102 -13 53 20 -17 45 -28 58 -27 17 2 21 -1 17 -16 -5 -20 8 -24 26 -6
9 9 9 15 -2 27 -24 27 -29 59 -10 63 13 2 10 12 -18 53 -19 28 -43 66 -53 85
-27 54 -120 175 -214 280 l-85 95 94 -90 c132 -124 205 -201 253 -265 23 -30
44 -57 48 -60 3 -3 21 -27 39 -55 35 -52 63 -79 68 -66 5 13 -48 110 -79 145
-16 19 -29 39 -29 45 0 6 -20 31 -44 56 -25 25 -43 45 -41 45 7 0 -56 59 -66
62 -6 2 -11 11 -13 21 -1 10 -21 39 -45 65 -107 119 -131 148 -131 160 0 8 5
10 13 5 6 -4 4 5 -6 20 -12 19 -14 27 -5 27 7 1 3 9 -9 19 -13 11 -23 25 -23
32 0 7 -3 10 -6 6 -7 -6 -34 16 -34 28 0 6 -79 99 -140 165 -8 9 -28 33 -45
54 -36 45 -78 91 -197 214 -49 52 -87 96 -84 99 3 3 58 -48 123 -113 105 -105
154 -159 293 -317 73 -84 220 -230 226 -224 7 6 1 14 -71 90 -27 29 -62 68
-76 87 -15 19 -47 56 -73 83 -25 26 -44 47 -42 47 3 0 -14 19 -37 43 -56 58
-107 123 -107 137 0 7 -7 10 -15 6 -10 -4 -15 1 -15 14 0 11 -9 25 -20 32 -11
7 -20 16 -20 20 0 4 -31 40 -70 79 -38 39 -70 74 -70 78 0 5 -18 23 -40 41
-22 18 -40 39 -40 47 0 8 -4 11 -10 8 -5 -3 -12 6 -16 20 -3 14 -12 25 -20 25
-8 0 -14 7 -14 15 0 8 -5 15 -11 15 -5 0 -7 5 -4 10 3 6 -1 10 -9 10 -15 0
-42 38 -38 52 1 4 -6 9 -16 12 -9 3 -30 22 -47 43 -71 87 -121 140 -153 162
-21 14 -30 26 -23 30 8 5 7 13 -4 27 -8 11 -15 14 -15 7 0 -26 -50 0 -50 25 0
16 -121 136 -167 166 -23 16 -49 39 -58 52 -8 13 -22 24 -30 24 -8 0 -15 9
-15 19 0 11 -12 29 -26 40 -14 11 -23 25 -19 31 4 6 3 10 -2 9 -22 -4 -21 4 4
33 39 44 175 190 254 271 36 37 64 69 62 71 -3 2 17 24 43 48 40 36 204 218
270 297 20 25 165 170 263 264 33 31 66 57 74 57 8 0 18 7 21 16 5 14 4 15 -9
4 -12 -10 -15 -10 -15 3 0 9 9 22 20 30 12 8 20 18 18 23 -5 18 35 64 123 141
50 43 109 95 132 116 23 21 56 45 72 54 68 35 166 168 142 192 -15 15 -27 14
-27 -3 0 -19 -62 -68 -78 -61 -7 2 -10 0 -7 -5 8 -13 -21 -61 -51 -83 -28 -21
-32 -16 -7 8 9 10 17 25 18 35 2 24 34 72 44 66 4 -3 8 0 8 7 0 15 38 80 88
151 19 26 35 57 35 69 0 20 0 20 -23 -1 -13 -12 -27 -19 -30 -15 -4 3 -7 -1
-7 -9 0 -11 -8 -15 -25 -13 -17 1 -25 -3 -25 -12 0 -9 -6 -13 -15 -9 -8 3 -15
1 -15 -5 0 -14 -30 -43 -37 -36 -3 3 13 25 36 49 22 24 41 49 41 57 0 7 6 11
14 8 8 -3 17 1 20 9 3 8 1 14 -4 14 -13 0 -9 21 7 37 15 16 20 16 26 1 2 -7 3
-5 1 5 -1 10 2 32 7 50 13 47 -5 56 -40 19 -16 -18 -32 -32 -35 -32 -8 0 6 34
18 43 7 5 6 7 -4 6 -27 -3 -40 1 -40 12 0 5 4 7 10 4 5 -3 18 -1 27 5 15 9 15
11 2 7 -9 -3 -22 0 -28 6 -8 8 -11 8 -11 -2 0 -8 -7 -10 -19 -6 -11 3 -23 1
-26 -6 -6 -8 -10 -7 -16 2 -6 10 -9 8 -9 -8 0 -12 -4 -25 -10 -28 -6 -4 -10 6
-10 24 0 16 -3 36 -6 45 -5 13 -2 14 25 5 25 -9 34 -8 47 5 8 9 20 16 25 16
17 0 9 18 -10 23 -11 2 -24 -3 -32 -14 -7 -11 -17 -19 -22 -19 -5 0 -4 6 2 14
9 11 9 19 -1 36 -10 16 -10 22 -1 28 7 5 14 21 15 38 1 16 8 37 16 47 9 9 12
20 8 24 -4 4 -11 1 -15 -6 -5 -7 -13 -11 -18 -8 -11 7 -53 -37 -53 -54 0 -6
-7 -8 -16 -5 -10 4 -29 -7 -52 -29 -20 -19 -40 -35 -44 -35 -5 0 -8 -4 -8 -10
0 -13 -82 -89 -97 -90 -12 0 -17 -13 -14 -32 2 -15 -17 -8 -23 7 -4 10 3 20
19 27 14 6 25 15 25 19 0 4 25 34 55 66 81 85 145 164 145 177 0 13 -16 5 -49
-25 -19 -16 -41 -27 -48 -24 -8 2 -12 1 -9 -4 3 -5 -1 -14 -10 -21 -8 -7 -13
-19 -10 -27 3 -7 1 -13 -4 -13 -6 0 -10 5 -10 10 0 7 -6 7 -19 0 -12 -6 -22
-6 -25 -1 -9 14 4 41 20 41 8 0 14 7 14 15 0 8 5 15 10 15 12 0 56 43 85 84
11 16 26 35 33 42 11 12 11 18 2 29 -7 8 -10 24 -7 35 6 23 -8 26 -28 6 -11
-10 -11 -16 -2 -26 9 -10 8 -11 -9 -6 -16 5 -27 -1 -45 -25 -13 -18 -35 -43
-49 -56 -48 -45 -175 -142 -187 -143 -7 0 -16 -8 -22 -17 -5 -10 -13 -15 -17
-11 -7 8 48 64 105 107 32 24 42 45 16 35 -9 -4 -15 0 -15 10 0 9 7 16 15 16
9 0 18 7 21 15 4 8 12 15 20 15 8 0 14 4 14 8 0 5 21 29 46 54 54 54 45 73
-11 23 -21 -19 -41 -35 -46 -35 -4 0 -35 -25 -67 -55 -33 -30 -65 -55 -71 -55
-6 0 -11 -4 -11 -9 0 -5 -11 -12 -25 -15 -14 -4 -25 -11 -25 -16 0 -6 -7 -10
-15 -10 -23 0 -128 -107 -119 -121 4 -8 3 -9 -4 -5 -11 6 -55 -32 -221 -194
-133 -129 -243 -216 -173 -136 29 34 31 38 17 53 -12 11 -13 19 -6 26 8 8 15
5 26 -9 13 -18 14 -18 15 -1 0 10 4 16 9 12 10 -5 25 12 26 30 0 6 8 9 17 9
10 -1 16 3 15 10 -1 6 4 10 11 9 21 -5 13 17 -10 26 -22 8 -22 8 6 35 16 14
24 26 17 26 -6 0 -11 5 -11 10 0 6 7 10 15 10 8 0 15 5 15 11 0 5 5 7 10 4 6
-4 17 -1 26 5 11 10 12 16 2 29 -7 9 -9 13 -5 10 4 -3 28 14 53 38 26 24 50
43 54 43 4 0 13 11 20 25 7 14 19 25 26 25 7 0 16 5 20 12 5 7 2 9 -7 4 -10
-6 -10 -4 1 6 8 7 16 21 18 30 4 25 -22 13 -38 -17 -7 -14 -21 -27 -32 -31
-10 -3 -18 -12 -18 -21 0 -9 -6 -13 -15 -9 -14 5 -20 -5 -16 -27 1 -5 -7 -6
-17 -3 -15 5 -23 -1 -35 -26 -9 -18 -17 -29 -17 -24 0 5 -11 -3 -25 -18 -13
-14 -28 -26 -33 -26 -6 0 -13 -7 -16 -16 -3 -8 -9 -13 -14 -10 -4 2 -14 1 -22
-5 -10 -6 -11 -9 -2 -9 18 0 15 -20 -5 -27 -10 -4 -24 -15 -31 -25 -7 -10 -18
-16 -23 -13 -5 4 -9 -1 -9 -9 0 -9 -6 -16 -14 -16 -7 0 -16 -9 -19 -20 -4 -14
-10 -18 -23 -13 -13 5 -16 3 -11 -9 7 -19 -32 -58 -51 -51 -7 3 -10 -1 -6 -11
9 -24 -5 -39 -23 -24 -14 11 -15 10 -9 -10 6 -17 4 -21 -8 -16 -20 8 -21 5 15
50 18 22 38 38 47 36 15 -2 15 -1 2 8 -13 9 -10 14 15 33 16 12 48 39 70 60
22 20 43 37 47 37 5 0 8 5 8 11 0 6 -14 1 -31 -12 -28 -20 -30 -20 -27 -3 2
11 15 31 30 46 14 14 24 28 22 31 -6 5 54 51 79 60 18 7 24 -8 7 -16 -6 -3 -5
-4 2 -3 7 1 15 13 16 25 2 15 0 21 -7 17 -6 -4 -11 -2 -11 3 0 6 9 11 20 11
11 0 20 -7 20 -15 0 -8 8 -15 18 -14 10 0 12 3 5 6 -20 7 -15 23 6 23 11 0 23
5 27 12 4 6 3 8 -4 4 -6 -3 -13 -2 -16 3 -4 5 4 11 16 14 l23 4 -24 10 c-16 6
-20 12 -13 17 7 4 10 11 8 15 -3 4 34 48 82 97 123 128 175 192 168 209 -3 8
1 18 8 22 17 10 39 53 27 53 -5 0 -12 -8 -15 -17 -5 -12 -10 -13 -18 -5 -8 8
-8 15 2 27 24 29 2 26 -29 -4 -18 -17 -37 -31 -44 -31 -7 0 2 11 18 25 17 13
26 24 20 25 -5 0 -29 -17 -52 -38 -23 -20 -52 -45 -65 -54 -13 -9 -18 -17 -11
-18 6 0 18 7 27 15 8 8 19 15 24 15 6 0 12 6 15 13 2 6 8 8 13 3 5 -4 -1 -15
-14 -25 -13 -9 -38 -28 -57 -43 -18 -16 -35 -28 -39 -28 -3 0 -15 -9 -26 -20
-19 -19 -40 -19 -40 -1 0 5 11 19 24 33 14 13 26 30 28 38 2 8 11 23 21 32 11
9 16 22 12 28 -3 5 1 13 9 16 9 3 16 15 16 25 0 10 5 19 11 19 5 0 7 5 4 10
-3 6 1 10 9 10 8 0 17 8 21 19 3 10 14 29 25 41 25 28 17 40 -9 16 -11 -10
-26 -19 -35 -20 -9 -1 -26 -11 -39 -22 -35 -31 -51 -40 -43 -23 4 8 -1 4 -11
-7 l-19 -21 -22 24 c-20 22 -25 23 -55 14 -18 -6 -49 -27 -67 -46 -19 -19 -38
-35 -44 -35 -5 0 1 11 13 24 13 13 21 32 19 41 -2 12 -43 -23 -143 -121 -129
-127 -241 -224 -259 -224 -4 0 -42 -31 -84 -69 -43 -37 -88 -77 -101 -87 -13
-10 -34 -28 -46 -39 -13 -11 -49 -42 -81 -70 -32 -27 -69 -60 -82 -72 -12 -13
-26 -23 -30 -23 -4 0 -41 -33 -83 -72 -41 -40 -106 -100 -144 -133 -38 -33
-77 -68 -87 -77 -32 -32 -43 -19 -12 14 l29 32 -32 -25 c-29 -22 -56 -58 -33
-44 23 14 7 -14 -27 -49 -21 -21 -43 -34 -51 -31 -9 3 -12 0 -9 -8 7 -18 -2
-29 -35 -46 -15 -8 -66 -51 -112 -95 -112 -107 -181 -167 -218 -190 l-30 -19
-29 34 c-16 19 -44 51 -62 72 -17 21 -70 69 -115 107 -79 65 -268 241 -512
476 -58 56 -116 110 -129 120 -13 11 -40 34 -60 51 -20 18 -39 33 -43 33 -5 0
-8 4 -8 9 0 5 -25 34 -56 63 -31 29 -67 64 -81 77 -14 13 -36 25 -50 27 -14 1
-31 8 -37 14 -8 9 -5 11 14 5 19 -5 22 -4 14 4 -6 6 -25 13 -42 14 -18 1 -30
7 -28 12 6 17 -23 65 -39 65 -8 0 -14 6 -12 12 1 7 -8 14 -21 16 -12 2 -20 7
-17 12 10 16 -19 50 -37 44 -10 -3 -18 0 -18 6 0 6 5 8 10 5 6 -3 10 -1 10 4
0 14 -17 14 -25 1 -13 -20 -21 -9 -17 21 3 22 1 30 -6 25 -7 -4 -14 3 -18 18
-7 28 -30 41 -40 24 -5 -7 -13 5 -20 28 l-12 39 -1 -33 c-1 -39 -21 -34 -21 5
0 19 -4 24 -16 19 -10 -4 -14 -2 -11 6 2 7 9 12 15 11 6 -2 -8 16 -31 40 -23
23 -43 40 -45 37 -1 -4 -53 42 -115 101 -61 59 -114 106 -116 103 -4 -3 -31
42 -31 52 0 15 31 -2 60 -31 18 -19 37 -32 41 -29 4 2 10 -5 14 -16 4 -11 15
-20 26 -20 12 0 17 -4 14 -11 -9 -13 25 -40 43 -34 6 2 12 -3 12 -12 0 -13 3
-13 15 -3 13 10 15 9 15 -9 0 -12 6 -21 16 -21 8 0 13 -4 10 -9 -7 -11 44 -71
61 -71 7 0 13 -6 13 -13 0 -15 45 -57 60 -57 6 0 10 -6 10 -14 0 -8 5 -18 12
-22 7 -5 8 -2 3 7 -4 8 6 -2 24 -21 53 -59 144 -150 260 -260 61 -57 111 -110
111 -118 0 -7 4 -11 9 -7 6 3 15 -4 21 -15 6 -11 15 -20 19 -20 5 0 40 -30 78
-67 114 -112 385 -367 433 -408 25 -21 69 -61 98 -89 28 -28 52 -45 52 -39 0
6 -21 30 -47 53 -27 24 -102 93 -167 154 -66 61 -153 143 -195 181 -42 39
-145 138 -231 222 -85 83 -168 162 -183 174 -22 17 -27 27 -23 48 3 14 3 20 0
14 -9 -21 -24 -15 -60 22 -36 37 -48 68 -16 44 9 -8 20 -18 24 -24 5 -6 8 -6
8 -1 0 6 7 1 15 -10 8 -10 15 -14 15 -7 0 7 -6 17 -12 23 -7 6 -22 18 -34 28
-11 9 -24 26 -28 37 -6 15 -9 17 -16 6 -4 -8 -6 -20 -3 -28 3 -7 1 -13 -5 -13
-5 0 -13 7 -16 16 -8 22 -8 26 4 19 16 -10 12 21 -5 35 -8 7 -15 9 -15 5 0 -5
-9 0 -20 10 -13 12 -18 26 -14 39 4 15 3 17 -4 7 -6 -7 -15 -10 -22 -6 -9 6
-9 9 0 15 8 5 7 9 -4 13 -9 4 -16 1 -16 -6 -1 -7 -8 0 -16 16 -8 15 -12 32 -8
38 4 7 -2 7 -16 -1 -18 -10 -25 -9 -41 7 -10 10 -30 27 -44 38 -13 11 -25 23
-25 27 0 3 -14 20 -31 37 -17 18 -27 36 -23 42 4 7 3 9 -4 5 -15 -9 -62 14
-62 31 0 7 -4 13 -10 13 -5 0 -10 5 -10 10 0 16 27 12 34 -6 3 -8 11 -12 17
-8 20 12 -32 44 -60 37 -19 -5 -23 -3 -18 10 3 9 -1 18 -9 21 -9 3 -13 10 -10
15 3 5 -2 15 -11 22 -12 10 -14 10 -9 2 10 -18 -3 -16 -22 4 -9 9 -17 24 -17
32 0 9 -14 20 -31 26 -17 6 -29 15 -27 23 3 8 -1 10 -13 5 -12 -4 -15 -3 -10
6 5 8 1 14 -13 18 -11 3 -19 9 -16 13 2 4 -4 15 -14 24 -18 16 -19 16 -29 -12z
m-78 -138 c20 -20 34 -40 31 -44 -5 -8 -85 60 -85 73 0 16 20 5 54 -29z m166
0 c0 -9 -5 -14 -12 -12 -18 6 -21 28 -4 28 9 0 16 -7 16 -16z m-86 -74 c16
-17 26 -34 22 -37 -7 -7 -66 46 -66 59 0 16 15 8 44 -22z m-54 -50 c0 -5 -2
-10 -4 -10 -3 0 -8 5 -11 10 -3 6 -1 10 4 10 6 0 11 -4 11 -10z m-160 -20 c13
-11 19 -20 13 -20 -5 0 -18 9 -28 20 -10 11 -16 20 -13 20 3 0 15 -9 28 -20z
m-66 -195 c20 -26 20 -35 1 -35 -8 0 -15 9 -15 20 0 13 -7 20 -20 20 -11 0
-20 4 -20 9 0 16 39 6 54 -14z m686 -165 c0 -5 -2 -10 -4 -10 -3 0 -8 5 -11
10 -3 6 -1 10 4 10 6 0 11 -4 11 -10z m-810 -60 c0 -5 -2 -10 -4 -10 -3 0 -8
5 -11 10 -3 6 -1 10 4 10 6 0 11 -4 11 -10z m210 -10 c0 -5 -4 -10 -10 -10 -5
0 -10 5 -10 10 0 6 5 10 10 10 6 0 10 -4 10 -10z m3940 -15 c0 -15 -38 -40
-47 -32 -2 3 5 8 16 12 13 4 18 13 16 26 -2 11 0 17 6 14 5 -4 9 -13 9 -20z
m-3750 -5 c0 -5 -2 -10 -4 -10 -3 0 -8 5 -11 10 -3 6 -1 10 4 10 6 0 11 -4 11
-10z m-95 -41 c11 -16 1 -19 -13 -3 -7 8 -8 14 -3 14 5 0 13 -5 16 -11z m3710
-69 c-3 -5 -12 -10 -18 -10 -7 0 -6 4 3 10 19 12 23 12 15 0z m585 -49 c0 -11
-31 -24 -39 -16 -3 3 1 10 9 15 19 12 30 12 30 1z m-3330 -84 c0 -20 -1 -20
-16 -5 -9 9 -13 21 -9 27 10 16 25 3 25 -22z m3167 -19 c-3 -8 -6 -5 -6 6 -1
11 2 17 5 13 3 -3 4 -12 1 -19z m-3607 -8 c0 -5 -2 -10 -4 -10 -3 0 -8 5 -11
10 -3 6 -1 10 4 10 6 0 11 -4 11 -10z m3180 -30 c0 -5 -2 -10 -4 -10 -3 0 -8
5 -11 10 -3 6 -1 10 4 10 6 0 11 -4 11 -10z m-550 -24 c0 -3 -4 -8 -10 -11 -5
-3 -10 -1 -10 4 0 6 5 11 10 11 6 0 10 -2 10 -4z m1466 -53 c-11 -11 -17 4 -9
23 7 18 8 18 11 1 2 -10 1 -21 -2 -24z m-4774 -20 c19 -27 37 -56 41 -65 3
-10 13 -18 21 -18 8 0 19 -6 23 -13 4 -7 27 -27 51 -46 23 -18 47 -41 52 -51
8 -14 5 -16 -15 -12 -13 2 -30 11 -37 20 -11 13 -11 15 2 8 8 -4 -10 15 -39
43 -30 28 -59 51 -63 51 -4 0 -8 5 -8 11 0 6 -16 30 -35 53 -31 38 -44 66 -31
66 2 0 19 -21 38 -47z m448 7 c0 -5 -2 -10 -4 -10 -3 0 -8 5 -11 10 -3 6 -1
10 4 10 6 0 11 -4 11 -10z m-1025 -10 c3 -5 1 -10 -4 -10 -6 0 -11 5 -11 10 0
6 2 10 4 10 3 0 8 -4 11 -10z m819 -5 c-5 -12 -10 -13 -20 -4 -19 15 -18 19 6
19 13 0 18 -5 14 -15z m4256 -15 c0 -5 -5 -10 -11 -10 -5 0 -7 5 -4 10 3 6 8
10 11 10 2 0 4 -4 4 -10z m-4950 -10 c0 -5 -2 -10 -4 -10 -3 0 -8 5 -11 10 -3
6 -1 10 4 10 6 0 11 -4 11 -10z m550 -4 c0 -3 -4 -8 -10 -11 -5 -3 -10 -1 -10
4 0 6 5 11 10 11 6 0 10 -2 10 -4z m310 -6 c0 -5 -2 -10 -4 -10 -3 0 -8 5 -11
10 -3 6 -1 10 4 10 6 0 11 -4 11 -10z m-278 -27 c10 -9 18 -21 18 -27 0 -6 -5
-3 -11 7 -5 9 -17 17 -24 17 -8 0 -15 5 -15 10 0 15 11 12 32 -7z m3638 6 c0
-5 -4 -8 -9 -5 -5 3 -12 -1 -15 -10 -4 -9 -9 -14 -13 -11 -7 8 15 37 28 37 5
0 9 -5 9 -11z m974 2 c3 -5 -3 -11 -14 -14 -20 -5 -26 3 -13 16 9 10 21 9 27
-2z m-4189 -11 c3 -6 -1 -7 -9 -4 -18 7 -21 14 -7 14 6 0 13 -4 16 -10z m3925
-11 c0 -5 -4 -9 -10 -9 -5 0 -10 7 -10 16 0 8 5 12 10 9 6 -3 10 -10 10 -16z
m-30 -19 c0 -20 -36 -43 -53 -33 -13 8 15 34 30 29 7 -3 13 1 13 9 0 8 2 15 5
15 3 0 5 -9 5 -20z m-4500 0 c0 -5 -2 -10 -4 -10 -3 0 -8 5 -11 10 -3 6 -1 10
4 10 6 0 11 -4 11 -10z m30 -11 c0 -5 -4 -9 -10 -9 -5 0 -10 7 -10 16 0 8 5
12 10 9 6 -3 10 -10 10 -16z m30 -9 c0 -5 -2 -10 -4 -10 -3 0 -8 5 -11 10 -3
6 -1 10 4 10 6 0 11 -4 11 -10z m3050 0 c0 -5 -4 -10 -10 -10 -5 0 -10 5 -10
10 0 6 5 10 10 10 6 0 10 -4 10 -10z m810 1 c0 -14 -18 -23 -31 -15 -8 4 -7 9
2 15 18 11 29 11 29 0z m-3265 -47 c24 -37 13 -39 -20 -4 -21 22 -24 30 -13
30 9 0 23 -12 33 -26z m-545 1 c10 -12 10 -15 -4 -15 -9 0 -16 7 -16 15 0 8 2
15 4 15 2 0 9 -7 16 -15z m3790 5 c0 -5 -9 -10 -21 -10 -11 0 -17 5 -14 10 3
6 13 10 21 10 8 0 14 -4 14 -10z m-853 -52 c-3 -8 -6 -5 -6 6 -1 11 2 17 5 13
3 -3 4 -12 1 -19z m-3252 -26 c-8 -8 -25 10 -19 20 4 6 9 5 15 -3 4 -7 6 -15
4 -17z m3419 15 c-5 -14 -44 -41 -44 -30 0 8 33 42 42 42 4 1 5 -5 2 -12z
m623 -34 c-3 -3 -11 -2 -17 2 -8 5 -7 11 2 22 12 15 13 14 16 -1 2 -10 1 -20
-1 -23z m-4425 -63 c5 0 8 -8 8 -17 0 -14 -6 -11 -25 12 -13 17 -24 37 -24 45
0 8 7 3 17 -12 9 -16 20 -28 24 -28z m4261 43 c-7 -2 -13 -11 -13 -19 0 -8 -6
-11 -17 -7 -13 5 -15 2 -10 -11 5 -13 1 -19 -13 -23 -11 -3 -20 -12 -20 -19 0
-8 -7 -14 -16 -14 -9 0 -24 -10 -34 -22 -10 -13 -21 -20 -25 -17 -9 10 125
139 143 138 11 0 12 -2 5 -6z m127 -3 c0 -5 -7 -10 -16 -10 -8 0 -12 5 -9 10
3 6 10 10 16 10 5 0 9 -4 9 -10z m-10 -30 c12 -8 5 -19 -40 -64 -30 -29 -72
-72 -92 -95 -21 -22 -41 -41 -45 -41 -4 -1 -19 -14 -33 -30 -29 -36 -36 -37
-42 -5 -4 17 0 26 11 30 9 3 21 15 26 27 6 12 17 24 25 26 13 5 13 3 1 -12
-15 -18 -12 -29 5 -18 21 15 47 66 36 70 -7 2 -12 8 -12 13 0 6 8 6 19 -1 16
-8 24 -4 45 20 13 17 29 30 35 30 6 0 8 7 5 15 -5 11 -2 13 11 9 14 -6 16 -3
10 14 -7 24 8 29 35 12z m-240 -9 c0 -13 -29 -35 -37 -27 -3 3 -1 6 5 6 7 0
12 7 12 15 0 8 5 15 10 15 6 0 10 -4 10 -9z m1030 -21 c0 -5 -5 -10 -11 -10
-5 0 -7 5 -4 10 3 6 8 10 11 10 2 0 4 -4 4 -10z m-250 -10 c0 -5 -4 -10 -10
-10 -5 0 -10 5 -10 10 0 6 5 10 10 10 6 0 10 -4 10 -10z m-830 -25 c-7 -8 -17
-15 -22 -15 -6 0 -5 7 2 15 7 8 17 15 22 15 6 0 5 -7 -2 -15z m-3365 -5 c11
-17 -5 -32 -21 -19 -7 6 -11 15 -8 20 7 12 21 11 29 -1z m3545 0 c0 -5 -4 -10
-10 -10 -5 0 -10 5 -10 10 0 6 5 10 10 10 6 0 10 -4 10 -10z m605 -10 c-3 -5
-12 -10 -18 -10 -7 0 -6 4 3 10 19 12 23 12 15 0z m-688 -16 c-3 -3 -12 -4
-19 -1 -8 3 -5 6 6 6 11 1 17 -2 13 -5z m918 -34 c3 -5 2 -10 -4 -10 -5 0 -13
5 -16 10 -3 6 -2 10 4 10 5 0 13 -4 16 -10z m-4365 -10 c0 -5 -2 -10 -4 -10
-3 0 -8 5 -11 10 -3 6 -1 10 4 10 6 0 11 -4 11 -10z m4240 -40 c0 -5 -4 -10
-10 -10 -5 0 -10 5 -10 10 0 6 5 10 10 10 6 0 10 -4 10 -10z m-2760 -34 c0 -2
-7 -6 -15 -10 -8 -3 -15 -1 -15 4 0 6 7 10 15 10 8 0 15 -2 15 -4z m965 -15
c-3 -6 -11 -8 -17 -5 -6 4 -5 9 3 15 16 10 23 4 14 -10z m-2935 -21 c0 -5 -2
-10 -4 -10 -3 0 -8 5 -11 10 -3 6 -1 10 4 10 6 0 11 -4 11 -10z m4920 -10 c0
-5 -4 -10 -10 -10 -5 0 -10 5 -10 10 0 6 5 10 10 10 6 0 10 -4 10 -10z m-2025
-9 c3 -5 1 -12 -5 -16 -5 -3 -10 1 -10 9 0 18 6 21 15 7z m1665 -6 c-7 -9 -15
-13 -19 -10 -3 3 1 10 9 15 21 14 24 12 10 -5z m-3945 -5 c3 -5 1 -10 -4 -10
-6 0 -11 5 -11 10 0 6 2 10 4 10 3 0 8 -4 11 -10z m1075 -40 c0 -5 -2 -10 -4
-10 -3 0 -8 5 -11 10 -3 6 -1 10 4 10 6 0 11 -4 11 -10z m2940 -5 c0 -8 -4
-15 -10 -15 -5 0 -7 7 -4 15 4 8 8 15 10 15 2 0 4 -7 4 -15z m-4613 -1 c-3 -3
-12 -4 -19 -1 -8 3 -5 6 6 6 11 1 17 -2 13 -5z m4517 -15 c-3 -5 -13 -9 -22
-8 -11 0 -12 2 -4 6 6 2 10 9 7 14 -4 5 1 6 9 3 9 -3 13 -10 10 -15z m76 -13
c0 -3 -4 -8 -10 -11 -5 -3 -10 -1 -10 4 0 6 5 11 10 11 6 0 10 -2 10 -4z m27
-18 c-3 -8 -6 -5 -6 6 -1 11 2 17 5 13 3 -3 4 -12 1 -19z m-4347 2 c0 -5 -4
-10 -10 -10 -5 0 -10 5 -10 10 0 6 5 10 10 10 6 0 10 -4 10 -10z m4280 -14
c-18 -16 -84 -30 -75 -16 3 6 19 10 36 10 16 0 29 5 29 10 0 6 5 10 12 10 8 0
8 -4 -2 -14z m-1730 -1 c0 -16 -26 -55 -37 -55 -19 0 -16 30 5 46 17 14 32 18
32 9z m-67 -28 c2 -7 -6 -26 -19 -42 -13 -17 -24 -35 -24 -42 0 -7 -6 -10 -14
-7 -7 3 -22 -6 -33 -19 -16 -21 -32 -25 -73 -18 -8 2 102 101 112 101 4 0 13
9 20 20 15 23 24 25 31 7z m-2128 -17 c3 -5 1 -10 -4 -10 -6 0 -11 5 -11 10 0
6 2 10 4 10 3 0 8 -4 11 -10z m1565 -20 c0 -5 -2 -10 -4 -10 -3 0 -8 5 -11 10
-3 6 -1 10 4 10 6 0 11 -4 11 -10z m2340 -4 c0 -2 -7 -7 -16 -10 -8 -3 -12 -2
-9 4 6 10 25 14 25 6z m-2040 -146 c0 -5 -2 -10 -4 -10 -3 0 -8 5 -11 10 -3 6
-1 10 4 10 6 0 11 -4 11 -10z m-2040 -40 c0 -5 -2 -10 -4 -10 -3 0 -8 5 -11
10 -3 6 -1 10 4 10 6 0 11 -4 11 -10z m-140 -10 c0 -5 -4 -10 -10 -10 -5 0
-10 5 -10 10 0 6 5 10 10 10 6 0 10 -4 10 -10z m1990 -10 c0 -5 -4 -10 -10
-10 -5 0 -10 5 -10 10 0 6 5 10 10 10 6 0 10 -4 10 -10z m-1450 -60 c0 -5 -2
-10 -4 -10 -3 0 -8 5 -11 10 -3 6 -1 10 4 10 6 0 11 -4 11 -10z m-470 -10 c0
-5 -2 -10 -4 -10 -3 0 -8 5 -11 10 -3 6 -1 10 4 10 6 0 11 -4 11 -10z m520
-54 c0 -3 -4 -8 -10 -11 -5 -3 -10 -1 -10 4 0 6 5 11 10 11 6 0 10 -2 10 -4z
m1818 -16 c-7 -11 -16 -20 -20 -20 -5 0 -3 9 4 20 7 11 16 20 20 20 5 0 3 -9
-4 -20z m-2203 -21 c14 -22 -3 -18 -26 7 -23 25 -23 26 -2 15 12 -6 25 -16 28
-22z m85 -89 c0 -5 -5 -10 -11 -10 -5 0 -7 5 -4 10 3 6 8 10 11 10 2 0 4 -4 4
-10z m290 -60 c0 -5 -4 -10 -10 -10 -5 0 -10 5 -10 10 0 6 5 10 10 10 6 0 10
-4 10 -10z m-190 -81 c0 -6 -4 -7 -10 -4 -5 3 -10 11 -10 16 0 6 5 7 10 4 6
-3 10 -11 10 -16z m130 -79 c0 -5 -5 -10 -11 -10 -5 0 -7 5 -4 10 3 6 8 10 11
10 2 0 4 -4 4 -10z m415 -266 c9 -15 12 -23 6 -20 -11 7 -35 46 -28 46 3 0 12
-12 22 -26z m85 -25 c0 -6 -4 -7 -10 -4 -5 3 -10 11 -10 16 0 6 5 7 10 4 6 -3
10 -11 10 -16z m110 -250 c0 -5 -4 -9 -10 -9 -5 0 -10 7 -10 16 0 8 5 12 10 9
6 -3 10 -10 10 -16z m226 -24 c9 -8 11 -15 6 -15 -5 0 -15 7 -22 15 -7 8 -9
15 -6 15 4 0 14 -7 22 -15z m2229 -85 c3 -6 -1 -7 -9 -4 -18 7 -21 14 -7 14 6
0 13 -4 16 -10z m-2385 -45 c0 -8 -4 -15 -9 -15 -13 0 -22 16 -14 24 11 11 23
6 23 -9z m-59 -51 c-5 -16 -10 -25 -10 -20 -1 5 -18 -11 -38 -35 -21 -23 -46
-50 -55 -58 -10 -9 -18 -20 -18 -26 0 -21 -69 -88 -85 -82 -10 5 -15 0 -15
-13 0 -20 -24 -28 -34 -11 -8 12 53 63 66 55 7 -4 8 -3 4 4 -4 7 -2 12 4 12 7
0 9 8 5 20 -4 11 -2 20 4 20 6 0 11 -5 11 -12 0 -7 10 2 23 19 26 35 141 162
144 159 1 -1 -2 -15 -6 -32z m2618 -86 c9 -14 8 -18 -2 -18 -13 0 -37 19 -37
30 0 14 28 6 39 -12z m-2885 -180 c15 -18 16 -20 2 -15 -11 5 -16 1 -16 -14 0
-12 -10 -23 -26 -29 -14 -6 -22 -14 -19 -20 3 -6 -1 -7 -9 -4 -11 4 -16 0 -16
-10 0 -9 -5 -16 -11 -16 -12 0 -65 -51 -62 -61 1 -3 -15 -6 -35 -7 l-37 -2 49
46 c27 25 55 43 62 40 8 -3 13 -2 13 2 -4 28 2 41 19 35 9 -3 14 -2 10 2 -5 5
1 14 12 22 11 8 17 20 14 31 -5 14 -4 15 5 2 8 -12 11 -12 17 3 8 21 6 21 28
-5z m-164 -207 c0 -9 -72 -47 -82 -43 -4 1 -8 -2 -8 -6 0 -4 -12 -9 -26 -10
-17 -1 -24 2 -21 11 2 6 12 12 23 13 32 1 64 15 64 27 0 7 11 13 25 13 14 1
25 -1 25 -5z m-234 -188 c-10 -10 -19 5 -10 18 6 11 8 11 12 0 2 -7 1 -15 -2
-18z m-81 -52 c-9 -29 -23 -17 -17 14 3 17 8 23 14 17 6 -6 7 -20 3 -31z m80
29 c-3 -5 -11 -10 -16 -10 -6 0 -7 5 -4 10 3 6 11 10 16 10 6 0 7 -4 4 -10z
m-120 -59 c3 -5 1 -12 -5 -16 -5 -3 -10 1 -10 9 0 18 6 21 15 7z m3976 -28
c13 -16 12 -17 -3 -4 -10 7 -18 15 -18 17 0 8 8 3 21 -13z m-4086 -35 c5 4 5
2 1 -5 -8 -14 -36 -6 -36 9 0 7 5 6 13 -1 8 -6 18 -7 22 -3z m-60 -67 c-3 -6
-11 -11 -16 -11 -5 0 -4 6 3 14 14 16 24 13 13 -3z m2410 -90 c-6 -5 -25 10
-25 20 0 5 6 4 14 -3 8 -7 12 -15 11 -17z m205 -61 c0 -5 -2 -10 -4 -10 -3 0
-8 5 -11 10 -3 6 -1 10 4 10 6 0 11 -4 11 -10z m-2866 -69 c3 -5 -1 -11 -9
-14 -9 -4 -12 -1 -8 9 6 16 10 17 17 5z m2767 -94 c-13 -13 -26 -3 -16 12 3 6
11 8 17 5 6 -4 6 -10 -1 -17z m-2738 -12 c-3 -9 -8 -14 -10 -11 -3 3 -2 9 2
15 9 16 15 13 8 -4z m-28 -35 c-3 -5 -10 -10 -16 -10 -5 0 -9 5 -9 10 0 6 7
10 16 10 8 0 12 -4 9 -10z m-35 -35 c-7 -9 -15 -13 -17 -11 -7 7 7 26 19 26 6
0 6 -6 -2 -15z m3140 5 c0 -5 -2 -10 -4 -10 -3 0 -8 5 -11 10 -3 6 -1 10 4 10
6 0 11 -4 11 -10z m-1025 -30 c3 -5 1 -10 -4 -10 -6 0 -11 5 -11 10 0 6 2 10
4 10 3 0 8 -4 11 -10z m-27 -47 c-9 -10 -13 -24 -11 -30 3 -8 -4 -13 -17 -13
-13 0 -28 -12 -41 -34 -20 -35 -59 -63 -41 -29 15 25 116 133 121 128 2 -3 -3
-13 -11 -22z m-1663 7 c3 -5 1 -10 -4 -10 -6 0 -11 5 -11 10 0 6 2 10 4 10 3
0 8 -4 11 -10z m-255 -13 c0 -2 -12 -14 -27 -28 -24 -22 -24 -13 0 19 8 11 27
17 27 9z m3100 -78 c0 -5 -4 -9 -10 -9 -5 0 -10 7 -10 16 0 8 5 12 10 9 6 -3
10 -10 10 -16z m-3140 -30 c0 -5 -4 -9 -8 -9 -5 0 -9 7 -9 15 0 8 4 12 9 9 4
-3 8 -9 8 -15z m197 5 c-3 -3 -12 -4 -19 -1 -8 3 -5 6 6 6 11 1 17 -2 13 -5z
m33 -4 c0 -5 -2 -10 -4 -10 -3 0 -8 5 -11 10 -3 6 -1 10 4 10 6 0 11 -4 11
-10z m110 0 c0 -5 -5 -10 -11 -10 -5 0 -7 5 -4 10 3 6 8 10 11 10 2 0 4 -4 4
-10z m-130 -25 c0 -8 -9 -19 -20 -25 -17 -9 -20 -8 -20 8 0 10 3 22 7 25 12
12 33 7 33 -8z m-50 -15 c0 -5 -4 -10 -10 -10 -5 0 -10 5 -10 10 0 6 5 10 10
10 6 0 10 -4 10 -10z m-20 -36 c0 -14 -12 -19 -23 -8 -9 9 4 35 14 28 5 -3 9
-12 9 -20z m-46 -20 c9 -24 7 -28 -9 -14 -17 14 -20 30 -6 30 5 0 12 -7 15
-16z m3166 -35 c0 -5 -9 -9 -20 -9 -19 0 -27 20 -13 33 7 8 33 -11 33 -24z
m-3230 1 c0 -5 -5 -10 -11 -10 -5 0 -7 5 -4 10 3 6 8 10 11 10 2 0 4 -4 4 -10z
m240 -70 c0 -5 -5 -10 -11 -10 -5 0 -7 5 -4 10 3 6 8 10 11 10 2 0 4 -4 4 -10z
m4638 -60 c7 -11 11 -20 9 -20 -2 0 -12 9 -22 20 -10 11 -14 20 -9 20 5 0 15
-9 22 -20z m-1658 -10 c0 -5 -2 -10 -4 -10 -3 0 -8 5 -11 10 -3 6 -1 10 4 10
6 0 11 -4 11 -10z m53 -33 c-3 -4 -11 -3 -19 4 -7 6 -11 15 -8 20 3 5 11 3 18
-4 8 -6 12 -16 9 -20z m42 3 c3 -5 1 -10 -4 -10 -6 0 -11 5 -11 10 0 6 2 10 4
10 3 0 8 -4 11 -10z m45 -36 c0 -8 -4 -12 -10 -9 -5 3 -10 10 -10 16 0 5 5 9
10 9 6 0 10 -7 10 -16z m1480 -41 c35 -35 38 -41 15 -26 -37 26 -82 73 -69 73
5 0 30 -21 54 -47z m-4530 3 c0 -3 -4 -8 -10 -11 -5 -3 -10 -1 -10 4 0 6 5 11
10 11 6 0 10 -2 10 -4z m4066 -63 c-10 -10 -19 5 -10 18 6 11 8 11 12 0 2 -7
1 -15 -2 -18z m499 -28 c16 -13 27 -27 24 -30 -3 -3 -21 8 -40 25 -40 35 -27
40 16 5z m-4696 -48 c-9 -8 -22 -11 -33 -7 -18 6 -18 7 4 23 28 20 51 7 29
-16z m3431 -22 c0 -8 -2 -15 -4 -15 -2 0 -6 7 -10 15 -3 8 -1 15 4 15 6 0 10
-7 10 -15z m-90 -15 c0 -5 -2 -10 -4 -10 -3 0 -8 5 -11 10 -3 6 -1 10 4 10 6
0 11 -4 11 -10z m160 -10 c0 -5 -8 -10 -17 -10 -15 0 -16 2 -3 10 19 12 20 12
20 0z m-5 -30 c3 -5 1 -10 -4 -10 -6 0 -11 5 -11 10 0 6 2 10 4 10 3 0 8 -4
11 -10z m35 -21 c0 -20 -15 -26 -24 -10 -8 13 4 42 15 35 5 -3 9 -14 9 -25z
m-125 5 c9 -9 13 -19 10 -22 -3 -3 -15 4 -27 16 -13 12 -17 22 -11 22 6 0 19
-7 28 -16z m-2480 -13 c-3 -6 -11 -8 -17 -5 -6 4 -5 9 3 15 16 10 23 4 14 -10z
m2645 9 c5 8 10 10 10 4 0 -7 -9 -22 -20 -35 l-19 -24 -1 35 c0 26 3 31 10 20
9 -13 11 -13 20 0z m-2670 -45 c-14 -17 -40 -20 -40 -6 0 5 10 12 23 14 12 2
24 5 26 6 2 0 -2 -6 -9 -14z m2690 5 c0 -5 -4 -10 -10 -10 -5 0 -10 5 -10 10
0 6 5 10 10 10 6 0 10 -4 10 -10z m105 -60 c-3 -5 -10 -10 -16 -10 -5 0 -9 5
-9 10 0 6 7 10 16 10 8 0 12 -4 9 -10z m-3125 -84 c0 -3 -4 -8 -10 -11 -5 -3
-10 -1 -10 4 0 6 5 11 10 11 6 0 10 -2 10 -4z m-90 -190 c0 -3 -4 -8 -10 -11
-5 -3 -10 -1 -10 4 0 6 5 11 10 11 6 0 10 -2 10 -4z m-150 -56 c0 -5 -2 -10
-4 -10 -3 0 -8 5 -11 10 -3 6 -1 10 4 10 6 0 11 -4 11 -10z"/>
<path d="M3650 4639 c0 -5 5 -7 10 -4 6 3 10 8 10 11 0 2 -4 4 -10 4 -5 0 -10
-5 -10 -11z"/>
<path d="M2890 8190 c0 -13 18 -22 24 -11 3 5 -1 11 -9 15 -8 3 -15 1 -15 -4z"/>
<path d="M7491 8164 c-17 -14 -31 -31 -31 -37 0 -6 10 -1 23 11 12 13 31 29
42 37 11 8 15 15 8 15 -6 0 -25 -12 -42 -26z"/>
<path d="M7285 8099 c-19 -17 -32 -35 -29 -40 3 -5 -1 -9 -10 -9 -12 0 -56
-57 -56 -73 0 -3 32 27 70 68 39 41 70 76 70 79 0 11 -10 6 -45 -25z"/>
<path d="M7957 8064 c-10 -11 -8 -44 2 -44 6 0 13 4 16 10 8 12 -9 43 -18 34z"/>
<path d="M7302 7919 c-13 -16 -20 -29 -15 -29 9 1 47 50 41 54 -1 2 -13 -10
-26 -25z"/>
<path d="M7230 7851 c-19 -16 -32 -33 -28 -36 4 -4 24 9 45 29 45 43 33 48
-17 7z"/>
<path d="M7860 7826 c0 -9 5 -16 10 -16 6 0 10 4 10 9 0 6 -4 13 -10 16 -5 3
-10 -1 -10 -9z"/>
<path d="M7166 7789 c-24 -28 -11 -38 14 -11 11 11 16 23 12 26 -5 3 -16 -4
-26 -15z"/>
<path d="M6455 7736 c-41 -38 -62 -63 -49 -60 21 6 144 124 128 124 -5 0 -40
-29 -79 -64z"/>
<path d="M7095 7790 c-3 -5 -1 -10 4 -10 6 0 11 5 11 10 0 6 -2 10 -4 10 -3 0
-8 -4 -11 -10z"/>
<path d="M7846 7792 c-2 -4 4 -8 15 -8 10 0 19 4 19 8 0 4 -6 8 -14 8 -8 0
-17 -4 -20 -8z"/>
<path d="M7920 7771 c0 -5 5 -13 10 -16 6 -3 10 -2 10 4 0 5 -4 13 -10 16 -5
3 -10 2 -10 -4z"/>
<path d="M7455 7750 c4 -6 11 -8 16 -5 14 9 11 15 -7 15 -8 0 -12 -5 -9 -10z"/>
<path d="M7725 7720 c3 -5 8 -10 11 -10 2 0 4 5 4 10 0 6 -5 10 -11 10 -5 0
-7 -4 -4 -10z"/>
<path d="M7782 7696 c1 -10 8 -17 13 -17 15 1 12 24 -3 29 -9 3 -13 -2 -10
-12z"/>
<path d="M7884 7605 c-10 -8 -14 -15 -8 -15 6 0 17 7 24 15 16 19 9 19 -16 0z"/>
<path d="M8135 7570 c3 -5 -2 -10 -12 -10 -17 0 -37 -25 -113 -147 -19 -29
-39 -53 -46 -53 -13 0 -51 -87 -42 -96 8 -8 61 16 86 38 12 12 22 18 22 14 0
-4 17 6 37 21 20 15 50 33 67 38 20 6 32 18 34 31 2 11 25 42 51 68 34 34 47
54 44 67 -7 24 -11 24 -53 -5 -37 -25 -80 -42 -80 -31 0 3 7 19 15 34 14 27
11 41 -7 41 -5 0 -6 -4 -3 -10z"/>
<path d="M2780 7561 c0 -6 12 -23 26 -38 18 -19 24 -22 20 -10 -3 10 -6 22 -6
25 0 4 -9 13 -20 20 -11 7 -20 8 -20 3z"/>
<path d="M7209 7517 c-15 -27 -85 -80 -92 -69 -2 4 -2 1 0 -7 4 -15 -14 -41
-29 -41 -5 0 -6 6 -2 13 5 8 2 8 -9 -2 -9 -7 -17 -16 -17 -19 0 -3 3 -2 7 1 3
4 12 2 19 -4 10 -8 17 -7 28 4 8 8 12 17 9 21 -4 3 4 6 17 6 19 0 20 2 10 15
-11 13 -8 14 20 8 24 -4 31 -3 26 5 -4 7 4 22 20 35 22 19 25 27 17 42 -10 17
-12 16 -24 -8z"/>
<path d="M7160 7505 c-8 -9 -8 -15 -2 -15 12 0 26 19 19 26 -2 2 -10 -2 -17
-11z"/>
<path d="M7666 7423 c-39 -40 -47 -59 -18 -44 22 12 47 41 55 64 9 24 4 22
-37 -20z"/>
<path d="M6276 7435 c-11 -8 -15 -15 -9 -15 6 0 16 7 23 15 16 19 11 19 -14 0z"/>
<path d="M6235 7398 c-4 -10 -11 -18 -17 -18 -5 0 -19 -11 -32 -25 -13 -14
-28 -25 -35 -25 -6 0 -11 -4 -11 -9 0 -5 -13 -17 -30 -28 -22 -14 -27 -22 -20
-33 8 -12 11 -11 16 8 4 12 13 22 21 22 8 0 31 16 50 35 20 20 45 42 56 50 10
7 17 19 14 27 -3 9 -7 8 -12 -4z"/>
<path d="M6960 7360 c0 -5 5 -10 10 -10 6 0 10 5 10 10 0 6 -4 10 -10 10 -5 0
-10 -4 -10 -10z"/>
<path d="M7065 7360 c-3 -5 -1 -10 4 -10 6 0 11 5 11 10 0 6 -2 10 -4 10 -3 0
-8 -4 -11 -10z"/>
<path d="M3051 7343 c6 -10 23 -27 37 -38 26 -19 26 -18 -3 17 -31 38 -54 51
-34 21z"/>
<path d="M6945 7340 c3 -6 -1 -10 -9 -10 -9 0 -16 -5 -16 -10 0 -7 8 -7 23 1
30 16 30 16 12 23 -9 3 -13 2 -10 -4z"/>
<path d="M6019 7293 c-13 -16 -12 -17 4 -4 9 7 17 15 17 17 0 8 -8 3 -21 -13z"/>
<path d="M2380 7296 c0 -2 7 -9 15 -16 9 -7 15 -8 15 -2 0 5 -7 12 -15 16 -8
3 -15 4 -15 2z"/>
<path d="M4170 7296 c0 -9 74 -75 79 -71 5 6 -61 75 -71 75 -5 0 -8 -2 -8 -4z"/>
<path d="M7053 7283 c-7 -3 -13 -10 -13 -16 0 -6 -44 -53 -97 -104 -63 -59
-92 -92 -80 -93 9 0 17 6 17 13 0 7 17 27 37 43 20 16 65 57 99 91 58 58 68
77 37 66z"/>
<path d="M3126 7265 c4 -8 11 -15 16 -15 6 0 5 6 -2 15 -7 8 -14 15 -16 15 -2
0 -1 -7 2 -15z"/>
<path d="M5950 7230 c-25 -22 -40 -39 -35 -39 6 0 28 18 50 39 50 51 43 51
-15 0z"/>
<path d="M6047 7243 c-12 -12 -7 -22 8 -17 8 4 15 10 15 15 0 11 -14 12 -23 2z"/>
<path d="M2428 7214 c12 -17 28 -37 37 -44 28 -23 16 -2 -21 37 -32 33 -34 34
-16 7z"/>
<path d="M3155 7230 c3 -5 8 -10 11 -10 2 0 4 5 4 10 0 6 -5 10 -11 10 -5 0
-7 -4 -4 -10z"/>
<path d="M5997 7195 c-9 -8 -20 -15 -26 -15 -6 0 -11 -4 -11 -10 0 -5 3 -10 8
-10 12 1 55 40 50 46 -3 3 -13 -2 -21 -11z"/>
<path d="M7730 7194 c0 -8 5 -12 10 -9 6 4 8 11 5 16 -9 14 -15 11 -15 -7z"/>
<path d="M5885 7169 c-11 -17 1 -21 15 -4 8 9 8 15 2 15 -6 0 -14 -5 -17 -11z"/>
<path d="M5929 7133 c-13 -17 -13 -17 6 -3 11 8 22 16 24 17 2 2 0 3 -6 3 -6
0 -17 -8 -24 -17z"/>
<path d="M7775 7139 c-11 -16 -1 -19 13 -3 7 8 8 14 3 14 -5 0 -13 -5 -16 -11z"/>
<path d="M7850 7141 c0 -5 7 -15 17 -22 15 -13 15 -12 4 9 -12 23 -21 28 -21
13z"/>
<path d="M2517 7133 c-8 -13 28 -56 44 -51 7 2 3 14 -13 33 -14 16 -27 24 -31
18z"/>
<path d="M7800 7100 c0 -5 5 -10 10 -10 6 0 10 5 10 10 0 6 -4 10 -10 10 -5 0
-10 -4 -10 -10z"/>
<path d="M5805 7014 c-38 -36 -61 -61 -50 -55 28 14 138 121 124 121 -2 0 -35
-30 -74 -66z"/>
<path d="M6815 7051 c-6 -11 9 -23 19 -14 9 9 7 23 -3 23 -6 0 -12 -4 -16 -9z"/>
<path d="M1950 7035 c0 -9 6 -29 13 -43 8 -15 27 -54 42 -87 16 -33 35 -64 42
-68 7 -4 13 -15 13 -22 0 -8 5 -15 10 -15 6 0 14 -8 17 -17 8 -20 27 -44 72
-92 18 -20 37 -46 42 -58 5 -13 15 -23 22 -23 7 0 33 -27 57 -59 23 -33 49
-62 56 -65 8 -3 14 -10 14 -17 0 -29 196 -236 477 -506 96 -92 203 -195 237
-228 34 -33 122 -114 195 -180 73 -66 149 -136 170 -155 36 -34 66 -59 106
-90 11 -8 3 6 -17 31 -21 25 -49 51 -63 59 -14 7 -25 19 -25 27 0 7 -4 13 -10
13 -5 0 -10 6 -10 13 0 14 -56 67 -71 67 -5 0 -9 8 -9 19 0 14 -6 17 -27 13
-21 -4 -25 -2 -20 10 5 16 -92 118 -112 118 -5 0 -12 8 -16 19 -3 10 -17 27
-31 37 -60 44 -75 57 -70 61 6 6 -80 73 -94 73 -6 0 -10 5 -10 10 0 6 6 10 13
10 14 0 -70 77 -93 85 -19 6 -190 199 -190 214 0 6 -7 8 -15 5 -9 -4 -15 0
-15 7 -1 17 -34 59 -47 59 -5 0 -17 14 -27 31 -11 18 -37 51 -60 74 -59 60
-160 175 -164 186 -2 5 -29 35 -61 67 -31 32 -56 63 -54 69 2 6 -1 15 -8 19
-8 4 -9 3 -5 -4 14 -23 -13 -11 -33 14 -26 32 -27 52 -3 33 15 -13 16 -12 3 4
-8 9 -16 15 -19 12 -8 -8 -32 16 -26 26 3 5 -2 16 -11 25 -8 9 -28 32 -43 52
-15 21 -32 43 -39 49 -6 7 -19 30 -29 51 -22 46 -74 93 -74 67z m620 -782 c0
-12 -2 -12 -13 -1 -8 7 -20 25 -27 38 l-13 25 27 -24 c14 -14 26 -31 26 -38z
m328 -313 c12 -19 11 -20 -8 -8 -20 13 -27 28 -12 28 4 0 13 -9 20 -20z"/>
<path d="M5670 6960 c0 -5 4 -10 9 -10 6 0 13 5 16 10 3 6 -1 10 -9 10 -9 0
-16 -4 -16 -10z"/>
<path d="M5677 6893 c-26 -26 -45 -49 -43 -50 4 -4 62 51 85 80 26 33 3 16
-42 -30z"/>
<path d="M5576 6863 c-6 -14 -5 -15 5 -6 7 7 10 15 7 18 -3 3 -9 -2 -12 -12z"/>
<path d="M2882 6804 c10 -10 20 -15 24 -12 3 4 -5 12 -18 18 -22 12 -22 12 -6
-6z"/>
<path d="M5514 6728 l-19 -23 23 19 c21 18 27 26 19 26 -2 0 -12 -10 -23 -22z"/>
<path d="M7860 6730 c0 -5 5 -10 10 -10 6 0 10 5 10 10 0 6 -4 10 -10 10 -5 0
-10 -4 -10 -10z"/>
<path d="M7684 6486 c-10 -8 -16 -17 -13 -20 3 -3 14 3 24 14 21 23 17 26 -11
6z"/>
<path d="M7735 6350 c-16 -18 -16 -20 -2 -20 9 0 21 9 27 20 6 11 7 20 2 20
-5 0 -17 -9 -27 -20z"/>
<path d="M7690 6308 c0 -7 -17 -29 -37 -50 -20 -21 -34 -40 -32 -43 6 -5 109
89 109 99 0 3 -9 6 -20 6 -11 0 -20 -5 -20 -12z"/>
<path d="M7556 6170 c-32 -36 -42 -50 -33 -50 6 0 87 79 87 84 0 16 -21 2 -54
-34z"/>
<path d="M2740 6150 c13 -11 25 -20 27 -20 2 0 -2 9 -9 20 -7 11 -19 20 -27
20 -9 0 -6 -7 9 -20z"/>
<path d="M7073 5824 c-7 -3 -9 -12 -6 -20 3 -8 0 -15 -6 -15 -6 -1 -15 -2 -20
-3 -15 -2 -154 -156 -142 -156 24 0 191 163 191 186 0 8 -1 14 -2 13 -2 0 -8
-3 -15 -5z"/>
<path d="M6865 5580 c-3 -5 -2 -10 4 -10 5 0 13 5 16 10 3 6 2 10 -4 10 -5 0
-13 -4 -16 -10z"/>
<path d="M6805 5549 c-27 -17 -43 -40 -44 -64 0 -5 11 2 24 18 13 15 27 27 30
27 4 0 13 6 21 14 22 23 2 25 -31 5z"/>
<path d="M3560 5286 c0 -2 7 -9 15 -16 9 -7 15 -8 15 -2 0 5 -7 12 -15 16 -8
3 -15 4 -15 2z"/>
<path d="M3753 5203 c9 -9 19 -14 23 -11 10 10 -6 28 -24 28 -15 0 -15 -1 1
-17z"/>
<path d="M3871 5160 c0 -8 4 -22 9 -30 12 -18 12 -2 0 25 -6 13 -9 15 -9 5z"/>
<path d="M6440 5109 c0 -6 6 -16 13 -23 6 -7 32 -36 57 -65 55 -64 79 -90 240
-261 70 -74 147 -157 171 -185 56 -62 91 -94 104 -94 6 0 4 3 -2 6 -7 2 -13
13 -13 22 0 10 -65 85 -144 167 -79 82 -160 173 -179 201 -33 50 -224 243
-239 243 -4 0 -8 -5 -8 -11z"/>
<path d="M3750 4921 c0 -17 18 -21 24 -6 3 9 0 15 -9 15 -8 0 -15 -4 -15 -9z"/>
<path d="M3720 4908 c0 -18 18 -34 28 -24 3 4 -2 14 -11 23 -16 16 -17 16 -17
1z"/>
<path d="M3670 4841 c-6 -12 -7 -21 -1 -21 5 0 12 8 15 17 6 15 8 15 16 3 7
-12 12 -12 22 -2 8 8 8 12 1 12 -6 0 -18 3 -26 6 -10 3 -20 -3 -27 -15z"/>
<path d="M6770 4846 c0 -2 8 -10 18 -17 15 -13 16 -12 3 4 -13 16 -21 21 -21
13z"/>
<path d="M3630 4805 c0 -8 2 -15 4 -15 2 0 6 7 10 15 3 8 1 15 -4 15 -6 0 -10
-7 -10 -15z"/>
<path d="M3323 4485 c-8 -8 -9 -16 -3 -20 5 -3 14 4 20 15 12 23 1 26 -17 5z"/>
<path d="M3290 4432 c0 -6 -8 -13 -17 -15 -16 -4 -16 -5 -1 -6 18 -1 34 16 24
26 -3 4 -6 1 -6 -5z"/>
<path d="M7075 4420 c16 -26 108 -120 118 -120 5 0 -10 21 -34 48 -48 52 -98
95 -84 72z"/>
<path d="M3096 4333 c-6 -14 -5 -15 5 -6 7 7 10 15 7 18 -3 3 -9 -2 -12 -12z"/>
<path d="M3053 4283 c-15 -5 -17 -23 -4 -23 5 0 11 7 15 15 3 8 4 15 3 14 -1
0 -8 -3 -14 -6z"/>
<path d="M7220 4266 c0 -2 8 -10 18 -17 15 -13 16 -12 3 4 -13 16 -21 21 -21
13z"/>
<path d="M3020 4230 c0 -5 5 -10 10 -10 6 0 10 5 10 10 0 6 -4 10 -10 10 -5 0
-10 -4 -10 -10z"/>
<path d="M7283 4195 c21 -20 37 -39 37 -43 0 -6 81 -96 145 -163 8 -9 15 -21
15 -27 0 -7 5 -12 11 -12 23 0 -6 45 -77 117 -41 41 -74 79 -74 84 0 12 -71
79 -84 79 -5 0 7 -16 27 -35z"/>
<path d="M2923 4145 c0 -8 4 -15 9 -15 4 0 8 4 8 9 0 6 -4 12 -8 15 -5 3 -9
-1 -9 -9z"/>
<path d="M2880 4099 c0 -6 -7 -9 -14 -6 -10 4 -13 1 -9 -9 6 -17 15 -18 31 -2
15 15 16 28 2 28 -5 0 -10 -5 -10 -11z"/>
<path d="M2826 4045 c-26 -11 -27 -12 -8 -17 12 -4 26 0 33 8 17 20 9 23 -25
9z"/>
<path d="M7560 4039 c0 -5 5 -7 10 -4 6 3 10 8 10 11 0 2 -4 4 -10 4 -5 0 -10
-5 -10 -11z"/>
<path d="M2761 3976 c-6 -14 -16 -26 -23 -26 -14 0 -52 -59 -44 -68 8 -7 37
19 31 28 -2 4 7 13 21 20 13 8 27 24 30 37 9 34 -3 41 -15 9z"/>
<path d="M7520 3939 c0 -9 16 -34 35 -55 19 -21 35 -32 35 -24 0 8 -10 24 -23
35 -13 11 -29 29 -35 40 -9 16 -11 17 -12 4z"/>
<path d="M5295 3845 c-3 -8 -7 -22 -9 -29 -3 -9 9 -24 30 -36 19 -12 46 -37
61 -56 14 -19 43 -53 64 -77 22 -23 39 -45 39 -49 0 -5 5 -8 10 -8 18 0 10 29
-11 40 -13 7 -19 19 -17 33 2 17 -2 21 -17 19 -15 -2 -17 -1 -6 6 16 11 6 32
-15 32 -8 0 -13 4 -10 8 3 5 -13 26 -34 47 -22 22 -40 34 -40 29 0 -6 -7 -11
-15 -11 -19 0 -19 14 0 25 10 5 13 15 9 25 -8 21 -33 22 -39 2z"/>
<path d="M2622 3838 c-15 -15 -16 -28 -2 -28 6 0 10 7 10 16 0 8 5 12 10 9 6
-3 10 -1 10 4 0 14 -13 14 -28 -1z"/>
<path d="M7596 3842 c-3 -5 2 -16 10 -23 9 -8 28 -31 41 -52 13 -21 54 -68 90
-105 36 -37 60 -58 52 -47 -8 11 -33 39 -56 64 -24 24 -43 48 -43 54 0 8 -41
64 -81 110 -4 5 -9 4 -13 -1z"/>
<path d="M5570 3760 c0 -5 5 -10 11 -10 5 0 7 5 4 10 -3 6 -8 10 -11 10 -2 0
-4 -4 -4 -10z"/>
<path d="M5773 3610 c-3 -11 -12 -20 -20 -20 -10 0 -1 -13 21 -33 20 -18 36
-37 36 -42 0 -8 68 -75 77 -75 2 0 3 8 2 18 -4 40 0 46 19 29 10 -10 21 -14
24 -11 6 6 -136 154 -147 154 -4 0 -9 -9 -12 -20z m76 -78 c19 -17 27 -32 22
-40 -5 -9 -13 -6 -28 10 -19 22 -37 58 -28 58 2 0 17 -12 34 -28z"/>
<path d="M5507 3586 c-3 -8 4 -22 15 -33 12 -10 18 -12 14 -5 -4 6 -2 12 3 12
11 0 14 -11 12 -40 0 -11 1 -11 5 -2 5 10 9 9 19 -5 10 -13 10 -20 2 -26 -8
-5 -7 -7 3 -5 8 2 34 -17 58 -42 24 -25 40 -37 35 -28 -5 10 -27 37 -49 60
-22 24 -49 58 -59 75 -14 24 -24 31 -37 27 -13 -4 -16 -1 -12 10 3 9 4 16 1
16 -3 0 -7 -6 -10 -14z"/>
<path d="M7820 3573 c0 -6 8 -17 18 -24 16 -13 16 -13 2 6 -8 11 -16 22 -17
24 -2 2 -3 0 -3 -6z"/>
<path d="M2440 3479 c0 -5 5 -7 10 -4 6 3 10 8 10 11 0 2 -4 4 -10 4 -5 0 -10
-5 -10 -11z"/>
<path d="M7826 3481 c-4 -5 -2 -12 3 -15 5 -4 12 -2 15 3 4 5 2 12 -3 15 -5 4
-12 2 -15 -3z"/>
<path d="M2400 3471 c0 -5 5 -13 10 -16 6 -3 10 -2 10 4 0 5 -4 13 -10 16 -5
3 -10 2 -10 -4z"/>
<path d="M5950 3450 c0 -5 5 -10 10 -10 6 0 10 5 10 10 0 6 -4 10 -10 10 -5 0
-10 -4 -10 -10z"/>
<path d="M7848 3454 c-6 -6 12 -27 47 -54 19 -14 19 -14 5 5 -29 39 -47 55
-52 49z"/>
<path d="M2246 3441 c-3 -5 1 -11 9 -15 8 -3 15 -1 15 4 0 13 -18 22 -24 11z"/>
<path d="M5897 3434 c-11 -11 3 -24 25 -24 17 0 18 2 8 15 -13 16 -23 19 -33
9z"/>
<path d="M5943 3392 c-16 -10 22 -55 42 -50 23 4 23 19 0 32 -11 6 -22 14 -25
18 -3 4 -11 4 -17 0z"/>
<path d="M5701 3351 c-10 -6 -10 -10 -1 -16 13 -8 24 -1 19 14 -3 6 -10 7 -18
2z"/>
<path d="M5876 3315 c4 -8 11 -15 16 -15 6 0 5 6 -2 15 -7 8 -14 15 -16 15 -2
0 -1 -7 2 -15z"/>
<path d="M5980 3322 c0 -5 7 -15 15 -22 8 -7 15 -9 15 -6 0 4 -7 14 -15 22 -8
9 -15 11 -15 6z"/>
<path d="M5728 3301 c12 -10 22 -22 22 -27 0 -13 50 -58 50 -46 0 6 -4 13 -10
17 -5 3 -6 13 -3 22 4 9 2 14 -3 10 -6 -3 -18 5 -28 19 -11 13 -26 24 -34 24
-11 0 -9 -5 6 -19z"/>
<path d="M6115 3300 c3 -5 8 -10 11 -10 2 0 4 5 4 10 0 6 -5 10 -11 10 -5 0
-7 -4 -4 -10z"/>
<path d="M2770 3270 c0 -19 3 -21 12 -12 9 9 9 15 0 24 -9 9 -12 7 -12 -12z"/>
<path d="M5935 3270 c3 -5 11 -10 16 -10 6 0 7 5 4 10 -3 6 -11 10 -16 10 -6
0 -7 -4 -4 -10z"/>
<path d="M2660 3250 c-9 -6 -10 -10 -3 -10 6 0 15 5 18 10 8 12 4 12 -15 0z"/>
<path d="M2335 3240 c-3 -5 -2 -10 4 -10 5 0 13 5 16 10 3 6 2 10 -4 10 -5 0
-13 -4 -16 -10z"/>
<path d="M5811 3228 c-7 -19 2 -35 53 -97 33 -41 70 -84 81 -96 11 -12 43 -48
70 -80 68 -79 127 -137 134 -130 3 3 -6 16 -20 28 -14 12 -23 30 -21 40 2 9
-1 17 -7 17 -6 0 -8 -8 -4 -17 3 -10 -4 -5 -17 10 -12 15 -20 31 -16 34 3 4 6
1 6 -5 0 -7 6 -12 13 -12 6 1 -1 12 -18 25 -16 14 -27 25 -22 25 6 0 -28 42
-71 86 -7 8 -11 14 -8 14 3 0 -6 11 -20 25 -14 14 -30 23 -35 19 -5 -3 -9 -2
-8 3 4 21 -2 32 -14 27 -8 -3 -20 2 -27 11 -11 13 -10 15 6 9 15 -5 14 -2 -6
18 -14 14 -29 23 -34 20 -5 -3 -7 7 -4 22 6 32 0 34 -11 4z"/>
<path d="M5920 3240 c0 -5 5 -10 10 -10 6 0 22 -12 36 -27 l25 -28 -18 30
c-24 41 -53 60 -53 35z"/>
<path d="M2740 3229 c0 -5 5 -7 10 -4 6 3 10 8 10 11 0 2 -4 4 -10 4 -5 0 -10
-5 -10 -11z"/>
<path d="M2012 3210 c-18 -29 -15 -36 8 -15 20 18 26 35 12 35 -4 0 -13 -9
-20 -20z"/>
<path d="M2940 3171 c0 -6 5 -13 10 -16 6 -3 10 1 10 9 0 9 -4 16 -10 16 -5 0
-10 -4 -10 -9z"/>
<path d="M2260 3157 c0 -4 -8 -10 -17 -14 -29 -10 -53 -35 -53 -54 0 -10 -10
-25 -22 -33 -13 -10 -17 -16 -9 -16 8 0 12 -3 8 -6 -11 -12 21 -34 40 -27 42
16 111 74 115 97 8 61 6 66 -28 63 -19 -1 -34 -6 -34 -10z"/>
<path d="M2983 3141 c-16 -21 -18 -28 -7 -28 8 0 14 6 14 13 0 6 7 14 15 18 8
3 15 10 15 16 0 17 -14 10 -37 -19z"/>
<path d="M5995 3160 c3 -5 8 -10 11 -10 2 0 4 5 4 10 0 6 -5 10 -11 10 -5 0
-7 -4 -4 -10z"/>
<path d="M6036 3109 c3 -5 12 -9 19 -9 8 0 29 -20 47 -44 18 -25 39 -47 45
-50 7 -3 -8 20 -34 52 -25 31 -55 58 -64 58 -10 1 -16 -3 -13 -7z"/>
<path d="M8220 3097 c0 -2 15 -16 33 -33 l32 -29 -29 33 c-28 30 -36 37 -36
29z"/>
<path d="M6225 3049 c-4 -6 -5 -12 -2 -15 2 -3 7 2 10 11 7 17 1 20 -8 4z"/>
<path d="M1855 3010 c-16 -16 -26 -32 -24 -35 7 -6 59 43 59 55 0 15 -4 13
-35 -20z"/>
<path d="M7335 2980 c10 -11 20 -20 23 -20 3 0 -3 9 -13 20 -10 11 -20 20 -23
20 -3 0 3 -9 13 -20z"/>
<path d="M2117 2962 c1 -8 3 -19 3 -25 0 -7 4 -6 10 3 12 19 13 33 1 26 -5 -4
-11 -3 -14 1 -2 5 -2 2 0 -5z"/>
<path d="M6177 2960 c9 -11 19 -17 21 -15 6 6 -18 35 -29 35 -5 0 -1 -9 8 -20z"/>
<path d="M6265 2895 c65 -89 125 -140 125 -105 0 6 -4 10 -9 10 -5 0 -39 30
-77 68 -51 50 -60 57 -39 27z"/>
<path d="M2070 2820 c-9 -6 -10 -10 -3 -10 6 0 14 -8 16 -17 3 -11 5 -7 6 10
1 30 1 30 -19 17z"/>
<path d="M7086 2822 c-2 -4 9 -15 24 -24 28 -16 29 -16 17 2 -13 22 -34 33
-41 22z"/>
<path d="M6170 2790 c0 -5 5 -10 11 -10 5 0 7 5 4 10 -3 6 -8 10 -11 10 -2 0
-4 -4 -4 -10z"/>
<path d="M8030 2792 c0 -5 18 -25 40 -45 41 -37 54 -36 21 1 -10 12 -23 22
-29 22 -6 0 -9 7 -6 15 4 9 0 15 -10 15 -9 0 -16 -4 -16 -8z"/>
<path d="M6390 2761 c0 -13 29 -35 37 -27 3 3 1 6 -5 6 -7 0 -12 7 -12 15 0 8
-4 15 -10 15 -5 0 -10 -4 -10 -9z"/>
<path d="M6680 2763 c1 -16 30 -46 37 -38 5 4 2 10 -4 12 -7 3 -13 11 -13 19
0 8 -4 14 -10 14 -5 0 -10 -3 -10 -7z"/>
<path d="M7729 2752 c5 -9 19 -26 32 -37 19 -16 18 -13 -5 18 -30 39 -43 49
-27 19z"/>
<path d="M2161 2701 c-8 -5 -9 -11 -3 -15 5 -3 12 1 16 9 6 17 6 18 -13 6z"/>
<path d="M6745 2690 c-4 -6 6 -23 21 -37 35 -32 44 -14 10 21 -15 17 -27 23
-31 16z"/>
<path d="M2120 2682 c0 -5 -9 -18 -20 -30 -12 -12 -16 -22 -11 -22 6 0 15 9
21 20 6 11 18 20 26 20 8 0 12 5 9 10 -7 12 -25 13 -25 2z"/>
<path d="M1553 2648 c-26 -30 -40 -53 -25 -44 12 7 56 66 49 66 -2 0 -13 -10
-24 -22z"/>
<path d="M4022 2607 c-28 -29 -76 -107 -69 -113 4 -4 117 129 117 138 0 16
-17 8 -48 -25z"/>
<path d="M6572 2602 c-7 -5 -10 -16 -6 -25 9 -25 22 -20 22 8 0 14 -1 25 -2
25 0 0 -7 -4 -14 -8z"/>
<path d="M6605 2580 c3 -5 8 -10 11 -10 2 0 4 5 4 10 0 6 -5 10 -11 10 -5 0
-7 -4 -4 -10z"/>
<path d="M3872 2557 c-12 -13 -22 -27 -22 -31 0 -4 -20 -32 -45 -60 -25 -29
-45 -58 -45 -64 0 -5 -7 -12 -15 -16 -8 -3 -15 -10 -15 -16 0 -5 9 -2 20 7 11
10 20 21 20 25 0 8 33 47 97 116 23 25 40 49 37 53 -7 12 -8 12 -32 -14z"/>
<path d="M1732 2547 c-12 -13 -22 -29 -22 -36 0 -16 59 29 59 47 1 19 -13 14
-37 -11z"/>
<path d="M6600 2540 c0 -5 7 -7 15 -4 8 4 15 8 15 10 0 2 -7 4 -15 4 -8 0 -15
-4 -15 -10z"/>
<path d="M6665 2530 c3 -5 11 -10 16 -10 6 0 7 5 4 10 -3 6 -11 10 -16 10 -6
0 -7 -4 -4 -10z"/>
<path d="M6701 2500 c0 -8 4 -22 9 -30 12 -18 12 -2 0 25 -6 13 -9 15 -9 5z"/>
<path d="M7010 2501 c0 -6 4 -13 10 -16 6 -3 7 1 4 9 -7 18 -14 21 -14 7z"/>
<path d="M2559 2458 c-12 -23 -12 -23 10 -4 23 21 26 26 11 26 -5 0 -15 -10
-21 -22z"/>
<path d="M6896 2452 c-3 -6 -1 -14 5 -17 15 -10 25 3 12 16 -7 7 -13 7 -17 1z"/>
<path d="M6952 2386 c7 -8 15 -12 17 -11 5 6 -10 25 -20 25 -5 0 -4 -6 3 -14z"/>
<path d="M7090 2390 c0 -5 5 -10 10 -10 6 0 10 5 10 10 0 6 -4 10 -10 10 -5 0
-10 -4 -10 -10z"/>
<path d="M3410 2381 c0 -4 11 -6 25 -3 14 2 25 6 25 8 0 2 -11 4 -25 4 -14 0
-25 -4 -25 -9z"/>
<path d="M6797 2379 c7 -7 15 -10 18 -7 3 3 -2 9 -12 12 -14 6 -15 5 -6 -5z"/>
<path d="M2449 2323 c-13 -16 -12 -17 4 -4 9 7 17 15 17 17 0 8 -8 3 -21 -13z"/>
<path d="M3236 2301 c-4 -7 -5 -15 -2 -18 9 -9 19 4 14 18 -4 11 -6 11 -12 0z"/>
<path d="M3652 2280 c-7 -11 -8 -20 -3 -20 9 0 24 30 18 36 -1 2 -8 -6 -15
-16z"/>
<path d="M3405 2270 c4 -6 11 -8 16 -5 14 9 11 15 -7 15 -8 0 -12 -5 -9 -10z"/>
<path d="M7075 2260 c3 -5 11 -10 16 -10 6 0 7 5 4 10 -3 6 -11 10 -16 10 -6
0 -7 -4 -4 -10z"/>
<path d="M2506 2234 c-5 -14 -4 -15 9 -4 17 14 19 20 6 20 -5 0 -12 -7 -15
-16z"/>
<path d="M7261 2173 c6 -16 19 -37 28 -48 10 -11 25 -34 34 -50 22 -44 59 -75
125 -105 13 -5 31 -18 40 -27 16 -15 17 -15 20 1 3 15 -70 115 -90 124 -5 2
-6 8 -2 13 3 5 -1 9 -8 9 -7 0 -26 16 -41 35 -15 19 -33 35 -40 35 -7 0 -23 9
-37 20 -34 27 -41 25 -29 -7z"/>
<path d="M2390 2148 c-12 -22 -12 -22 6 -6 10 10 15 20 12 24 -4 3 -12 -5 -18
-18z"/>
<path d="M6950 2136 c0 -2 8 -10 18 -17 15 -13 16 -12 3 4 -13 16 -21 21 -21
13z"/>
<path d="M7263 2040 c4 -8 10 -23 13 -32 4 -10 9 -18 13 -18 4 0 15 -16 25
-35 11 -19 23 -35 27 -35 4 0 21 -11 37 -25 46 -39 49 -11 5 38 -50 56 -128
126 -120 107z"/>
</g>
</svg>
