<?xml version="1.0" standalone="no"?>
<!DOCTYPE svg PUBLIC "-//W3C//DTD SVG 20010904//EN"
 "http://www.w3.org/TR/2001/REC-SVG-20010904/DTD/svg10.dtd">
<svg version="1.0" xmlns="http://www.w3.org/2000/svg"
 width="1024.000000pt" height="1024.000000pt" viewBox="0 0 1024.000000 1024.000000"
 preserveAspectRatio="xMidYMid meet">

<g transform="translate(0.000000,1024.000000) scale(0.100000,-0.100000)"
fill="#000000" stroke="none">
<path d="M4825 8780 c-38 -4 -103 -11 -143 -15 -40 -3 -87 -11 -105 -16 -17
-5 -62 -9 -99 -9 -37 0 -69 -4 -72 -8 -3 -5 9 -7 27 -5 l32 2 -35 -10 c-19 -6
-44 -11 -55 -11 -11 0 -42 -6 -70 -13 -67 -16 -125 -19 -105 -4 12 8 9 9 -10
3 -44 -13 -93 -25 -185 -46 -55 -13 -101 -30 -117 -44 -15 -12 -44 -28 -65
-35 -20 -6 -62 -27 -94 -45 -32 -19 -67 -34 -79 -34 -12 0 -38 -13 -58 -29
-20 -16 -51 -32 -68 -36 -18 -3 -43 -19 -58 -36 -14 -16 -35 -29 -46 -29 -11
0 -41 -20 -66 -46 -25 -25 -62 -50 -82 -57 -27 -9 -42 -23 -57 -50 -18 -34
-76 -75 -108 -77 -5 0 -34 -25 -65 -56 -31 -31 -68 -60 -81 -65 -16 -6 -21
-14 -17 -25 9 -23 -12 -44 -41 -44 -17 0 -23 -4 -20 -14 9 -22 -13 -35 -48
-29 -27 4 -34 2 -40 -15 -5 -17 -12 -20 -33 -16 -22 4 -34 -2 -67 -35 -21 -23
-44 -41 -50 -41 -7 0 -20 -16 -31 -35 -10 -20 -26 -35 -34 -34 -38 3 -48 -2
-53 -31 -5 -21 -12 -30 -26 -30 -11 0 -25 -9 -31 -20 -8 -15 -8 -20 1 -18 28
7 13 -37 -32 -94 -27 -35 -49 -67 -49 -71 0 -8 -48 -76 -61 -87 -3 -3 -24 -33
-48 -67 -23 -35 -46 -63 -52 -63 -6 0 -7 -4 -4 -10 3 -5 1 -10 -4 -10 -6 0
-11 -5 -11 -10 0 -6 -16 -33 -35 -60 -19 -27 -35 -53 -35 -56 0 -6 -61 -111
-90 -154 -9 -14 -24 -46 -33 -73 -9 -26 -25 -59 -36 -74 -12 -14 -21 -32 -21
-39 0 -7 -10 -33 -23 -58 -23 -45 -37 -51 -37 -14 0 21 137 292 200 393 23 39
58 96 78 128 19 31 38 57 43 57 5 0 9 4 9 10 0 15 70 110 81 110 5 0 9 9 9 19
0 10 7 22 16 25 9 3 14 13 10 21 -3 8 0 17 6 21 7 4 8 3 4 -4 -4 -7 -2 -12 3
-12 6 0 11 6 11 14 0 7 9 25 20 39 12 14 16 28 11 32 -11 6 -121 -104 -121
-121 0 -6 -7 -17 -15 -24 -19 -16 -20 4 -2 37 22 38 227 273 239 273 5 0 8 6
8 13 0 8 34 44 75 82 41 38 72 71 69 74 -2 3 4 10 15 15 10 6 44 34 75 61 30
28 87 75 125 105 39 30 68 56 66 59 -3 2 -11 -2 -20 -9 -8 -7 -15 -8 -15 -3 0
5 21 24 46 42 78 54 41 46 -56 -13 -81 -50 -225 -153 -261 -188 -8 -8 -27 -23
-42 -35 -70 -54 -185 -167 -265 -258 -48 -55 -98 -111 -112 -125 -13 -14 -39
-46 -56 -72 -18 -26 -44 -60 -58 -75 -77 -83 -178 -240 -238 -368 -10 -22 -24
-49 -30 -60 -46 -80 -98 -188 -94 -193 3 -3 0 -12 -8 -21 -7 -9 -21 -41 -31
-71 -10 -30 -20 -61 -23 -68 -2 -7 -1 -12 4 -11 24 4 26 -3 4 -14 -14 -7 -24
-21 -24 -30 1 -9 -2 -17 -7 -17 -4 0 -13 -19 -20 -42 -6 -24 -23 -79 -36 -122
-13 -44 -21 -86 -18 -94 3 -8 -1 -36 -9 -61 -41 -131 -81 -553 -71 -741 11
-186 22 -303 24 -245 2 65 10 199 16 250 2 22 6 72 10 110 3 39 10 97 15 130
5 33 16 110 26 170 17 114 57 275 95 380 11 33 23 67 25 75 2 8 7 31 12 51 5
20 19 56 30 80 11 24 23 60 27 80 3 20 14 44 24 53 12 11 16 25 13 42 -3 16 2
33 15 47 11 12 24 36 27 52 4 17 25 68 47 113 21 46 39 86 39 87 0 2 10 15 23
28 12 14 48 71 80 128 60 108 111 176 121 161 3 -5 -6 -25 -20 -46 -14 -21
-23 -44 -20 -51 3 -8 0 -12 -7 -9 -13 5 -47 -60 -47 -89 0 -10 -7 -17 -15 -17
-9 0 -12 -6 -8 -15 3 -10 0 -15 -8 -13 -8 2 -13 -3 -12 -9 3 -14 -27 -75 -69
-142 -20 -31 -28 -39 -28 -25 -1 18 -1 18 -11 1 -6 -10 -8 -25 -5 -32 3 -8 -2
-21 -10 -30 -9 -9 -13 -22 -10 -30 3 -8 0 -15 -7 -15 -11 0 -61 -125 -63 -160
-1 -8 -12 -35 -25 -60 -13 -25 -23 -48 -24 -52 0 -3 -3 -10 -7 -14 -4 -4 -5
-18 -1 -32 4 -17 1 -29 -11 -37 -12 -9 -15 -20 -10 -39 8 -35 19 -26 33 29 6
25 17 48 25 51 7 3 12 15 11 27 -1 12 8 42 20 67 12 25 28 63 35 85 15 47 25
61 34 46 10 -16 -19 -120 -48 -176 -14 -26 -26 -58 -26 -71 0 -13 -4 -26 -10
-29 -5 -3 -10 -21 -10 -39 0 -19 -7 -39 -15 -46 -8 -7 -15 -22 -15 -34 0 -12
-4 -26 -8 -31 -8 -9 -46 -145 -56 -202 -3 -12 -10 -31 -16 -43 -6 -11 -15 -44
-21 -73 -21 -122 -30 -153 -45 -164 -9 -6 -13 -16 -10 -21 3 -6 1 -34 -4 -63
-6 -30 -12 -88 -15 -129 l-3 -75 18 50 c22 60 23 55 10 -55 -9 -74 -4 -277 7
-267 2 2 5 70 7 150 3 81 10 163 16 183 7 19 10 44 7 54 -3 11 -1 20 4 22 5 2
11 21 14 43 26 206 29 221 84 435 17 69 38 137 46 151 8 15 38 91 66 170 56
156 84 219 99 219 15 0 22 -20 13 -33 -5 -7 -22 -43 -38 -82 -15 -38 -37 -80
-48 -92 -13 -14 -19 -36 -19 -62 0 -22 -3 -43 -9 -46 -5 -4 -9 -16 -9 -29 0
-12 -9 -41 -20 -64 -11 -22 -20 -50 -20 -61 0 -11 -4 -22 -9 -25 -5 -3 -12
-22 -16 -42 -3 -20 -13 -46 -20 -58 -7 -12 -19 -50 -25 -86 -6 -36 -21 -96
-33 -135 -21 -67 -32 -249 -15 -239 3 2 4 -15 1 -38 -6 -39 -5 -41 18 -35 l24
6 -23 -16 c-15 -11 -22 -25 -22 -49 0 -19 4 -34 9 -34 5 0 7 -8 4 -19 -3 -10
0 -22 6 -25 7 -5 7 -14 0 -29 -7 -15 -7 -31 0 -47 5 -14 10 -19 10 -12 1 17
31 15 31 -2 0 -7 -9 -16 -20 -19 -17 -4 -20 -10 -14 -34 4 -15 10 -30 14 -33
4 -3 6 -23 6 -45 0 -47 14 -177 21 -188 2 -4 8 -37 13 -75 14 -103 20 -134 35
-167 7 -16 16 -52 20 -80 6 -54 42 -200 54 -225 4 -8 5 -26 1 -39 -5 -22 -7
-21 -19 17 -8 23 -18 42 -22 42 -4 0 -13 15 -18 33 -6 17 -19 59 -31 92 -11
33 -23 76 -26 95 -3 19 -10 40 -15 47 -6 6 -14 42 -19 80 -12 94 -31 173 -41
173 -12 0 -11 -107 1 -167 5 -26 11 -64 14 -83 2 -19 11 -58 20 -85 8 -28 16
-65 18 -83 1 -19 6 -36 10 -38 4 -3 8 -17 8 -31 0 -14 11 -57 25 -96 14 -38
23 -72 20 -75 -2 -3 0 -11 6 -19 9 -10 8 -13 -4 -13 -9 0 -21 15 -27 36 -7 20
-18 48 -26 62 -8 15 -14 34 -14 42 0 9 -4 20 -9 25 -10 11 -56 153 -67 205 -3
19 -12 44 -19 55 -7 11 -16 36 -20 55 -3 19 -20 92 -37 163 -48 205 -65 151
-28 -95 11 -73 20 -161 20 -195 0 -34 4 -64 9 -67 5 -4 15 -39 22 -79 6 -39
15 -78 19 -86 5 -8 3 -23 -3 -32 -9 -14 -4 -31 21 -80 18 -34 32 -68 32 -76 0
-16 18 -56 123 -278 44 -93 86 -177 92 -185 23 -28 65 -111 61 -119 -5 -7 45
-114 64 -136 5 -7 25 -40 44 -75 67 -126 400 -557 474 -614 54 -42 142 -134
142 -149 0 -15 111 -111 390 -339 111 -90 147 -125 138 -133 -7 -7 -207 124
-273 179 -97 80 -381 346 -450 423 -129 143 -371 469 -425 575 -14 27 -28 48
-32 48 -9 0 -3 -17 28 -87 35 -79 268 -410 364 -518 91 -102 80 -109 -16 -10
-140 144 -187 204 -332 421 -133 200 -230 385 -315 599 -87 224 -177 511 -191
616 -3 19 -17 75 -32 124 -15 50 -32 121 -38 159 -14 87 -33 99 -29 19 2 -32
6 -67 9 -78 6 -23 33 -172 35 -195 7 -88 114 -456 193 -662 45 -119 115 -260
154 -312 67 -90 87 -119 135 -201 26 -44 56 -91 66 -105 11 -14 53 -77 94
-140 42 -63 106 -149 143 -190 96 -107 317 -320 332 -320 7 0 15 -7 18 -15 4
-8 14 -15 25 -15 10 0 30 -17 44 -37 25 -37 202 -207 260 -250 17 -12 25 -23
18 -23 -7 0 -40 24 -74 52 -95 81 -127 106 -214 163 -60 39 -131 106 -275 255
-107 111 -204 214 -215 228 -11 14 -40 50 -65 81 -25 31 -62 82 -83 114 -21
33 -41 57 -43 54 -7 -7 65 -133 117 -203 95 -130 231 -282 342 -382 26 -23 47
-47 47 -52 0 -6 5 -9 12 -7 7 1 12 -2 13 -8 1 -19 16 -35 27 -29 7 4 8 2 4 -4
-4 -7 2 -16 16 -21 13 -5 41 -29 63 -53 22 -24 58 -56 80 -72 22 -16 64 -52
92 -79 29 -28 66 -58 83 -69 17 -10 33 -24 36 -32 6 -16 117 -96 133 -96 6 0
23 -13 38 -30 14 -16 31 -30 37 -30 6 0 27 -13 46 -29 41 -33 93 -61 114 -61
8 0 21 -8 28 -18 21 -29 158 -94 185 -87 14 3 34 -2 50 -12 31 -20 130 -53
137 -46 3 3 -13 21 -36 39 -27 23 -47 33 -59 29 -11 -4 -19 -2 -19 4 0 21 -65
83 -114 108 -28 14 -46 28 -39 30 13 5 147 -61 178 -87 11 -9 40 -25 65 -35
46 -20 235 -115 273 -139 12 -7 58 -21 102 -31 44 -11 89 -26 100 -35 11 -9
61 -26 110 -38 291 -69 269 -66 490 -69 116 -2 217 -3 225 -3 8 1 34 2 57 3
48 2 61 11 44 30 -11 14 -54 20 -221 32 -169 12 -127 22 75 18 215 -3 259 9
75 21 -52 4 -96 9 -99 11 -2 3 65 6 150 6 85 1 142 4 127 6 -14 2 -32 11 -39
19 -21 25 8 35 86 29 50 -4 78 -1 97 9 16 8 30 11 33 5 8 -13 141 -2 199 16
27 8 62 15 78 15 30 0 125 20 213 45 28 8 68 18 90 24 22 5 67 17 100 26 33
10 85 23 116 30 31 6 61 15 68 19 6 4 43 16 83 27 39 11 84 29 99 39 15 11 30
20 34 20 4 0 35 13 69 29 33 16 79 36 101 46 69 29 127 61 219 119 50 31 94
56 98 56 4 0 8 5 8 10 0 17 -14 11 -81 -33 -65 -44 -282 -157 -300 -157 -6 0
-61 -25 -123 -55 -61 -30 -132 -57 -156 -61 -25 -4 -63 -15 -85 -25 -22 -10
-49 -19 -60 -19 -21 0 98 62 128 67 10 2 38 14 62 27 24 14 62 30 84 37 23 7
41 15 41 19 0 3 19 14 43 24 68 29 201 98 208 108 3 6 9 9 13 9 20 -3 26 0 20
11 -4 6 -3 8 4 4 6 -3 17 1 26 10 9 8 21 12 27 9 6 -4 13 2 16 14 3 12 13 21
24 21 11 0 19 7 19 15 0 8 6 15 14 15 19 0 67 26 67 36 -1 5 5 9 12 9 19 1 38
15 32 25 -3 5 0 12 6 16 8 4 9 3 5 -4 -13 -21 8 -13 37 13 15 14 27 23 27 20
0 -3 11 2 25 11 14 9 24 19 21 21 -2 3 3 13 12 24 10 11 19 15 22 8 4 -6 12
-3 21 7 12 16 12 17 -3 11 -10 -3 -18 -2 -18 3 0 6 -7 7 -17 1 -10 -5 -45 -22
-78 -37 -33 -16 -83 -44 -112 -62 -29 -17 -58 -32 -65 -32 -8 0 -37 -15 -66
-34 -28 -19 -52 -33 -52 -31 0 3 -17 -7 -37 -21 -25 -17 -45 -23 -60 -19 -13
3 -23 1 -23 -5 0 -6 -26 -22 -57 -36 -32 -13 -66 -29 -75 -34 -10 -6 -23 -10
-29 -10 -6 0 -23 -8 -37 -19 -15 -10 -45 -24 -67 -30 -50 -16 -88 -33 -97 -46
-5 -6 -12 -4 -18 5 -8 12 -13 13 -27 2 -30 -20 -62 -32 -106 -37 -25 -3 -33
-2 -20 3 13 4 31 14 41 23 10 9 32 20 48 24 37 11 34 10 67 23 16 7 37 12 47
12 10 0 21 4 24 9 4 5 25 18 49 29 84 38 92 42 107 51 20 13 129 63 155 71 11
4 51 26 89 49 37 22 71 41 75 41 5 0 21 11 37 25 l29 26 -50 -22 c-27 -12 -57
-28 -66 -35 -8 -8 -19 -14 -22 -14 -4 0 -24 -10 -45 -23 -20 -13 -59 -31 -87
-41 -27 -10 -54 -23 -60 -27 -5 -5 -17 -9 -27 -9 -10 0 -18 -4 -18 -10 0 -5
-7 -10 -15 -10 -9 0 -45 -14 -82 -30 -36 -17 -95 -39 -130 -50 -35 -11 -73
-25 -86 -32 -12 -7 -25 -11 -29 -10 -4 1 -20 -3 -35 -9 -60 -23 -193 -43 -193
-30 0 10 32 23 46 20 20 -5 328 95 358 117 11 8 30 14 41 14 12 0 36 11 55 25
19 14 40 25 47 25 16 0 197 92 201 103 2 4 9 7 16 7 12 0 27 10 98 68 22 17
46 32 54 32 8 0 22 9 32 21 9 11 28 26 42 31 20 9 21 12 8 15 -9 2 -30 -3 -46
-11 -26 -13 -31 -13 -47 2 -16 16 -17 16 -4 -5 12 -20 11 -25 -3 -39 -16 -16
-17 -16 -11 4 3 13 1 22 -6 22 -7 0 -9 5 -5 12 4 7 3 8 -5 4 -6 -4 -8 -12 -5
-18 5 -8 1 -9 -10 -5 -10 4 -15 3 -11 -3 3 -5 -11 -20 -32 -34 -34 -24 -38
-25 -45 -9 -11 29 -9 32 22 48 17 9 30 20 30 26 0 6 -7 6 -20 -1 -12 -6 -20
-7 -20 -1 0 11 -54 -14 -82 -38 -10 -9 -28 -18 -41 -21 -12 -3 -27 -15 -32
-27 -9 -18 -13 -19 -21 -7 -7 12 -19 9 -69 -16 -33 -16 -65 -30 -71 -30 -5 0
-24 -11 -42 -23 -20 -15 -43 -23 -64 -22 -18 1 -53 -8 -78 -20 -122 -61 -356
-120 -620 -156 -115 -16 -561 -15 -653 2 -34 6 -74 10 -89 10 -34 -1 -45 15
-19 28 13 7 44 8 98 1 83 -11 512 -15 552 -6 13 3 58 8 100 12 68 5 150 18
276 44 50 11 224 67 247 80 10 6 25 10 33 10 9 0 18 7 22 16 3 8 12 13 19 10
8 -3 14 -1 14 3 0 11 25 21 61 26 14 2 50 18 80 34 30 17 89 48 131 69 44 21
77 43 78 52 0 11 2 12 8 3 5 -8 13 -9 22 -3 13 9 13 10 0 10 -8 0 0 9 19 21
22 13 36 17 40 10 4 -7 24 5 50 29 23 22 49 40 56 40 8 0 18 6 22 12 4 7 25
21 46 30 21 10 40 24 43 32 3 8 12 12 20 9 8 -3 14 0 14 6 0 6 11 16 25 21 14
5 25 14 25 20 0 5 7 10 17 10 9 0 13 3 10 7 -4 3 1 11 10 18 9 7 13 17 9 24
-6 9 -13 6 -26 -9 -9 -11 -20 -20 -24 -20 -3 0 -15 -8 -25 -17 -37 -34 -46
-38 -83 -38 -20 1 -34 -3 -32 -7 3 -5 16 -5 30 -2 30 8 31 -3 2 -16 -23 -10
-68 -36 -113 -66 -14 -9 -25 -12 -25 -6 0 6 6 13 13 16 6 3 3 5 -8 3 -12 -1
-20 -10 -20 -21 0 -11 -6 -21 -14 -24 -9 -3 -12 0 -9 9 4 10 -1 15 -12 15 -10
0 -17 -3 -14 -7 5 -8 -24 -21 -51 -23 -11 -1 -21 -9 -23 -21 -3 -20 -3 -20 13
-1 11 15 18 17 26 9 9 -9 3 -17 -22 -33 -72 -44 -282 -140 -306 -140 -19 0
-146 -42 -153 -51 -5 -6 -33 -16 -67 -24 -10 -2 -67 -18 -128 -35 -145 -42
-224 -56 -380 -71 -217 -20 -467 -13 -745 22 -218 27 -271 39 -474 105 -192
63 -193 64 -176 74 15 9 53 1 265 -60 212 -60 214 -60 450 -76 111 -7 127 -6
138 5 20 20 -8 32 -94 41 -99 10 -271 39 -279 47 -5 5 201 -6 210 -12 3 -2 12
0 20 5 8 5 21 5 30 0 16 -8 215 -22 322 -23 28 0 58 7 74 18 18 11 29 14 33 6
9 -14 81 -2 81 14 0 31 36 44 140 51 71 5 116 13 139 25 l34 18 -27 11 c-33
12 -62 13 -84 1 -22 -11 -199 -22 -181 -11 7 5 11 12 8 15 -12 11 -125 25
-209 25 -47 0 -137 5 -200 10 -63 5 -158 13 -210 16 -52 4 -104 11 -114 16
-10 6 -42 12 -69 14 -28 2 -71 10 -96 18 -25 9 -68 20 -96 26 -86 18 -495 156
-595 200 -52 23 -106 52 -120 64 -14 12 -38 28 -54 34 -49 21 -157 112 -133
112 2 0 34 -16 72 -36 107 -56 265 -134 271 -134 3 0 24 -8 47 -19 81 -36 202
-79 267 -96 36 -8 88 -25 115 -35 28 -11 91 -29 140 -41 50 -11 117 -27 150
-35 60 -14 217 -37 330 -49 33 -4 74 -9 90 -11 70 -10 243 -12 319 -3 44 5
124 13 176 19 52 5 149 23 215 39 66 16 132 32 148 36 15 3 27 10 27 16 0 7
-10 9 -27 4 -104 -28 -172 -41 -189 -34 -16 6 -15 8 11 14 17 4 50 14 75 22
50 16 199 53 215 53 6 0 3 -5 -5 -11 -11 -8 -9 -9 10 -4 75 21 223 97 207 107
-8 5 -5 8 9 8 11 0 25 5 32 12 7 7 12 9 12 4 0 -4 7 0 16 9 9 9 24 13 33 10
13 -5 13 -4 4 6 -17 17 -96 -1 -261 -62 -72 -27 -137 -49 -142 -49 -6 0 -10
-5 -10 -11 0 -5 -4 -8 -8 -5 -5 3 -47 -4 -93 -15 -103 -25 -103 -25 -264 -39
-71 -6 -140 -13 -152 -15 -13 -3 -23 -1 -23 4 0 5 24 12 53 16 102 14 85 26
-28 19 -60 -3 -113 -8 -117 -11 -4 -2 -49 -6 -100 -9 -51 -2 -122 -6 -158 -8
-95 -6 -296 18 -449 53 -74 18 -137 34 -140 38 -6 6 64 1 219 -17 138 -15 400
-32 416 -26 7 3 11 11 9 18 -4 9 -28 13 -83 12 -42 -1 -113 4 -157 11 -44 7
-98 16 -120 19 -96 15 -150 33 -153 50 -3 13 1 17 15 13 10 -3 43 -9 73 -13
30 -4 64 -9 75 -11 11 -3 63 -7 115 -9 52 -3 121 -7 153 -9 31 -2 57 0 57 5 0
16 -37 25 -110 26 -41 1 -82 3 -90 6 -86 25 -262 83 -288 94 -17 8 -64 23
-103 34 -71 18 -109 38 -54 27 52 -10 119 -25 165 -37 85 -21 205 -40 255 -39
l50 1 -40 8 c-22 4 -84 16 -138 25 -54 10 -96 20 -92 23 3 3 59 -3 125 -13
109 -17 145 -16 127 2 -9 9 -88 22 -172 29 -38 3 -88 12 -110 19 -59 20 -159
30 -150 15 5 -9 1 -10 -14 -5 -12 4 -49 8 -82 9 -43 2 -68 9 -89 24 -16 12
-36 22 -44 22 -8 0 -37 14 -64 31 -36 22 -48 35 -45 48 3 11 -2 21 -11 24 -9
4 -16 2 -16 -3 0 -6 -6 -10 -12 -10 -17 1 -58 35 -58 48 0 5 -16 13 -35 16
-21 4 -35 13 -35 21 0 8 -12 21 -27 29 -35 19 -138 119 -223 216 -36 41 -85
96 -110 121 -25 26 -60 63 -77 82 -18 19 -33 41 -33 50 0 8 -4 17 -9 19 -37
14 -155 226 -211 383 -18 50 -44 119 -57 155 -40 105 -54 163 -48 197 5 25 2
34 -15 43 -20 11 -28 50 -10 50 6 0 10 -5 10 -11 0 -8 5 -7 15 1 11 9 15 28
14 62 -2 42 -5 48 -25 48 -12 0 -24 7 -28 15 -4 10 1 15 14 15 12 0 22 9 25
23 8 29 -19 92 -42 102 -16 6 -15 8 7 17 17 6 21 11 12 17 -7 4 -12 16 -11 27
5 54 -2 83 -21 89 -11 4 -18 11 -14 16 3 6 12 8 19 5 7 -2 16 2 19 11 7 18
-22 43 -40 36 -18 -7 -29 19 -13 31 16 12 49 69 49 84 0 5 -12 22 -27 37 l-28
27 23 18 c25 21 29 50 7 50 -8 0 -15 -4 -15 -10 0 -5 -4 -10 -10 -10 -17 0
-11 30 15 67 13 20 22 40 19 45 -7 10 12 162 32 266 8 40 11 84 8 97 -4 18 -1
27 10 31 10 4 16 18 16 40 0 19 4 34 10 34 9 0 19 38 24 103 2 20 11 46 20 55
9 10 16 22 16 26 0 4 15 38 33 74 19 37 39 84 46 104 7 20 19 42 27 48 7 7 14
25 14 40 0 25 41 80 60 80 10 0 50 75 50 94 0 15 73 100 167 193 69 68 52 73
-38 13 -53 -37 -78 -43 -47 -12 6 6 9 14 7 17 -3 3 -34 -18 -70 -45 -35 -27
-67 -50 -70 -50 -20 0 10 52 49 86 25 21 70 64 100 94 30 30 51 49 48 43 -4
-7 -2 -13 3 -13 6 0 11 7 11 15 0 14 68 84 82 85 5 0 29 15 55 34 54 38 133
80 139 73 2 -2 -24 -21 -58 -42 -74 -45 -144 -101 -151 -119 -8 -21 27 -12 79
21 148 92 370 203 408 203 39 0 24 -13 -43 -36 -29 -10 -56 -25 -58 -31 -3 -7
-15 -13 -27 -13 -11 0 -33 -10 -48 -23 -15 -13 -38 -32 -52 -43 -14 -10 -26
-24 -26 -31 0 -7 24 5 53 27 28 22 63 43 77 47 14 3 70 27 125 53 55 26 126
55 158 65 31 10 57 22 57 26 0 5 8 9 18 10 9 0 12 3 5 5 -6 3 -35 -2 -64 -10
-96 -29 -93 -13 4 23 54 20 100 24 187 19 19 -1 71 8 115 20 114 31 180 38
353 38 130 -1 152 1 150 14 -10 52 -259 70 -489 34 -78 -12 -114 -13 -121 -6
-6 6 -30 8 -58 5 -29 -3 -50 -1 -54 5 -7 12 23 19 124 27 36 3 83 8 105 11
177 24 329 24 508 0 41 -6 41 -5 -13 14 -44 16 -84 21 -202 23 -98 1 -143 5
-137 12 6 6 49 10 97 11 48 1 105 4 127 8 22 3 68 0 102 -7 34 -7 60 -10 57
-5 -8 13 29 9 56 -7 14 -8 32 -14 40 -15 8 0 -4 10 -28 22 -23 12 -38 25 -32
28 9 6 121 -10 165 -23 19 -6 77 -15 120 -20 10 -1 20 5 22 13 4 23 -106 89
-168 100 -76 15 -119 32 -119 48 0 10 8 12 33 7 17 -3 57 -11 87 -16 30 -6 72
-15 93 -20 21 -6 51 -8 66 -4 18 4 47 -2 80 -15 53 -21 101 -25 136 -11 18 8
18 10 -10 21 -16 7 -59 26 -94 41 -35 16 -72 29 -83 29 -10 0 -32 7 -49 15
-16 9 -35 13 -41 9 -7 -5 -8 -3 -3 6 5 9 2 10 -11 6 -25 -7 -167 26 -166 39 0
6 11 12 23 15 18 4 19 7 8 16 -8 6 -22 10 -32 8 -11 -1 -16 0 -13 3 3 4 -6 15
-21 26 -19 13 -21 17 -8 12 11 -3 34 -8 51 -10 16 -3 47 -11 67 -20 20 -8 51
-15 69 -15 19 0 44 -7 56 -16 13 -9 42 -18 65 -21 71 -7 149 -34 154 -52 2 -9
22 -26 43 -39 45 -26 57 -28 40 -7 -10 12 -10 15 3 15 11 0 14 -7 12 -22 -4
-20 4 -26 58 -47 34 -13 74 -32 89 -42 14 -11 33 -19 41 -19 8 0 25 -8 38 -18
13 -11 36 -22 52 -26 15 -3 36 -15 47 -26 11 -11 39 -26 61 -34 23 -8 48 -24
56 -35 8 -12 22 -21 31 -21 10 0 32 -15 50 -32 17 -18 38 -39 44 -46 45 -45
58 -63 58 -81 0 -11 24 -42 53 -70 28 -28 47 -51 41 -51 -14 0 -54 35 -54 48
0 5 -11 13 -25 16 -13 3 -29 15 -35 26 -6 11 -17 20 -24 20 -7 0 -21 9 -31 20
-10 11 -24 20 -31 20 -7 0 -18 9 -24 20 -6 11 -15 20 -21 20 -5 0 -39 18 -75
40 -36 22 -68 40 -71 40 -2 0 -37 15 -76 34 -113 54 -207 87 -273 95 -60 7
-62 6 -54 -13 5 -14 27 -28 66 -41 32 -11 75 -30 94 -41 19 -12 85 -47 145
-79 258 -135 365 -211 543 -382 41 -40 78 -73 82 -73 5 0 11 -8 14 -18 3 -9
16 -22 28 -27 12 -6 24 -16 26 -23 3 -11 0 -12 -17 -3 -12 7 -21 8 -21 2 0 -5
9 -13 20 -16 11 -3 20 -13 20 -21 0 -8 7 -17 15 -20 8 -4 15 -10 15 -16 0 -5
16 -26 35 -46 38 -41 62 -86 80 -149 3 -12 19 -38 35 -58 17 -21 30 -43 30
-50 0 -6 19 -37 43 -68 64 -86 106 -163 139 -257 28 -82 67 -209 72 -240 2 -8
6 -22 9 -30 27 -68 39 -179 64 -557 3 -57 9 -103 13 -103 28 0 33 37 34 242 1
151 4 212 13 215 13 5 43 -87 51 -154 2 -24 8 -43 13 -43 5 0 6 -20 2 -45 -3
-28 -2 -45 4 -45 19 0 23 95 13 266 -5 93 -13 187 -16 209 -9 65 -54 286 -69
340 -31 115 -34 129 -31 133 17 17 116 -259 116 -326 0 -15 11 -67 25 -117 14
-51 25 -118 25 -155 1 -36 5 -85 10 -110 5 -25 12 -142 15 -260 3 -118 8 -240
11 -270 6 -48 8 -52 17 -32 7 16 7 103 -1 290 -10 237 -23 366 -51 510 -14 70
2 47 28 -41 52 -180 78 -445 84 -854 2 -113 7 -187 14 -194 7 -7 12 10 16 58
3 37 11 115 16 172 14 136 13 608 0 633 -6 10 -9 29 -7 41 2 15 10 1 25 -43
17 -50 24 -101 29 -220 4 -85 9 -159 11 -163 3 -5 11 0 19 10 17 23 19 303 3
438 -6 50 -10 112 -10 140 0 27 -4 54 -9 60 -5 6 -24 73 -44 150 -43 171 -68
238 -180 488 -14 31 -22 57 -17 57 12 0 106 -154 153 -251 43 -90 63 -154 118
-384 43 -180 84 -433 74 -459 -3 -9 -1 -16 5 -16 12 0 16 31 12 100 -4 61 12
42 32 -40 27 -110 46 -545 24 -567 -4 -3 -7 -37 -7 -74 0 -37 -4 -71 -10 -74
-5 -3 -10 -11 -10 -16 0 -6 5 -7 12 -3 8 5 9 2 3 -12 -4 -10 -10 -32 -13 -48
-3 -19 -7 -24 -13 -15 -4 7 -11 10 -15 6 -4 -3 -1 -14 7 -24 8 -9 9 -14 3 -10
-7 4 -15 0 -18 -9 -8 -22 -8 -26 4 -19 12 8 13 -11 1 -52 -9 -31 2 -57 12 -31
4 9 6 8 6 -2 1 -9 -7 -27 -16 -40 -10 -14 -17 -26 -15 -27 8 -9 0 -23 -13 -23
-18 0 -20 -27 -2 -33 9 -3 9 -9 0 -28 -7 -13 -23 -58 -36 -99 -14 -41 -34 -99
-46 -127 -11 -29 -17 -53 -13 -53 4 0 2 -4 -4 -8 -6 -4 -17 -25 -26 -47 -33
-84 -53 -125 -60 -125 -5 0 -8 -6 -8 -14 0 -8 -14 -44 -31 -80 -17 -37 -29
-69 -27 -71 2 -3 21 25 42 60 38 65 51 76 59 53 2 -7 10 5 17 27 7 22 16 45
21 51 13 16 159 356 159 369 0 6 7 20 15 31 14 18 15 17 9 -11 -11 -53 -62
-212 -79 -245 -9 -18 -14 -34 -11 -37 9 -9 108 226 104 245 -3 11 32 86 37 80
11 -10 -88 -350 -126 -436 -18 -41 -18 -43 -2 -40 11 2 28 28 44 67 15 35 36
84 46 110 41 95 84 214 85 235 1 11 7 28 13 36 7 8 15 22 19 30 5 13 2 -6 -9
-60 -5 -25 -55 -183 -65 -205 -16 -38 -19 -55 -11 -55 9 0 61 135 61 158 0 6
4 12 8 12 4 0 8 9 9 20 2 22 30 56 40 47 5 -6 -8 -73 -34 -164 -10 -38 -18
-50 -29 -46 -8 3 -14 -1 -14 -10 0 -8 7 -17 15 -21 21 -8 14 -44 -12 -74 -21
-23 -25 -35 -27 -87 -1 -11 -19 -37 -40 -57 -22 -21 -36 -38 -31 -38 4 0 2 -7
-5 -15 -10 -12 -10 -15 0 -15 9 0 8 -6 -3 -23 -8 -13 -18 -45 -22 -71 -5 -34
-14 -52 -32 -63 -20 -13 -23 -21 -18 -54 5 -35 3 -40 -20 -51 -14 -6 -25 -15
-25 -20 0 -5 -18 -31 -40 -57 -22 -26 -50 -77 -65 -116 -31 -87 -31 -101 0
-51 13 22 21 44 18 50 -3 6 -2 8 2 3 5 -4 17 0 27 10 23 21 33 11 18 -17 -8
-15 -8 -20 -1 -16 6 4 11 3 11 -2 0 -12 -39 -52 -51 -52 -5 0 -15 -11 -21 -25
-6 -14 -16 -25 -22 -25 -6 0 -30 -30 -54 -65 -40 -62 -43 -75 -13 -56 7 5 11
13 7 19 -3 5 5 17 19 26 22 15 26 15 31 2 3 -8 3 -20 -1 -26 -3 -5 -3 -10 2
-10 10 0 53 62 53 76 0 6 14 23 30 37 29 27 34 37 31 67 -1 12 0 12 7 2 7 -10
11 -10 22 3 7 8 10 18 6 22 -3 4 5 18 18 32 14 14 41 56 60 94 48 90 51 96 70
139 10 25 20 36 30 32 20 -8 29 13 28 60 -2 31 3 44 18 53 16 11 21 10 29 -5
9 -15 10 -15 11 5 0 12 12 43 26 68 14 25 27 65 28 88 4 47 34 119 68 162 12
16 23 43 24 59 2 44 37 169 51 183 6 7 9 21 6 32 -3 11 2 30 11 43 10 14 16
43 16 80 0 32 3 58 8 58 9 0 33 89 39 145 2 22 8 49 12 60 13 30 31 136 32
181 0 21 4 48 9 59 8 19 9 19 9 -2 1 -12 5 -24 10 -27 5 -4 5 -22 0 -45 -5
-24 -5 -50 0 -64 6 -16 6 -28 -1 -35 -6 -6 -11 -58 -12 -122 -1 -83 2 -107 10
-95 16 22 24 18 25 -12 l0 -28 12 25 11 25 4 -29 c4 -32 -14 -59 -26 -39 -4 7
-7 -18 -7 -54 1 -46 -5 -77 -17 -102 -19 -37 -27 -150 -8 -121 5 8 12 12 15 8
10 -10 -14 -48 -29 -48 -14 0 -31 -63 -21 -79 3 -6 1 -12 -4 -15 -5 -3 -12
-30 -16 -61 -3 -30 -11 -57 -16 -60 -5 -4 -9 -25 -9 -47 0 -23 -7 -49 -15 -58
-13 -14 -44 -93 -102 -260 -15 -44 -103 -226 -148 -305 -12 -22 -52 -92 -87
-155 -36 -63 -79 -140 -95 -170 -16 -30 -40 -72 -52 -93 -13 -20 -19 -37 -14
-37 6 0 15 10 20 23 6 12 35 50 65 84 30 35 67 86 83 115 15 29 35 62 45 73 9
11 41 63 70 115 30 52 57 97 62 98 4 2 8 8 8 14 0 6 27 57 60 115 33 57 60
112 60 122 0 10 8 29 19 42 68 88 124 234 148 381 3 21 10 38 15 38 6 0 8 -6
5 -14 -3 -8 -1 -16 6 -19 18 -6 -10 -119 -107 -437 -45 -145 -79 -246 -117
-340 -51 -128 -20 -88 89 118 79 148 154 322 183 422 7 25 17 50 22 57 5 7 10
22 12 35 2 13 11 48 20 78 8 30 15 64 15 77 0 12 5 25 10 28 6 3 10 15 10 26
0 10 5 19 10 19 15 0 12 -44 -10 -149 -23 -109 -33 -214 -19 -206 5 4 9 14 9
23 0 9 6 28 13 42 20 40 45 112 52 153 3 20 10 37 14 37 5 0 11 15 14 33 3 17
12 61 21 97 26 101 44 205 45 258 1 17 6 32 12 32 7 0 9 -12 5 -32 -7 -42 -17
-200 -11 -173 3 11 12 58 21 105 9 47 20 98 26 113 9 24 8 31 -11 48 -12 12
-20 27 -17 34 3 8 0 15 -6 17 -8 3 -8 14 1 38 6 19 13 86 16 149 2 62 7 122
11 133 4 13 2 18 -4 14 -7 -4 -9 2 -6 16 17 86 26 276 13 284 -5 3 -9 16 -9
29 0 13 -4 27 -10 30 -5 3 -9 23 -9 43 1 20 -1 69 -4 107 -3 39 -9 117 -12
175 -6 109 -22 208 -35 225 -4 6 -15 55 -24 110 -10 55 -24 113 -32 129 -8 16
-14 41 -14 55 0 14 -9 49 -19 76 -10 28 -22 80 -26 117 -4 37 -13 73 -21 79
-8 6 -11 16 -8 21 3 5 -2 18 -11 28 -11 12 -16 29 -12 45 3 19 -2 34 -19 52
-20 21 -44 97 -44 138 0 8 -6 12 -12 10 -13 -4 -40 47 -138 256 -22 48 -40 94
-40 102 0 8 -7 20 -15 27 -8 7 -29 36 -45 65 -17 30 -36 56 -43 58 -8 3 -6 7
6 12 14 6 26 -1 47 -26 16 -19 29 -39 30 -45 0 -6 17 -27 38 -46 48 -46 107
-124 107 -143 0 -17 22 -41 31 -33 3 4 -6 24 -20 45 -26 37 -36 103 -16 103 6
0 10 -11 10 -24 0 -13 14 -39 31 -57 16 -19 46 -58 65 -88 62 -94 49 -46 -30
109 -71 142 -117 215 -212 341 -22 30 -44 66 -48 81 -3 15 -19 34 -34 42 -32
17 -82 78 -82 101 0 28 -20 55 -40 55 -10 0 -28 13 -40 29 -11 17 -29 33 -39
36 -11 3 -24 19 -29 35 -6 15 -21 34 -34 41 -28 15 -53 37 -134 117 -35 34
-72 62 -83 62 -13 0 -21 9 -26 30 -4 17 -16 35 -28 41 -12 7 -38 27 -57 45
-104 100 -157 145 -185 155 -16 7 -43 23 -58 36 -16 13 -34 23 -40 23 -7 0
-37 22 -67 49 -30 28 -75 57 -100 67 -25 9 -72 31 -105 49 -87 46 -353 162
-400 174 -68 17 -123 22 -102 10 9 -6 15 -14 12 -19 -3 -5 5 -16 17 -24 28
-20 12 -21 -33 -2 -45 18 -109 27 -109 15 0 -5 10 -9 23 -9 12 0 72 -26 132
-57 61 -31 125 -59 144 -62 19 -3 39 -15 45 -26 17 -30 59 -65 78 -65 10 0 33
-13 51 -30 19 -16 39 -30 44 -30 5 0 14 -8 21 -17 7 -10 16 -22 20 -28 4 -5
23 -18 42 -28 101 -51 179 -111 165 -126 -7 -7 -28 5 -68 39 -32 28 -63 50
-67 50 -20 0 -130 72 -124 81 3 5 2 8 -3 7 -12 -4 -183 82 -204 103 -11 11
-30 19 -43 19 -13 0 -43 8 -67 19 -74 31 -83 34 -101 32 -9 -1 -19 3 -23 9 -3
5 -17 10 -31 10 -13 0 -24 4 -24 9 0 11 -19 9 -39 -3 -10 -6 -12 -4 -7 11 6
18 1 21 -36 26 -23 3 -44 11 -46 16 -2 6 -9 11 -15 11 -7 1 -25 11 -40 24 -18
14 -37 21 -52 19 -12 -3 -33 0 -45 7 -21 11 -37 16 -90 25 -109 20 -150 35
-97 35 15 0 27 5 27 10 0 6 -13 10 -28 10 -15 0 -32 4 -37 9 -6 5 -32 12 -60
15 -27 4 -57 9 -65 11 -8 2 -41 6 -74 10 -32 3 -66 9 -75 14 -9 4 -54 9 -101
9 -47 1 -96 4 -110 7 -14 4 -77 9 -140 12 -118 6 -123 15 -15 27 33 4 78 13
100 20 36 13 14 14 -215 14 -273 -1 -371 -7 -378 -26 -2 -7 -15 -12 -28 -12
-14 0 -23 4 -20 9 11 17 -21 19 -99 5 -44 -8 -86 -16 -92 -19 -16 -5 -43 4
-43 15 0 4 15 10 33 13 17 3 78 12 135 21 56 8 111 20 121 25 23 13 93 21 184
22 39 0 97 6 127 14 51 12 210 28 288 28 17 0 32 4 32 9 0 4 -51 8 -113 8 -63
0 -167 2 -233 4 -65 3 -150 1 -189 -4z m168 -157 c-7 -2 -19 -2 -25 0 -7 3 -2
5 12 5 14 0 19 -2 13 -5z m-563 -13 c-8 -5 -22 -10 -30 -10 -8 0 -28 -7 -45
-16 -35 -19 -77 -25 -73 -12 5 13 96 45 133 47 23 0 26 -2 15 -9z m1188 -57
c-10 -2 -26 -2 -35 0 -10 3 -2 5 17 5 19 0 27 -2 18 -5z m-1390 -15 c-3 -7
-20 -14 -40 -16 -26 -2 -38 -9 -46 -28 -10 -22 -18 -24 -73 -24 -66 0 -78 17
-23 34 33 10 58 19 94 34 36 15 93 15 88 0z m1432 2 c0 -5 -2 -10 -4 -10 -3 0
-8 5 -11 10 -3 6 -1 10 4 10 6 0 11 -4 11 -10z m60 -4 c0 -11 -19 -15 -25 -6
-3 5 1 10 9 10 9 0 16 -2 16 -4z m85 -16 c3 -5 2 -10 -4 -10 -5 0 -13 5 -16
10 -3 6 -2 10 4 10 5 0 13 -4 16 -10z m-355 -45 c0 4 6 3 13 -2 6 -6 37 -13
67 -17 63 -7 105 -14 140 -22 14 -4 34 -8 45 -9 127 -18 512 -143 556 -181 8
-8 21 -14 28 -14 48 0 298 -130 421 -220 36 -26 92 -65 125 -85 33 -21 118
-84 188 -139 70 -56 176 -138 234 -183 58 -45 123 -101 145 -125 107 -117 117
-157 15 -62 -35 32 -120 101 -188 151 -68 51 -173 133 -234 182 -109 89 -304
216 -314 205 -3 -3 5 -13 18 -23 29 -20 91 -84 91 -93 0 -18 -33 -4 -116 48
-49 31 -114 71 -144 89 -95 54 -465 215 -536 232 -62 15 -67 15 -79 0 -11 -15
-15 -15 -41 -2 -48 23 -267 75 -444 105 -128 21 -170 32 -170 42 0 13 152 3
255 -17 39 -7 76 -10 84 -5 8 4 -3 10 -30 14 -24 3 -64 13 -89 21 -25 8 -58
19 -75 24 -27 9 -25 9 24 10 82 1 57 9 -44 14 -67 3 -107 11 -156 30 -36 15
-81 27 -100 28 -19 1 -45 5 -59 9 -14 4 48 8 149 8 95 1 176 3 179 6 3 4 14
-1 24 -11 10 -9 18 -13 18 -8z m64 10 c3 -8 1 -15 -3 -15 -5 0 -11 7 -15 15
-3 8 -1 15 3 15 5 0 11 -7 15 -15z m-1659 -54 c-7 -12 -75 -35 -82 -28 -7 7
48 36 70 37 10 0 16 -4 12 -9z m1182 -67 c-3 -3 -12 -4 -19 -1 -8 3 -5 6 6 6
11 1 17 -2 13 -5z m90 0 c-3 -3 -12 -4 -19 -1 -8 3 -5 6 6 6 11 1 17 -2 13 -5z
m78 -4 c3 -5 -1 -10 -10 -10 -9 0 -13 5 -10 10 3 6 8 10 10 10 2 0 7 -4 10
-10z m812 -181 c60 -22 88 -39 64 -39 -24 0 -131 42 -131 51 0 12 1 12 67 -12z
m158 -64 c28 -13 43 -24 35 -24 -20 -1 -100 32 -100 42 0 11 10 8 65 -18z
m655 -35 c0 -5 -4 -10 -10 -10 -5 0 -10 5 -10 10 0 6 5 10 10 10 6 0 10 -4 10
-10z m-3836 -96 c3 -8 2 -12 -4 -9 -6 3 -10 10 -10 16 0 14 7 11 14 -7z m4282
-125 c19 -11 34 -24 34 -29 0 -4 11 -11 25 -14 13 -3 30 -16 36 -29 7 -12 18
-26 25 -30 8 -4 14 -12 14 -17 0 -16 -27 -11 -33 5 -5 12 -52 47 -107 80 -29
17 -50 37 -50 46 0 15 21 10 56 -12z m-411 -60 c11 -17 -1 -21 -15 -4 -8 9 -8
15 -2 15 6 0 14 -5 17 -11z m-1897 -13 c56 -18 7 -37 -65 -26 -85 15 -143 18
-149 9 -3 -5 -29 -9 -57 -8 -46 0 -49 2 -27 11 14 5 31 13 38 17 18 8 231 6
260 -3z m2539 -142 c-10 -10 -47 26 -47 45 0 11 7 8 27 -11 15 -15 24 -31 20
-34z m-4977 -19 c-7 -8 -16 -15 -21 -15 -5 0 -6 7 -3 15 4 8 13 15 21 15 13 0
13 -3 3 -15z m483 -56 c-10 -17 -24 -36 -32 -42 -12 -10 -12 -9 0 13 16 29 40
60 46 60 2 0 -4 -14 -14 -31z m2117 -10 c0 -7 9 -9 22 -6 23 6 58 -8 58 -23 0
-9 -34 -8 -135 5 -26 3 -22 18 7 27 36 10 48 9 48 -3z m-2566 -24 c-29 -22
-40 -18 -14 5 13 11 26 18 28 15 3 -3 -3 -12 -14 -20z m2353 18 c-20 -2 -52
-2 -70 0 -17 2 0 4 38 4 39 0 53 -2 32 -4z m123 -13 c0 -5 -6 -10 -14 -10 -8
0 -18 5 -21 10 -3 6 3 10 14 10 12 0 21 -4 21 -10z m447 -26 c-3 -3 -12 -4
-19 -1 -8 3 -5 6 6 6 11 1 17 -2 13 -5z m464 -4 c5 0 9 -7 9 -15 0 -21 -14
-19 -36 7 -18 20 -18 21 -1 15 10 -4 23 -7 28 -7z m-3021 -48 c0 -10 -41 -68
-90 -130 -107 -133 -141 -180 -263 -367 -111 -169 -111 -168 -142 -227 -14
-27 -30 -48 -35 -48 -6 0 -10 -11 -10 -24 0 -14 -4 -28 -10 -31 -5 -3 -17 -32
-25 -63 -9 -31 -25 -77 -35 -102 -24 -56 -138 -382 -179 -510 -42 -133 -71
-323 -74 -487 -2 -148 9 -496 20 -602 4 -47 3 -62 -5 -57 -7 4 -12 17 -12 29
0 12 -7 40 -14 62 -60 171 -69 712 -15 891 6 18 14 54 18 80 17 98 176 520
271 720 22 44 48 103 58 130 29 72 195 358 256 439 28 39 59 82 69 97 20 31
199 217 210 218 4 0 7 -8 7 -18z m3183 -29 c22 -15 34 -29 27 -31 -6 -2 -24 7
-38 21 -15 13 -34 27 -42 30 -13 5 -13 6 -1 6 8 1 33 -11 54 -26z m-2573 12
c0 -3 -19 -17 -42 -31 -24 -15 -55 -38 -70 -52 -29 -27 -50 -23 -32 6 20 31
144 98 144 77z m-1035 -34 c-3 -6 -11 -11 -17 -11 -6 0 -6 6 2 15 14 17 26 13
15 -4z m1880 -11 c-3 -5 -11 -10 -16 -10 -6 0 -7 5 -4 10 3 6 11 10 16 10 6 0
7 -4 4 -10z m3205 -10 c0 -5 -4 -10 -10 -10 -5 0 -10 5 -10 10 0 6 5 10 10 10
6 0 10 -4 10 -10z m-5366 -47 c-11 -15 -27 -29 -35 -31 -12 -5 -12 -3 0 12 8
9 11 20 7 23 -4 4 4 12 16 19 31 17 35 9 12 -23z m2026 17 c0 -5 -7 -10 -16
-10 -8 0 -12 5 -9 10 3 6 10 10 16 10 5 0 9 -4 9 -10z m3614 -29 c11 -12 15
-21 10 -21 -10 1 -64 46 -64 55 0 10 34 -12 54 -34z m-5448 -5 c6 -17 -10 -52
-39 -83 -23 -25 -47 -32 -27 -8 11 13 10 14 -4 9 -24 -9 -20 14 10 58 28 39
51 48 60 24z m-231 -36 c3 -5 -1 -10 -10 -10 -9 0 -13 5 -10 10 3 6 8 10 10
10 2 0 7 -4 10 -10z m1925 0 c0 -5 -6 -10 -12 -10 -7 0 -25 -7 -40 -14 -16 -8
-28 -11 -28 -6 0 4 17 15 38 23 46 20 42 19 42 7z m-1788 -103 c-12 -13 -22
-27 -22 -31 0 -18 -35 -82 -51 -94 -10 -7 -32 -38 -50 -70 -70 -125 -93 -125
-30 1 64 125 91 167 105 167 7 0 18 11 24 25 6 14 19 25 29 25 14 0 13 -3 -5
-23z m2198 13 c-8 -5 -19 -10 -25 -10 -5 0 -3 5 5 10 8 5 20 10 25 10 6 0 3
-5 -5 -10z m-1005 -50 c-3 -5 -11 -10 -16 -10 -6 0 -7 5 -4 10 3 6 11 10 16
10 6 0 7 -4 4 -10z m4331 -368 c27 -60 28 -62 14 -62 -5 0 -10 6 -10 13 0 6
-17 35 -38 62 -56 75 -72 102 -64 110 11 11 72 -65 98 -123z m-5196 51 c-5
-10 -21 -45 -35 -78 -15 -33 -42 -91 -60 -130 -19 -38 -55 -129 -81 -202 -48
-137 -74 -181 -74 -126 0 36 46 165 93 259 19 38 56 112 82 164 41 84 70 130
82 130 2 0 -1 -8 -7 -17z m3958 -3 c7 -11 9 -20 4 -20 -4 0 -13 9 -20 20 -7
11 -9 20 -4 20 4 0 13 -9 20 -20z m-4518 -29 c-6 -12 -15 -21 -20 -21 -10 0
-3 28 14 49 15 19 20 -3 6 -28z m1350 -35 c0 -2 -8 -10 -17 -17 -16 -13 -17
-12 -4 4 13 16 21 21 21 13z m-1400 -59 c0 -7 -7 -22 -15 -33 -13 -17 -14 -16
-4 14 11 33 19 41 19 19z m5741 3 c19 -11 59 -79 59 -102 0 -7 -12 5 -27 27
-14 22 -29 42 -32 45 -3 3 -12 13 -20 23 -15 19 -9 22 20 7z m-745 -137 c39
-64 75 -145 120 -270 35 -98 64 -184 64 -191 0 -20 -17 -5 -23 20 -10 47 -98
247 -200 458 -28 58 -53 110 -55 115 -9 25 43 -48 94 -132z m875 -51 c7 -15
13 -31 14 -37 0 -5 3 -12 6 -15 3 -3 22 -38 42 -78 37 -71 46 -112 27 -112 -5
0 -10 5 -10 11 0 6 -18 47 -40 91 -22 44 -40 86 -40 94 0 7 -6 17 -13 21 -8 4
-17 20 -21 35 -8 36 15 29 35 -10z m-5527 -295 c-3 -9 -10 -17 -15 -17 -11 0
-12 34 -2 43 11 12 24 -8 17 -26z m4716 -17 c11 -22 17 -40 13 -40 -7 0 -22
26 -40 68 -13 30 9 8 27 -28z m934 5 c3 -8 1 -15 -4 -15 -6 0 -10 7 -10 15 0
8 2 15 4 15 2 0 6 -7 10 -15z m126 -11 c0 -8 -4 -14 -10 -14 -5 0 -10 9 -10
21 0 11 5 17 10 14 6 -3 10 -13 10 -21z m-5790 -18 c0 -8 -9 -44 -21 -82 -14
-44 -24 -63 -29 -54 -4 7 -4 25 1 39 4 14 13 45 19 69 10 40 30 58 30 28z
m5836 -101 c28 -64 37 -105 24 -105 -11 0 -30 40 -35 75 -2 11 -10 40 -19 64
-18 49 -21 80 -4 41 7 -14 21 -47 34 -75z m-1006 -114 c20 -64 41 -132 45
-151 7 -31 6 -33 -9 -21 -9 7 -16 24 -16 37 0 22 -72 243 -90 276 -6 10 -10
26 -10 35 1 32 41 -56 80 -176z m857 172 c7 -10 21 -35 29 -55 9 -21 20 -38
25 -38 5 0 7 -11 3 -25 -3 -14 -2 -25 3 -25 5 0 6 -21 3 -47 -3 -27 -9 -47
-15 -45 -5 1 -10 5 -11 10 0 4 -13 47 -28 96 -42 134 -45 174 -9 129z m-827
-63 c0 -5 -5 -10 -11 -10 -5 0 -7 5 -4 10 3 6 8 10 11 10 2 0 4 -4 4 -10z
m-4210 -77 c-11 -17 -11 -17 -6 0 3 10 7 28 7 40 2 22 2 22 6 0 2 -12 -1 -30
-7 -40z m5340 -28 c0 -8 -2 -15 -4 -15 -2 0 -6 7 -10 15 -3 8 -1 15 4 15 6 0
10 -7 10 -15z m-6519 -38 c-1 -12 -15 -9 -19 4 -3 6 1 10 8 8 6 -3 11 -8 11
-12z m6410 -50 c-8 -8 -11 -3 -11 19 1 25 2 27 11 11 8 -14 8 -22 0 -30z
m-5985 -172 c-9 -51 -16 -104 -16 -118 0 -25 -24 -44 -35 -27 -5 9 18 173 34
241 27 114 40 40 17 -96z m734 147 c0 -13 -12 -22 -22 -16 -10 6 -1 24 13 24
5 0 9 -4 9 -8z m5263 -64 c5 -39 3 -57 -7 -47 -10 10 -17 89 -8 89 5 0 12 -19
15 -42z m-106 -56 c13 -52 17 -109 6 -98 -11 10 -32 96 -33 130 0 40 12 25 27
-32z m-882 -33 c8 -37 17 -83 19 -101 3 -19 5 -38 6 -43 5 -22 -1 -35 -14 -35
-14 0 -23 41 -33 150 -2 36 -9 69 -14 75 -13 13 -11 22 6 22 9 0 19 -22 30
-68z m-5145 21 c0 -5 -4 -10 -10 -10 -5 0 -10 5 -10 10 0 6 5 10 10 10 6 0 10
-4 10 -10z m828 -57 c-5 -6 -8 -47 -6 -90 2 -46 -1 -79 -7 -80 -12 -3 -13 173
-1 202 l8 20 8 -20 c4 -11 3 -25 -2 -32z m5116 -118 c3 -9 0 -15 -9 -15 -8 0
-15 7 -15 15 0 8 4 15 9 15 5 0 11 -7 15 -15z m-5844 -45 c0 -11 -4 -20 -10
-20 -5 0 -10 9 -10 20 0 11 5 20 10 20 6 0 10 -9 10 -20z m-80 -80 c0 -5 -4
-10 -10 -10 -5 0 -10 5 -10 10 0 6 5 10 10 10 6 0 10 -4 10 -10z m6164 -273
c2 -215 -4 -290 -18 -247 -6 20 -20 389 -18 459 2 30 5 58 9 64 17 28 26 -60
27 -276z m-6081 259 c3 -7 1 -18 -4 -23 -5 -5 -10 -87 -10 -181 -1 -166 -10
-212 -26 -134 -12 57 -9 293 5 325 13 29 27 35 35 13z m-418 -26 c3 -5 -1 -10
-10 -10 -9 0 -13 5 -10 10 3 6 8 10 10 10 2 0 7 -4 10 -10z m125 -70 c0 -5 -7
-10 -15 -10 -8 0 -15 5 -15 10 0 6 7 10 15 10 8 0 15 -4 15 -10z m6670 -125
c0 -8 -4 -15 -10 -15 -5 0 -10 7 -10 15 0 8 5 15 10 15 6 0 10 -7 10 -15z
m-515 -4 c3 -5 1 -12 -5 -16 -5 -3 -10 1 -10 9 0 18 6 21 15 7z m-6255 -15 c0
-3 -4 -8 -10 -11 -5 -3 -10 -1 -10 4 0 6 5 11 10 11 6 0 10 -2 10 -4z m155
-86 c3 -6 -1 -7 -9 -4 -18 7 -21 14 -7 14 6 0 13 -4 16 -10z m315 -226 c0 -8
-4 -12 -10 -9 -5 3 -10 10 -10 16 0 5 5 9 10 9 6 0 10 -7 10 -16z m769 -48
c10 -12 8 -13 -8 -9 -12 3 -21 9 -21 14 0 14 16 11 29 -5z m5291 -167 c0 -50
-4 -99 -10 -109 -6 -12 -6 -28 1 -50 13 -35 9 -43 -15 -34 -18 7 -20 69 -4 91
5 6 9 20 8 30 -6 52 1 163 10 163 6 0 10 -37 10 -91z m-5270 -25 c0 -17 -22
-14 -28 4 -2 7 3 12 12 12 9 0 16 -7 16 -16z m5500 -21 c0 -7 -4 -13 -10 -13
-5 0 -10 12 -10 28 0 21 2 24 10 12 5 -8 10 -21 10 -27z m-6460 2 c0 -8 -4
-15 -10 -15 -5 0 -10 7 -10 15 0 8 5 15 10 15 6 0 10 -7 10 -15z m5863 -5 c-3
-11 -9 -17 -15 -14 -5 3 -4 12 3 20 16 19 18 18 12 -6z m-5603 -36 c0 -8 -4
-12 -10 -9 -5 3 -10 13 -10 21 0 8 5 12 10 9 6 -3 10 -13 10 -21z m5635 -64
c-3 -5 -11 -10 -16 -10 -6 0 -7 5 -4 10 3 6 11 10 16 10 6 0 7 -4 4 -10z
m-120 -50 c-3 -26 -16 -71 -34 -124 -5 -13 -7 -7 -8 18 -1 20 3 39 8 42 5 3 9
14 9 24 0 18 20 70 26 70 2 0 1 -13 -1 -30z m102 14 c-3 -3 -12 -4 -19 -1 -8
3 -5 6 6 6 11 1 17 -2 13 -5z m583 -59 c0 -8 -4 -17 -10 -20 -6 -4 -10 5 -10
20 0 15 4 24 10 20 6 -3 10 -12 10 -20z m-6300 -25 c0 -5 -4 -10 -10 -10 -5 0
-10 5 -10 10 0 6 5 10 10 10 6 0 10 -4 10 -10z m204 -81 c-3 -5 -10 -7 -15 -3
-5 3 -7 10 -3 15 3 5 10 7 15 3 5 -3 7 -10 3 -15z m6073 -41 c-3 -8 -6 -5 -6
6 -1 11 2 17 5 13 3 -3 4 -12 1 -19z m-137 -58 c0 -5 -7 -10 -15 -10 -8 0 -15
5 -15 10 0 6 7 10 15 10 8 0 15 -4 15 -10z m120 -62 c0 -34 -14 -88 -21 -88
-10 0 -12 44 -3 78 7 23 24 31 24 10z m-6589 -73 c27 -47 38 -95 22 -95 -12 0
-93 156 -86 164 10 10 33 -15 64 -69z m6450 -48 c-9 -23 -37 -31 -35 -9 1 6 2
24 3 39 1 25 2 25 20 9 14 -13 17 -24 12 -39z m-21 -321 c0 -3 -4 -8 -10 -11
-5 -3 -10 -1 -10 4 0 6 5 11 10 11 6 0 10 -2 10 -4z m-6345 -196 c9 -16 13
-30 11 -30 -3 0 -12 14 -21 30 -9 17 -13 30 -11 30 3 0 12 -13 21 -30z m455
-65 c0 -13 -22 -3 -55 26 -19 17 -35 39 -35 49 0 14 11 7 45 -26 25 -24 45
-46 45 -49z m-401 -40 c0 -5 -6 1 -14 15 -8 14 -14 30 -14 35 0 6 6 -1 14 -15
8 -14 14 -29 14 -35z m541 -178 c0 -5 -4 -5 -10 -2 -5 3 -10 14 -10 23 0 15 2
15 10 2 5 -8 10 -19 10 -23z m805 -187 c3 -5 2 -10 -4 -10 -5 0 -13 5 -16 10
-3 6 -2 10 4 10 5 0 13 -4 16 -10z m881 -28 c-10 -2 -22 0 -28 6 -6 6 0 7 19
4 21 -5 23 -7 9 -10z m224 -12 c13 -9 13 -10 0 -10 -8 0 -22 5 -30 10 -13 9
-13 10 0 10 8 0 22 -5 30 -10z m-344 -54 c122 -42 172 -56 203 -56 28 0 71
-25 71 -41 0 -9 -215 48 -251 66 -15 8 -33 15 -38 15 -6 0 -25 9 -43 20 -44
26 -26 25 58 -4z m-1356 -107 c50 -50 60 -69 39 -69 -11 0 -85 77 -102 106
-18 31 16 11 63 -37z m541 -215 c12 -14 11 -16 -5 -13 -11 2 -21 10 -24 17 -5
17 13 15 29 -4z m3249 -48 c0 -2 -7 -6 -15 -10 -8 -3 -15 -1 -15 4 0 6 7 10
15 10 8 0 15 -2 15 -4z m56 -192 c2 -10 -3 -14 -11 -10 -8 3 -17 1 -20 -5 -4
-5 -3 -8 2 -7 4 2 9 -1 11 -7 1 -5 -8 -9 -20 -9 -14 0 -24 7 -26 17 -2 10 3
17 11 17 8 0 20 7 27 15 14 17 23 13 26 -11z m-2666 6 c0 -5 -2 -10 -4 -10 -3
0 -8 5 -11 10 -3 6 -1 10 4 10 6 0 11 -4 11 -10z m16 -107 c-7 -7 -26 7 -26
19 0 6 6 6 15 -2 9 -7 13 -15 11 -17z m135 -43 c22 -12 37 -25 34 -30 -6 -9
-105 34 -105 45 0 11 33 4 71 -15z m2299 -10 c-8 -5 -17 -7 -19 -4 -3 3 1 9 9
14 8 5 17 7 19 4 3 -3 -1 -9 -9 -14z m-2090 -53 c41 -10 84 -22 95 -27 21 -9
258 -63 333 -75 23 -4 42 -11 42 -16 0 -5 -12 -7 -27 -4 -16 3 -57 10 -93 16
-105 17 -425 99 -454 116 -4 3 -2 9 5 14 7 4 16 5 19 1 3 -4 39 -15 80 -25z
m343 -14 c52 -5 77 -16 64 -29 -6 -7 -198 25 -222 37 -20 9 6 8 158 -8z m-362
-41 c-7 -2 -18 1 -23 6 -8 8 -4 9 13 5 13 -4 18 -8 10 -11z m1914 -2 c-3 -5
-14 -10 -23 -10 -15 0 -15 2 -2 10 20 13 33 13 25 0z m-1780 -30 c13 -5 14 -9
5 -9 -8 0 -24 4 -35 9 -13 5 -14 9 -5 9 8 0 24 -4 35 -9z m402 -36 c-3 -3 -12
-4 -19 -1 -8 3 -5 6 6 6 11 1 17 -2 13 -5z m-1196 -68 c46 -24 96 -46 112 -50
27 -6 38 -26 14 -26 -22 0 -217 99 -217 110 0 14 -2 15 91 -34z m2174 4 c-3
-5 -23 -9 -43 -9 l-37 2 35 7 c52 11 52 11 45 0z m-1459 -54 c13 -10 16 -18 8
-25 -7 -8 -17 -4 -34 14 -26 28 -8 36 26 11z m1649 4 c-11 -5 -29 -9 -40 -9
-17 -1 -17 1 -5 9 8 5 26 9 40 9 23 0 23 -1 5 -9z m-1485 -20 c218 -34 553
-62 659 -56 162 10 194 -14 49 -34 -115 -17 -287 -17 -393 0 -44 7 -91 12
-105 12 -56 -2 -300 63 -300 80 0 10 10 10 90 -2z m-519 -72 c72 -29 127 -54
122 -55 -13 -5 -178 44 -230 67 -39 17 -58 40 -33 40 5 0 68 -23 141 -52z"/>
<path d="M5748 8343 c7 -3 16 -2 19 1 4 3 -2 6 -13 5 -11 0 -14 -3 -6 -6z"/>
<path d="M6140 8234 c0 -10 26 -31 48 -38 12 -4 22 -4 22 1 -1 9 -70 46 -70
37z"/>
<path d="M6340 8150 c0 -5 7 -10 16 -10 8 0 12 5 9 10 -3 6 -10 10 -16 10 -5
0 -9 -4 -9 -10z"/>
<path d="M6450 8078 c0 -16 48 -39 55 -28 5 9 -32 40 -47 40 -5 0 -8 -6 -8
-12z"/>
<path d="M4470 8770 l-25 -8 25 0 c14 0 34 3 45 8 l20 9 -20 -1 c-11 0 -31 -4
-45 -8z"/>
<path d="M4400 8760 c-21 -7 -21 -8 -5 -9 11 0 27 4 35 9 18 11 5 11 -30 0z"/>
<path d="M4275 8724 c-33 -14 -49 -22 -35 -20 79 16 130 31 130 38 0 14 -33 8
-95 -18z"/>
<path d="M5486 8682 c-9 -15 36 -32 94 -37 110 -9 157 -16 240 -39 123 -34
230 -50 242 -38 34 34 -324 121 -499 122 -39 0 -74 -4 -77 -8z"/>
<path d="M6102 8685 c9 -10 88 -13 94 -4 3 5 -18 9 -47 9 -29 0 -50 -2 -47 -5z"/>
<path d="M6285 8670 c11 -4 79 -24 150 -44 313 -88 538 -197 880 -426 146 -98
282 -209 430 -350 135 -130 175 -159 175 -129 0 15 -296 305 -410 400 -227
192 -566 387 -809 468 -113 38 -197 58 -316 77 -102 15 -130 17 -100 4z"/>
<path d="M6515 8530 c3 -5 14 -10 24 -10 47 0 322 -126 514 -235 26 -15 47
-22 47 -16 0 6 -4 11 -9 11 -5 0 -31 15 -57 33 -112 76 -301 166 -439 208 -68
21 -89 24 -80 9z"/>
<path d="M7150 8242 c0 -10 33 -33 239 -167 56 -37 135 -97 175 -132 98 -90
145 -121 86 -59 -64 68 -177 158 -310 245 -160 106 -190 124 -190 113z"/>
<path d="M5368 7643 c7 -3 16 -2 19 1 4 3 -2 6 -13 5 -11 0 -14 -3 -6 -6z"/>
<path d="M8035 7600 c10 -19 34 -49 54 -67 21 -17 50 -50 66 -73 16 -23 31
-37 33 -31 6 18 -39 78 -109 146 -56 55 -60 57 -44 25z"/>
<path d="M2425 7585 c-24 -20 -27 -27 -17 -37 11 -11 18 -8 38 15 42 49 29 63
-21 22z"/>
<path d="M8235 7390 c3 -5 8 -10 11 -10 2 0 4 5 4 10 0 6 -5 10 -11 10 -5 0
-7 -4 -4 -10z"/>
<path d="M5317 7354 c3 -8 16 -14 29 -14 32 0 30 6 -5 18 -25 9 -29 8 -24 -4z"/>
<path d="M8269 7336 c19 -33 105 -151 124 -171 15 -14 -43 86 -62 110 -9 11
-23 31 -30 45 -7 14 -21 31 -31 38 -19 12 -19 11 -1 -22z"/>
<path d="M5590 7340 c0 -5 5 -10 11 -10 5 0 7 5 4 10 -3 6 -8 10 -11 10 -2 0
-4 -4 -4 -10z"/>
<path d="M5408 7319 c18 -12 36 -19 39 -15 11 10 -11 26 -43 32 l-29 4 33 -21z"/>
<path d="M5245 7290 c4 -7 1 -16 -6 -21 -11 -6 -8 -9 8 -9 31 0 38 17 12 30
-17 9 -20 9 -14 0z"/>
<path d="M5153 7273 c9 -2 23 -2 30 0 6 3 -1 5 -18 5 -16 0 -22 -2 -12 -5z"/>
<path d="M8235 7233 c3 -15 19 -40 34 -55 l28 -29 -11 43 c-14 54 -23 68 -43
68 -11 0 -14 -6 -8 -27z"/>
<path d="M5826 7239 c3 -5 11 -9 17 -9 7 0 29 -9 50 -20 20 -11 41 -20 47 -20
5 0 33 -14 62 -31 71 -43 112 -66 178 -101 76 -41 174 -112 240 -173 30 -28
64 -57 75 -65 18 -14 18 -14 5 6 -17 24 -104 104 -168 154 -54 41 -371 220
-391 220 -8 0 -22 6 -30 13 -20 16 -93 39 -85 26z"/>
<path d="M4934 7209 c26 -6 43 -6 50 1 7 7 -6 10 -39 9 l-50 -1 39 -9z"/>
<path d="M4728 7198 c9 -9 15 -9 24 0 9 9 7 12 -12 12 -19 0 -21 -3 -12 -12z"/>
<path d="M4858 7198 c9 -9 15 -9 24 0 9 9 7 12 -12 12 -19 0 -21 -3 -12 -12z"/>
<path d="M5690 7167 c0 -3 66 -31 148 -62 173 -68 302 -132 380 -190 59 -43
314 -280 321 -298 2 -5 -6 -17 -19 -27 l-22 -16 51 -65 c28 -35 61 -75 74 -89
37 -38 82 -109 107 -168 12 -29 28 -56 35 -60 14 -8 70 -117 109 -212 15 -36
31 -74 36 -85 18 -42 54 -161 54 -180 0 -11 3 -22 6 -25 4 -3 17 -45 30 -95
23 -93 46 -140 36 -75 -3 19 -8 73 -11 119 -3 46 -10 90 -15 96 -5 7 -7 15 -4
18 4 4 -1 17 -9 31 -10 15 -12 26 -6 28 7 2 6 13 -2 33 -14 34 -19 95 -9 95 4
0 13 -13 19 -28 13 -32 57 -82 71 -82 13 0 13 4 -6 48 -9 20 -24 62 -34 92
-29 87 -69 191 -96 247 -13 28 -24 55 -24 59 0 9 -81 107 -92 112 -5 2 -8 8
-8 14 0 5 -11 24 -25 42 -14 18 -25 38 -25 43 0 6 -7 16 -14 23 -8 6 -24 31
-36 54 -11 24 -30 52 -42 62 l-21 19 17 -32 c9 -17 20 -35 26 -38 5 -3 10 -16
10 -28 0 -21 -1 -21 -13 3 -7 13 -35 41 -62 62 -27 21 -52 43 -54 50 -4 12
-116 128 -124 128 -1 0 -28 25 -60 54 -128 121 -304 229 -472 289 -63 22 -225
47 -225 34z"/>
<path d="M4503 7149 c-18 -5 -33 -12 -33 -15 0 -9 53 5 65 17 10 10 11 10 -32
-2z"/>
<path d="M4415 7120 c-3 -5 -1 -10 4 -10 6 0 11 5 11 10 0 6 -2 10 -4 10 -3 0
-8 -4 -11 -10z"/>
<path d="M8436 7101 c-5 -7 0 -21 10 -32 33 -37 47 -18 16 22 -14 16 -21 19
-26 10z"/>
<path d="M4277 7075 c-89 -33 -256 -130 -244 -142 3 -2 62 23 132 56 70 34
130 61 133 61 4 0 18 9 32 20 23 18 23 20 5 19 -11 0 -37 -7 -58 -14z"/>
<path d="M8390 6981 c0 -7 11 -27 24 -44 14 -18 30 -43 35 -57 6 -14 38 -77
71 -140 33 -63 59 -121 60 -127 0 -7 5 -13 10 -13 6 0 10 -6 10 -13 0 -7 9
-30 20 -52 11 -22 20 -47 20 -57 0 -9 5 -20 11 -24 17 -10 2 64 -21 101 -9 17
-25 54 -35 83 -9 29 -24 60 -33 69 -10 9 -16 19 -15 22 1 3 -18 43 -42 88 -25
46 -45 87 -45 92 0 5 -7 12 -16 15 -8 3 -13 10 -10 14 3 5 -6 20 -19 32 -14
13 -25 18 -25 11z"/>
<path d="M8504 6953 c12 -30 51 -83 54 -74 2 5 -8 28 -23 50 -26 42 -42 54
-31 24z"/>
<path d="M3810 6909 c0 -5 5 -7 10 -4 6 3 10 8 10 11 0 2 -4 4 -10 4 -5 0 -10
-5 -10 -11z"/>
<path d="M3958 6900 c-34 -18 -58 -40 -43 -40 7 0 85 51 85 56 0 6 -1 5 -42
-16z"/>
<path d="M1945 6890 c-3 -5 -1 -10 4 -10 6 0 11 5 11 10 0 6 -2 10 -4 10 -3 0
-8 -4 -11 -10z"/>
<path d="M6155 6843 c17 -9 55 -35 85 -58 91 -68 120 -87 120 -76 0 21 -191
151 -221 151 -8 -1 0 -8 16 -17z"/>
<path d="M3839 6831 c-19 -10 -36 -27 -38 -37 -3 -17 15 -7 78 43 2 2 2 5 0 8
-3 2 -21 -4 -40 -14z"/>
<path d="M8584 6793 c4 -16 7 -35 8 -43 0 -8 8 -24 18 -35 9 -11 28 -39 41
-63 32 -59 36 -36 6 30 -14 29 -31 70 -38 90 -16 46 -45 63 -35 21z"/>
<path d="M8360 6710 c0 -5 5 -10 11 -10 5 0 7 5 4 10 -3 6 -8 10 -11 10 -2 0
-4 -4 -4 -10z"/>
<path d="M8400 6636 c0 -19 3 -36 8 -38 12 -5 42 -65 42 -85 0 -11 7 -28 15
-39 14 -19 14 -19 16 1 1 11 0 28 -1 38 -1 10 4 25 11 33 10 12 7 21 -18 47
-17 18 -36 42 -42 55 -17 32 -31 27 -31 -12z"/>
<path d="M8530 6500 c0 -5 5 -10 11 -10 5 0 7 5 4 10 -3 6 -8 10 -11 10 -2 0
-4 -4 -4 -10z"/>
<path d="M8580 6485 c0 -9 6 -12 15 -9 8 4 15 10 15 15 0 5 -7 9 -15 9 -8 0
-15 -7 -15 -15z"/>
<path d="M8495 6463 c1 -10 7 -31 13 -46 7 -16 12 -35 12 -43 0 -8 4 -14 8
-14 5 0 14 -10 20 -22 20 -42 12 5 -8 51 -11 24 -20 49 -20 56 0 7 -6 18 -14
24 -10 9 -13 7 -11 -6z"/>
<path d="M8652 6428 c5 -15 28 -23 28 -10 0 5 -7 13 -16 16 -10 4 -14 1 -12
-6z"/>
<path d="M8480 6380 c0 -8 5 -22 10 -30 9 -13 10 -13 10 0 0 8 -5 22 -10 30
-9 13 -10 13 -10 0z"/>
<path d="M8618 6323 c-10 -2 -18 -10 -18 -18 0 -8 7 -11 20 -8 11 3 20 12 20
19 0 8 -1 13 -2 13 -2 -1 -11 -3 -20 -6z"/>
<path d="M8767 6310 c3 -11 9 -17 14 -15 10 7 1 35 -11 35 -5 0 -6 -9 -3 -20z"/>
<path d="M1726 6311 c-4 -6 -5 -11 -2 -11 3 0 -1 -18 -9 -40 -17 -49 -5 -53
20 -7 13 25 15 39 8 52 -7 12 -13 14 -17 6z"/>
<path d="M8566 6290 c4 -8 11 -30 15 -50 7 -35 7 -35 8 -4 0 16 -6 39 -15 50
-8 10 -12 12 -8 4z"/>
<path d="M1691 6185 c-2 -5 -4 -30 -6 -55 -2 -25 -1 -35 2 -22 2 12 11 22 19
22 8 0 14 5 14 11 0 5 -4 8 -9 4 -5 -3 -12 7 -14 22 -2 16 -5 24 -6 18z"/>
<path d="M8697 6184 c-8 -8 1 -24 14 -24 5 0 9 7 9 15 0 15 -12 20 -23 9z"/>
<path d="M8860 6175 c0 -8 4 -15 10 -15 5 0 7 7 4 15 -4 8 -8 15 -10 15 -2 0
-4 -7 -4 -15z"/>
<path d="M8604 6153 c-1 -10 -3 -25 -6 -33 -3 -8 -3 -12 -1 -7 3 4 11 7 19 7
17 0 18 11 1 34 -12 16 -13 16 -13 -1z"/>
<path d="M8560 6110 c0 -11 4 -20 9 -20 5 0 7 9 4 20 -3 11 -7 20 -9 20 -2 0
-4 -9 -4 -20z"/>
<path d="M1666 6063 c-6 -22 -6 -116 0 -110 7 7 17 127 11 127 -3 0 -8 -8 -11
-17z"/>
<path d="M1416 6004 c-15 -44 -23 -124 -11 -112 8 8 37 150 32 155 -3 2 -12
-17 -21 -43z"/>
<path d="M8725 6040 c3 -5 8 -10 11 -10 2 0 4 5 4 10 0 6 -5 10 -11 10 -5 0
-7 -4 -4 -10z"/>
<path d="M8760 6044 c0 -3 6 -12 14 -20 18 -18 26 -18 26 0 0 8 -7 17 -16 20
-19 7 -24 8 -24 0z"/>
<path d="M8623 6024 c-14 -15 -3 -27 14 -16 7 4 9 13 5 19 -5 8 -11 7 -19 -3z"/>
<path d="M8650 5960 c0 -5 10 -15 23 -21 22 -12 22 -12 3 10 -21 23 -26 26
-26 11z"/>
<path d="M8850 5960 c0 -5 5 -10 11 -10 5 0 7 5 4 10 -3 6 -8 10 -11 10 -2 0
-4 -4 -4 -10z"/>
<path d="M7076 5934 c14 -42 36 -85 41 -80 8 8 -17 73 -33 87 -12 10 -13 9 -8
-7z"/>
<path d="M8778 5942 c-10 -2 -18 -10 -18 -18 0 -18 8 -18 27 1 18 18 15 23 -9
17z"/>
<path d="M6870 5900 c0 -5 5 -10 11 -10 5 0 7 5 4 10 -3 6 -8 10 -11 10 -2 0
-4 -4 -4 -10z"/>
<path d="M8722 5830 c0 -14 2 -19 5 -12 2 6 2 18 0 25 -3 6 -5 1 -5 -13z"/>
<path d="M8620 5830 c0 -5 5 -10 11 -10 5 0 7 5 4 10 -3 6 -8 10 -11 10 -2 0
-4 -4 -4 -10z"/>
<path d="M1372 5814 c-1 -12 -5 -37 -8 -55 -4 -28 -3 -31 6 -16 6 9 9 34 7 55
-2 20 -4 27 -5 16z"/>
<path d="M7140 5695 c0 -8 4 -15 8 -15 5 0 9 7 9 15 0 8 -4 15 -9 15 -4 0 -8
-7 -8 -15z"/>
<path d="M8790 5670 c0 -5 5 -10 10 -10 6 0 10 5 10 10 0 6 -4 10 -10 10 -5 0
-10 -4 -10 -10z"/>
<path d="M8834 5596 c-4 -16 -4 -90 0 -165 12 -227 6 -518 -13 -596 -4 -16 -6
-56 -5 -87 2 -44 -1 -58 -12 -58 -16 0 -18 -14 -4 -40 7 -13 5 -40 -4 -87 -8
-37 -19 -102 -25 -143 -11 -83 -19 -122 -63 -320 -43 -189 -55 -236 -67 -259
-14 -24 -14 -38 -2 -25 10 9 68 160 78 202 3 12 9 22 13 22 4 0 10 15 12 33 6
37 83 348 99 392 5 17 13 64 16 105 3 41 12 85 20 97 11 17 12 30 3 62 -9 33
-8 45 4 63 10 15 12 28 6 38 -5 8 -7 24 -5 35 4 18 17 246 18 320 1 112 -33
390 -53 425 -7 11 -10 8 -16 -14z"/>
<path d="M7086 5583 c-11 -11 -6 -23 9 -23 8 0 15 4 15 9 0 13 -16 22 -24 14z"/>
<path d="M1446 5532 c-4 -13 -5 -26 -2 -29 10 -11 18 4 14 29 l-4 23 -8 -23z"/>
<path d="M6961 5504 c0 -11 3 -14 6 -6 3 7 2 16 -1 19 -3 4 -6 -2 -5 -13z"/>
<path d="M8697 5513 c-4 -3 -7 -11 -7 -17 0 -6 5 -5 12 2 6 6 9 14 7 17 -3 3
-9 2 -12 -2z"/>
<path d="M7175 5500 c-3 -5 1 -10 10 -10 9 0 13 5 10 10 -3 6 -8 10 -10 10 -2
0 -7 -4 -10 -10z"/>
<path d="M6970 5459 c0 -13 5 -31 10 -39 7 -11 8 -5 4 20 -8 43 -14 51 -14 19z"/>
<path d="M7095 5450 c3 -5 8 -10 11 -10 2 0 4 5 4 10 0 6 -5 10 -11 10 -5 0
-7 -4 -4 -10z"/>
<path d="M1336 5383 c-8 -37 -13 -70 -11 -73 2 -4 -3 -44 -11 -91 -8 -46 -12
-90 -9 -97 3 -8 2 -19 -2 -25 -4 -7 -8 -84 -9 -172 -1 -148 16 -327 46 -490 5
-27 9 -72 9 -98 1 -27 6 -57 11 -67 6 -10 11 -38 11 -62 2 -72 106 -413 176
-578 90 -210 228 -452 314 -550 l30 -35 -32 70 c-18 39 -57 115 -87 169 -103
186 -207 436 -257 614 -9 31 -20 66 -24 77 -13 28 -41 155 -41 182 0 12 -4 25
-10 28 -5 3 -10 21 -10 38 0 18 -9 59 -19 92 -26 84 -52 371 -49 550 1 90 0
145 -3 240 0 17 4 71 10 120 17 142 14 225 -9 225 -5 0 -15 -30 -24 -67z"/>
<path d="M6922 5390 c0 -14 2 -19 5 -12 2 6 2 18 0 25 -3 6 -5 1 -5 -13z"/>
<path d="M6980 5380 c0 -11 4 -20 9 -20 5 0 7 9 4 20 -3 11 -7 20 -9 20 -2 0
-4 -9 -4 -20z"/>
<path d="M7091 5381 c-11 -7 -11 -13 3 -32 l16 -23 0 32 c0 36 0 35 -19 23z"/>
<path d="M8725 5370 c3 -5 8 -10 11 -10 2 0 4 5 4 10 0 6 -5 10 -11 10 -5 0
-7 -4 -4 -10z"/>
<path d="M7052 5349 c2 -6 8 -10 13 -10 5 0 11 4 13 10 2 6 -4 11 -13 11 -9 0
-15 -5 -13 -11z"/>
<path d="M6990 5326 c0 -14 4 -27 8 -30 5 -3 6 8 4 25 -5 35 -12 38 -12 5z"/>
<path d="M1427 5293 c-10 -18 -18 -88 -9 -78 5 6 12 27 15 48 5 35 3 46 -6 30z"/>
<path d="M8780 5237 c0 -20 5 -37 10 -37 16 0 16 47 -1 65 -5 5 -9 -5 -9 -28z"/>
<path d="M8762 5120 c0 -14 2 -19 5 -12 2 6 2 18 0 25 -3 6 -5 1 -5 -13z"/>
<path d="M8810 5110 c0 -11 5 -20 10 -20 6 0 10 9 10 20 0 11 -4 20 -10 20 -5
0 -10 -9 -10 -20z"/>
<path d="M1630 5103 c0 -10 5 -25 10 -33 8 -12 10 -9 10 12 0 15 -4 30 -10 33
-5 3 -10 -2 -10 -12z"/>
<path d="M7647 5043 c-10 -9 -8 -95 1 -111 5 -7 9 15 10 53 2 65 1 71 -11 58z"/>
<path d="M7251 5023 c0 -6 -4 -20 -7 -30 -5 -14 -4 -15 5 -7 7 7 11 20 8 30
-3 11 -5 14 -6 7z"/>
<path d="M7271 4857 c-11 -127 -40 -314 -57 -374 -4 -13 -2 -23 4 -23 9 0 20
31 27 75 1 6 3 12 4 15 2 3 4 14 5 25 2 11 10 66 20 122 9 55 13 109 9 119 -4
12 -3 15 6 10 9 -6 10 13 7 80 -3 47 -7 88 -9 90 -2 2 -9 -61 -16 -139z"/>
<path d="M7330 4990 c0 -5 5 -10 10 -10 6 0 10 5 10 10 0 6 -4 10 -10 10 -5 0
-10 -4 -10 -10z"/>
<path d="M7421 4984 c0 -11 3 -14 6 -6 3 7 2 16 -1 19 -3 4 -6 -2 -5 -13z"/>
<path d="M7239 4934 c0 -21 -2 -52 -4 -69 -2 -16 -9 -75 -15 -130 -13 -107
-45 -244 -87 -363 -14 -40 -23 -76 -19 -79 3 -3 10 7 16 22 15 39 60 178 65
201 2 11 11 47 20 82 14 59 38 272 37 336 -1 44 -12 44 -13 0z"/>
<path d="M1460 4856 c0 -14 5 -26 10 -26 6 0 10 9 10 19 0 11 -4 23 -10 26 -6
4 -10 -5 -10 -19z"/>
<path d="M7332 4869 c2 -7 10 -15 17 -17 8 -3 12 1 9 9 -2 7 -10 15 -17 17 -8
3 -12 -1 -9 -9z"/>
<path d="M7641 4841 c-1 -27 2 -32 11 -23 8 8 8 17 0 34 -10 22 -11 21 -11
-11z"/>
<path d="M7636 4775 c-3 -8 -1 -15 4 -15 6 0 10 7 10 15 0 8 -2 15 -4 15 -2 0
-6 -7 -10 -15z"/>
<path d="M8732 4697 c-1 -45 -6 -95 -11 -112 -20 -64 -23 -105 -8 -105 28 0
41 52 41 178 1 139 -17 173 -22 39z"/>
<path d="M7795 4730 c3 -5 8 -10 11 -10 2 0 4 5 4 10 0 6 -5 10 -11 10 -5 0
-7 -4 -4 -10z"/>
<path d="M7750 4650 c0 -5 5 -10 11 -10 5 0 7 5 4 10 -3 6 -8 10 -11 10 -2 0
-4 -4 -4 -10z"/>
<path d="M8906 4615 c-3 -9 -6 -27 -6 -39 0 -12 -4 -26 -9 -31 -4 -6 -11 -26
-15 -45 -4 -20 -3 -30 2 -25 12 13 46 144 40 151 -3 2 -8 -2 -12 -11z"/>
<path d="M3154 4519 c8 -82 37 -174 77 -240 17 -27 32 -49 34 -49 2 0 -7 33
-19 73 -45 142 -66 214 -66 228 0 8 -7 24 -16 35 -14 18 -15 14 -10 -47z"/>
<path d="M7417 4553 c-4 -3 -7 -18 -7 -31 0 -32 11 -23 14 12 3 28 3 30 -7 19z"/>
<path d="M7630 4479 c0 -5 5 -7 10 -4 6 3 10 8 10 11 0 2 -4 4 -10 4 -5 0 -10
-5 -10 -11z"/>
<path d="M7260 4455 c0 -8 2 -15 4 -15 2 0 6 7 10 15 3 8 1 15 -4 15 -6 0 -10
-7 -10 -15z"/>
<path d="M1437 4419 c7 -50 32 -109 32 -74 1 31 -16 96 -27 107 -7 7 -9 -4 -5
-33z"/>
<path d="M7195 4414 c-9 -22 -23 -61 -30 -89 -8 -27 -19 -67 -25 -88 -6 -22
-9 -41 -7 -44 3 -2 23 53 46 123 40 125 48 174 16 98z"/>
<path d="M8856 4434 c-4 -9 -4 -19 -1 -22 2 -3 7 3 11 12 4 9 4 19 1 22 -2 3
-7 -3 -11 -12z"/>
<path d="M7745 4420 c3 -5 8 -10 11 -10 2 0 4 5 4 10 0 6 -5 10 -11 10 -5 0
-7 -4 -4 -10z"/>
<path d="M7098 4265 c-3 -11 -9 -29 -13 -40 -6 -17 -5 -17 9 3 10 12 16 30 14
40 -3 15 -5 14 -10 -3z"/>
<path d="M7032 4114 c-18 -37 -31 -69 -28 -72 3 -3 20 25 37 63 39 87 33 94
-9 9z"/>
<path d="M7097 4133 c-4 -3 -7 -13 -7 -22 1 -13 3 -13 11 2 11 19 8 33 -4 20z"/>
<path d="M6975 3998 l-16 -33 20 25 c20 24 26 40 16 40 -2 0 -12 -15 -20 -32z"/>
<path d="M1550 3973 c0 -55 113 -335 199 -493 32 -58 60 -112 64 -120 4 -10 6
-8 6 7 1 12 -31 88 -69 169 -39 81 -81 177 -94 213 -47 130 -106 255 -106 224z"/>
<path d="M3404 3923 c4 -16 24 -52 44 -82 20 -29 51 -76 68 -103 18 -27 46
-66 63 -86 l32 -37 -27 55 c-45 89 -164 280 -176 280 -6 0 -8 -11 -4 -27z"/>
<path d="M7308 3739 c-98 -124 -143 -189 -119 -175 6 4 33 37 60 74 56 76 70
94 104 137 36 47 69 95 64 95 -3 0 -52 -59 -109 -131z"/>
<path d="M8130 3828 c0 -12 -69 -194 -101 -265 -42 -94 -15 -80 36 19 63 122
103 258 75 258 -5 0 -10 -5 -10 -12z"/>
<path d="M8717 3820 c-3 -11 -1 -23 4 -26 5 -3 9 6 9 20 0 31 -6 34 -13 6z"/>
<path d="M7680 3785 c0 -8 2 -15 4 -15 2 0 6 7 10 15 3 8 1 15 -4 15 -6 0 -10
-7 -10 -15z"/>
<path d="M7461 3784 c0 -5 -28 -56 -62 -113 -33 -56 -58 -105 -55 -108 5 -5
96 130 96 143 0 4 7 15 16 25 9 10 14 28 11 41 -2 13 -5 18 -6 12z"/>
<path d="M8690 3758 c-26 -63 -92 -245 -93 -260 -4 -40 19 -18 55 52 35 68 55
125 72 203 8 34 -20 38 -34 5z"/>
<path d="M7651 3724 c-24 -41 -12 -37 19 6 12 17 17 30 12 30 -6 0 -19 -16
-31 -36z"/>
<path d="M8436 3578 c-8 -32 -8 -38 3 -38 14 0 24 41 13 52 -6 6 -12 1 -16
-14z"/>
<path d="M8260 3580 c0 -5 5 -10 10 -10 6 0 10 5 10 10 0 6 -4 10 -10 10 -5 0
-10 -4 -10 -10z"/>
<path d="M8396 3468 c-8 -12 -23 -46 -32 -77 -9 -31 -28 -91 -41 -134 -30 -93
-25 -111 8 -30 13 32 38 86 56 121 50 96 57 189 9 120z"/>
<path d="M3900 3365 c0 -17 29 -37 200 -133 189 -106 370 -172 490 -177 19 -1
49 -5 65 -8 21 -5 37 -3 50 7 18 13 18 16 5 30 -8 8 -85 32 -170 55 -236 61
-390 115 -521 181 -85 42 -119 56 -119 45z"/>
<path d="M8426 3344 c-4 -9 -4 -19 -2 -21 8 -8 26 8 26 23 0 19 -16 18 -24 -2z"/>
<path d="M1970 3263 c0 -5 7 -18 15 -29 13 -18 14 -18 8 4 -5 22 -23 41 -23
25z"/>
<path d="M7233 3100 c-78 -77 -147 -140 -152 -140 -17 0 -52 -33 -41 -40 5 -3
-19 -23 -52 -45 -65 -43 -93 -68 -110 -100 -9 -17 -9 -18 3 -9 8 6 55 41 104
79 87 65 329 300 374 364 12 17 21 31 19 31 -2 0 -67 -63 -145 -140z"/>
<path d="M7210 3165 c-8 -9 -8 -15 -2 -15 12 0 26 19 19 26 -2 2 -10 -2 -17
-11z"/>
<path d="M1910 3114 c39 -65 50 -79 50 -66 0 16 -45 88 -62 98 -6 4 -1 -10 12
-32z"/>
<path d="M6383 3088 c-121 -63 -155 -85 -72 -49 94 40 175 80 194 95 40 31 -2
15 -122 -46z"/>
<path d="M8365 3130 c-3 -5 -3 -15 1 -21 6 -11 23 6 24 24 0 10 -18 9 -25 -3z"/>
<path d="M6135 3085 c-43 -13 -167 -76 -162 -81 3 -3 54 18 212 86 31 13 -4
10 -50 -5z"/>
<path d="M4820 3050 c19 -4 47 -11 63 -15 16 -4 27 -3 27 3 0 10 -59 22 -100
21 -19 -1 -17 -3 10 -9z"/>
<path d="M5655 3040 c-3 -5 -1 -10 4 -10 6 0 11 5 11 10 0 6 -2 10 -4 10 -3 0
-8 -4 -11 -10z"/>
<path d="M5600 3030 c-13 -8 -12 -10 3 -10 9 0 17 5 17 10 0 12 -1 12 -20 0z"/>
<path d="M6210 2991 c-51 -21 -68 -46 -23 -35 53 13 73 24 73 39 0 8 -1 15 -2
14 -2 0 -23 -8 -48 -18z"/>
<path d="M7230 2999 c0 -5 5 -7 10 -4 6 3 10 8 10 11 0 2 -4 4 -10 4 -5 0 -10
-5 -10 -11z"/>
<path d="M7211 2984 c0 -11 3 -14 6 -6 3 7 2 16 -1 19 -3 4 -6 -2 -5 -13z"/>
<path d="M4858 2958 c9 -9 15 -9 24 0 9 9 7 12 -12 12 -19 0 -21 -3 -12 -12z"/>
<path d="M7179 2963 c-1 -5 -1 -11 0 -15 0 -5 -3 -8 -9 -8 -5 0 -10 -5 -10
-11 0 -8 5 -8 15 1 8 7 13 16 10 20 -3 5 1 11 7 13 10 4 10 6 1 6 -7 1 -14 -2
-14 -6z"/>
<path d="M2066 2933 c8 -32 91 -153 110 -160 8 -3 11 -9 8 -14 -3 -5 -1 -9 4
-9 5 0 13 -9 18 -19 16 -34 76 -104 156 -182 86 -84 108 -80 28 5 -27 29 -50
58 -50 64 0 6 -4 12 -8 14 -15 6 -192 218 -229 273 -19 30 -38 55 -40 55 -2 0
0 -12 3 -27z"/>
<path d="M4925 2950 c11 -5 29 -8 40 -8 16 0 15 2 -5 8 -34 11 -60 11 -35 0z"/>
<path d="M7447 2953 c-4 -3 -7 -11 -7 -17 0 -6 5 -5 12 2 6 6 9 14 7 17 -3 3
-9 2 -12 -2z"/>
<path d="M5055 2940 c4 -6 11 -8 16 -5 14 9 11 15 -7 15 -8 0 -12 -5 -9 -10z"/>
<path d="M7200 2923 c0 -5 -10 -15 -22 -21 -17 -8 -18 -11 -7 -11 19 -1 45 26
35 36 -3 3 -6 2 -6 -4z"/>
<path d="M5640 2900 c0 -5 5 -10 10 -10 6 0 10 5 10 10 0 6 -4 10 -10 10 -5 0
-10 -4 -10 -10z"/>
<path d="M7255 2880 c-16 -17 -26 -30 -22 -30 9 0 59 51 54 56 -2 2 -16 -10
-32 -26z"/>
<path d="M1980 2891 c0 -5 5 -13 10 -16 6 -3 10 -2 10 4 0 5 -4 13 -10 16 -5
3 -10 2 -10 -4z"/>
<path d="M5605 2890 c-3 -5 -1 -10 4 -10 6 0 11 5 11 10 0 6 -2 10 -4 10 -3 0
-8 -4 -11 -10z"/>
<path d="M6863 2878 c-18 -13 -33 -27 -33 -31 0 -9 56 28 65 43 9 15 3 12 -32
-12z"/>
<path d="M7090 2885 c-11 -13 -10 -14 4 -9 9 3 16 10 16 15 0 13 -6 11 -20 -6z"/>
<path d="M5785 2850 c-3 -5 3 -10 14 -10 11 0 23 5 26 10 3 6 -3 10 -14 10
-11 0 -23 -4 -26 -10z"/>
<path d="M7175 2820 c-3 -5 -2 -10 4 -10 5 0 13 5 16 10 3 6 2 10 -4 10 -5 0
-13 -4 -16 -10z"/>
<path d="M5335 2800 c-3 -6 1 -7 9 -4 18 7 21 14 7 14 -6 0 -13 -4 -16 -10z"/>
<path d="M5240 2790 l-35 -7 40 -2 c22 0 47 4 55 9 12 8 11 9 -5 9 -11 -1 -36
-5 -55 -9z"/>
<path d="M5780 2770 c-8 -5 -10 -10 -5 -10 6 0 17 5 25 10 8 5 11 10 5 10 -5
0 -17 -5 -25 -10z"/>
<path d="M5307 2764 c-5 -5 -21 -7 -110 -12 -16 -1 -26 -6 -22 -11 5 -9 59 -7
125 3 14 3 39 5 55 6 30 2 30 2 5 10 -32 10 -45 11 -53 4z"/>
<path d="M5397 2758 c6 -11 41 -10 48 2 3 5 -7 8 -24 7 -16 -1 -27 -5 -24 -9z"/>
<path d="M6834 2748 l-19 -23 23 19 c12 11 22 21 22 23 0 8 -8 2 -26 -19z"/>
<path d="M5685 2750 c-16 -7 -17 -9 -3 -9 9 -1 20 4 23 9 7 11 7 11 -20 0z"/>
<path d="M7075 2730 c-3 -5 -2 -10 4 -10 5 0 13 5 16 10 3 6 2 10 -4 10 -5 0
-13 -4 -16 -10z"/>
<path d="M5515 2720 c-27 -7 -26 -8 13 -7 24 0 46 5 48 9 6 10 -20 9 -61 -2z"/>
<path d="M5598 2723 c7 -3 16 -2 19 1 4 3 -2 6 -13 5 -11 0 -14 -3 -6 -6z"/>
<path d="M6835 2720 c-3 -6 1 -7 9 -4 18 7 21 14 7 14 -6 0 -13 -4 -16 -10z"/>
<path d="M7467 2706 c-3 -8 -3 -16 0 -19 9 -10 33 5 33 19 0 18 -26 18 -33 0z"/>
<path d="M6082 2650 c-77 -30 -95 -40 -71 -40 16 0 140 44 166 59 37 21 -20
10 -95 -19z"/>
<path d="M6635 2650 c-3 -5 -2 -10 4 -10 5 0 13 5 16 10 3 6 2 10 -4 10 -5 0
-13 -4 -16 -10z"/>
<path d="M6576 2614 c-11 -8 -16 -14 -10 -14 13 0 39 18 34 24 -3 2 -14 -2
-24 -10z"/>
<path d="M6843 2606 c-15 -13 -25 -28 -21 -32 4 -4 19 5 33 20 40 43 32 50
-12 12z"/>
<path d="M5960 2608 c-14 -5 -59 -16 -100 -25 -79 -16 -127 -40 -55 -28 104
18 168 34 178 44 16 16 5 20 -23 9z"/>
<path d="M6524 2585 c-10 -8 -14 -14 -9 -15 15 0 40 18 34 24 -3 3 -14 -1 -25
-9z"/>
<path d="M6402 2532 c-51 -25 -90 -47 -88 -49 4 -4 173 72 185 83 2 2 2 6 0 8
-2 2 -46 -17 -97 -42z"/>
<path d="M6790 2559 c0 -5 5 -7 10 -4 6 3 10 8 10 11 0 2 -4 4 -10 4 -5 0 -10
-5 -10 -11z"/>
<path d="M6941 2532 c-64 -44 -82 -75 -22 -35 23 15 41 31 41 35 0 5 3 7 8 5
4 -3 16 4 26 14 32 31 5 21 -53 -19z"/>
<path d="M6868 2543 c-10 -2 -18 -9 -18 -14 0 -5 -7 -9 -15 -9 -8 0 -15 -4
-15 -9 0 -5 -9 -11 -20 -14 -13 -3 -20 -13 -20 -29 l1 -23 18 23 c11 12 26 22
35 22 15 0 66 41 66 54 0 6 -5 6 -32 -1z"/>
<path d="M6513 2518 c-2 -17 0 -18 15 -7 9 8 18 14 20 15 1 1 -5 4 -16 6 -12
4 -18 -1 -19 -14z"/>
<path d="M6425 2500 c-33 -17 -65 -30 -71 -30 -5 0 -19 -7 -30 -15 -18 -14
-18 -15 6 -6 14 5 30 10 35 11 18 4 140 69 130 69 -5 0 -37 -13 -70 -29z"/>
<path d="M6694 2478 l-19 -23 23 19 c21 18 27 26 19 26 -2 0 -12 -10 -23 -22z"/>
<path d="M6235 2464 l-30 -14 30 6 c17 3 34 10 40 15 14 13 -5 11 -40 -7z"/>
<path d="M6150 2434 l-25 -15 25 5 c14 3 28 6 33 6 4 0 7 5 7 10 0 14 -10 12
-40 -6z"/>
<path d="M6238 2421 c-49 -18 -70 -31 -50 -31 15 0 102 38 102 45 0 3 -1 5 -2
4 -2 0 -24 -9 -50 -18z"/>
<path d="M6075 2409 c-28 -19 -28 -20 -5 -14 14 4 32 13 40 21 21 20 0 16 -35
-7z"/>
<path d="M2495 2410 c3 -5 11 -10 16 -10 6 0 7 5 4 10 -3 6 -11 10 -16 10 -6
0 -7 -4 -4 -10z"/>
<path d="M6005 2386 c-26 -12 -229 -54 -352 -72 -47 -7 -83 -28 -70 -41 9 -9
86 -9 132 -1 17 3 60 11 98 18 37 7 67 16 67 20 0 5 9 6 19 3 21 -5 170 34
186 50 6 6 1 6 -15 2 -69 -22 -159 -42 -155 -36 2 4 31 18 65 32 33 13 60 27
60 31 0 10 1 10 -35 -6z"/>
<path d="M6990 2385 c-14 -8 -20 -14 -14 -15 5 0 19 7 30 15 24 18 16 19 -16
0z"/>
<path d="M6115 2380 l-20 -9 20 0 c11 0 29 4 40 9 l20 9 -20 0 c-11 0 -29 -4
-40 -9z"/>
<path d="M6425 2350 c-3 -5 -1 -10 4 -10 6 0 11 5 11 10 0 6 -2 10 -4 10 -3 0
-8 -4 -11 -10z"/>
<path d="M5369 2295 c-48 -7 -112 -13 -144 -14 -61 -1 -75 -6 -75 -24 0 -10
37 -12 153 -9 126 3 154 6 165 20 28 37 10 42 -99 27z"/>
<path d="M5085 2270 c-3 -5 1 -10 10 -10 9 0 13 5 10 10 -3 6 -8 10 -10 10 -2
0 -7 -4 -10 -10z"/>
<path d="M7105 2254 c-58 -39 -67 -51 -17 -23 37 20 73 49 61 49 -3 0 -22 -12
-44 -26z"/>
<path d="M7285 2249 c-11 -17 -2 -18 19 -3 17 12 17 14 4 14 -9 0 -20 -5 -23
-11z"/>
<path d="M7235 2211 c-3 -6 -13 -11 -20 -11 -8 0 -42 -18 -76 -40 -34 -22 -67
-40 -72 -40 -20 0 -248 -133 -277 -162 -84 -84 33 -43 190 66 25 18 59 38 75
46 17 8 41 25 55 38 14 12 28 22 32 22 10 0 96 59 104 71 3 6 4 13 1 15 -3 3
-8 1 -12 -5z"/>
<path d="M6576 1878 c-68 -35 -163 -66 -395 -129 -123 -33 -236 -66 -250 -74
l-26 -14 40 -1 c58 0 201 35 370 92 154 52 305 121 305 138 0 12 3 13 -44 -12z"/>
<path d="M6610 1789 c-30 -16 -47 -29 -37 -29 18 0 117 46 117 55 0 10 -26 1
-80 -26z"/>
<path d="M6375 1699 c-111 -44 -326 -117 -422 -144 -72 -20 -84 -38 -20 -29
186 27 573 171 551 205 -3 5 -6 9 -7 8 -1 0 -47 -18 -102 -40z"/>
<path d="M3760 1655 c0 -13 11 -19 31 -17 4 1 33 -12 65 -28 32 -17 64 -30 71
-30 30 0 9 22 -49 51 -73 37 -118 46 -118 24z"/>
<path d="M5828 1653 c6 -2 18 -2 25 0 6 3 1 5 -13 5 -14 0 -19 -2 -12 -5z"/>
<path d="M5750 1635 c0 -9 5 -15 11 -13 6 2 11 8 11 13 0 5 -5 11 -11 13 -6 2
-11 -4 -11 -13z"/>
<path d="M5685 1630 c3 -5 10 -10 16 -10 5 0 9 5 9 10 0 6 -7 10 -16 10 -8 0
-12 -4 -9 -10z"/>
<path d="M5290 1531 l-45 -7 50 -5 c28 -3 61 -2 75 2 14 4 18 8 8 8 -9 1 -22
3 -30 4 -7 2 -33 1 -58 -2z"/>
<path d="M5833 1523 c-18 -2 -33 -8 -33 -12 0 -4 16 -5 35 -3 19 2 35 8 35 13
0 5 -1 8 -2 7 -2 0 -18 -3 -35 -5z"/>
<path d="M5565 1500 c-28 -7 -24 -12 10 -12 28 0 35 2 35 12 0 11 -2 11 -45 0z"/>
<path d="M5286 1491 c-104 -8 -112 -27 -14 -33 114 -7 256 9 237 26 -9 8 -149
12 -223 7z"/>
</g>
</svg>
